<svg id="home" xmlns="http://www.w3.org/2000/svg" viewBox="0 0 1920 1080"><defs><style>.cls-1{fill:#151736;}</style></defs><g id="_0" data-name="0"><g id="grass"><path class="cls-1" d="M0,1080c1.88-1.8,3.76-3.59,5.65-5.35,1.23,1,.51,3.15,2.65,1s3.82-6,5.43-8.74c2.55,1.94,4.58,5.62,8.33,5.52s3.36-3.66,5-5.74c2.85.92,5.63,2.11,8.39,3.28,1-4.28,2-8.61,3.06-12.85,2.54,1,4,3.88,7.21,3.32s3.19-3.94,3.67-6.27c2.39,2.35,4.65,4.87,6.91,7.35,3.06-4.31,6.18-8.59,9.31-12.86q1.06,3.45,2.14,6.9c2.19-3.21,4.39-6.47,6.88-9.46,2.87,2.12,3.79,6.47,7.72,7.32s4.63-3.79,5.74-6.06c3.22-.56,3.47,2.37,6.92.22s6.42-7.11,8.5-10.59c.76,1.8-.46,5.15,2.31,5.85s3.54-3,4.18-4.68a50.73,50.73,0,0,1,5.89,2.45c1.57-3.65,3.31-7.21,4.67-11,1.55,1.08,1.62,1.41,3.54,2.66s5.8,4.44,8.85,2.81,2.29-4.63,2.68-7.33c.57.37.67.78,1.34,1.18a96.6,96.6,0,0,0,8.72,4.49c1.68-2.74,3.35-5.53,5.07-8.22,1.73,2.16,2,5.43,5.34,6.15s5.22-2.28,7.35-4.06c1.61,1.35,3.05,2.88,4.54,4.34,3.51-3.46,7-6.91,10.58-10.34.51,2.41,1,4.83,1.56,7.24,3.75-1.82,7.54-3.58,11.31-5.36.23,1.2-.06,2.35.47,3.53s1.75,1.77,3,2.3c1.09-2.53,2.13-5.08,3.25-7.6,2,1.6,4.1,3.21,6.13,4.83,3.76-2.81,7.55-5.59,11.34-8.38q.12,4.73.21,9.43,6.31-3.13,12.72-6.14c.25,1.06.5,2.11.76,3.17,3-2.34,5.94-4.74,8.94-7,2.42,2.11,3.17,5.78,6.5,7s5-2,6.89-3.76c2.55,1.93,4.92,4.06,7.33,6.13l6.65-12c2.26,2.46,4.5,4.93,6.75,7.4,1.44-1.78,2.94-3.54,4.31-5.35,1.31,1.52,1.42,3.09,3,4.58s1.55,3.34,4.77,1.59,7-5.43,9.5-8.21c1.05,1.86-1.66,5.11,1.84,5.67s6.07-3.35,7.77-5.67c2.53,3.13,4.71,6.49,7,9.77,2.39-1.8,4.84-3.66,7.21-5.41,3.08.71,2.53,3.14,6.43,1.63s8.11-5.56,11-8.62c.41,2.18-.38,5.1.57,7.12s1.7.29,2.67-.78,2.43-2.57,3.45-3.72c1.78.43,2.94,1.91,4.83,2.1s2.9-1,3.46-2.52a20.16,20.16,0,0,0,.73-4.84,52.89,52.89,0,0,1,7.92,2.49c2.4,1.1,4.11,3.64,7,2.78s2.37-3.77,3.63-5.69c3.47,1.13,5.32,4.66,9.25,5s5.24-3.53,6.52-6.17c1.74,2.25,3.27,4.67,4.86,7,3.51-1.74,7-3.57,10.58-5.18-.23,1.5-2.29,4.42,0,5.33s2.21-.39,4.27-2.09,6.09-5.16,8.69-7a14.48,14.48,0,0,1-.45,4.23,2.73,2.73,0,0,0,0,1.61c.23.51.73.48,1.08.85,4.05-1.45,8.09-2.87,12.15-4.29.18-.22.52-.46.4-.73,3.21,1.07,1.91,4,6.31,3.65s9.54-3.93,12.7-6.89c.75,2.66-2.48,6.12.47,8.24s6.42-1.94,8.29-3.76a62.1,62.1,0,0,1,5.53,4.93c1.71-3.1,3.44-6.21,5.16-9.31q2.19,3.81,4.4,7.62,7-3.62,14-7.18-.31,4.18-.65,8.39c4.39-1.64,8.8-3.34,13.18-4.91.72,1.33-.9,3,2,1.82s6.2-4.09,8.87-6c1.55,2.69,1.92,6.78,5.35,8.1s4.67-2,7.19-3.2c2.28,2,4.43,4.16,6.62,6.26,2.66-3.49,5.31-7.05,7.95-10.52,2,1.75,2.41,4.85,5.56,5.42s4.54-2.51,5.86-4.51c1.36,3,2.57,6.16,3.83,9.23l13.54-8.71c-.08,2.38-.17,4.75-.26,7.13,3.25-2.25,6.52-4.56,9.86-6.65,2,3,1.59,7.5,5.06,9.55s5.68-2.09,7.57-4c3.26.45,2.66,3.38,6.71,2.38s8.44-4.88,11.5-7.67c.32,2-1.68,4.94.75,6.34s4.24-1.9,5.33-3.4c1.86,1.23,3.49,2.69,5.22,4,2.49-3.18,5.11-6.26,7.41-9.59,1.3,1.4,1.3,1.74,2.93,3.39s4.84,5.69,8.32,4.72,3.25-4.08,4.26-6.64c.49.47.49.89,1.08,1.41a87.62,87.62,0,0,0,7.87,6.11c2.22-2.4,4.43-4.85,6.65-7.21,1.39,2.41,1,5.73,4.29,6.9s5.79-1.59,8.28-3.13c1.43,1.53,2.65,3.22,3.92,4.86l12.39-8.89c.15,2.47.3,4.93.48,7.4,4.12-1.44,8.24-2.9,12.31-4.44.09,1.24-.33,2.39.06,3.63s1.54,1.93,2.75,2.57c1.43-2.5,2.8-5,4.23-7.5q2.87,2.61,5.69,5.27c4.13-2.62,8.3-5.18,12.48-7.72q-.39,4.68-.84,9.34,6.79-2.91,13.62-5.77l.45,3.16c3.22-2.25,6.45-4.57,9.7-6.76,2.31,2.17,2.72,5.85,6,7.13s5.22-2,7.22-3.75c2.41,2,4.62,4.14,6.89,6.24q3.75-5.91,7.52-11.81l6.18,7.73c1.57-1.71,3.18-3.41,4.68-5.17,1.18,1.59,1.18,3.17,2.66,4.74s1.36,3.39,4.65,1.86,7.27-4.91,9.92-7.52c.94,1.94-1.86,5.05,1.54,5.87s6.16-2.88,8-5.06c2.37,3.34,4.36,6.9,6.46,10.39,2.44-1.55,5-3.16,7.36-4.67,2.89,1,2.3,3.41,6.23,2.37s8.21-4.61,11.22-7.34c.27,2.23-.51,5.17.23,7.25s1.54.61,2.63-.37,2.5-2.31,3.61-3.36c1.72.68,2.78,2.31,4.63,2.77s2.87-.62,3.51-2.09a19.39,19.39,0,0,0,.9-4.8,54,54,0,0,1,7.62,3.64c2.25,1.44,3.7,4.32,6.73,3.9s2.5-3.38,3.83-5.14c3.35,1.72,5,5.65,8.85,6.64s5.32-2.8,6.74-5.27c1.64,2.58,3.1,5.3,4.65,8,3.61-1.23,7.23-2.49,10.87-3.59-.36,1.76-1.2,4-.28,5.62s1.89.23,2.9-.43,2-1.43,3-2.11a9.37,9.37,0,0,0-.4-.85c.29.17.58.34.88.5,2.32-1.65,4.64-3.32,7-4.93,0,1.3-.22,2.91-.26,4.12a9.06,9.06,0,0,0,.59,3c1.89-.59,3.79-1.1,5.69-1.65.81-1,1.61-2,2.41-3l1.77,1.85,3.86-1.08-.18,4.32a147,147,0,0,0,13.63-7.32c-.06,2.74-.14,5.48-.22,8.22l1.36-.07-1.28,1.7a62.55,62.55,0,0,0,9.42-4.87l6.18,5.29q1.94-4.54,3.85-9.09l5.64,7.76,13.3-7.09q.28,4.15.55,8.29c4.27-1.54,8.57-3.1,12.86-4.53,1,1.24-.37,2.9,2.39,1.81s5.68-3.85,8.13-5.64c2,2.68,3.32,6.77,6.81,8.07s4.31-1.81,6.87-3c2.62,1.94,5.15,4.08,7.72,6.12,2.21-3.44,4.38-6.95,6.56-10.37,2.29,1.67,3.34,4.74,6.54,5.25s4.18-2.5,5.37-4.52c1.88,2.9,3.66,5.91,5.51,8.84,4.16-2.84,8.31-5.71,12.46-8.57.34,2.25.68,4.5,1,6.75,2.95-2.21,5.9-4.47,9-6.52,2.54,2.73,3.32,7.13,6.86,9s5.2-1.87,7.3-3.61c3.28.42,3.29,3.36,7.25,2.36s7.9-4.91,10.75-7.7c.65,1.85-.69,4.76,1.8,5.8s3.87-2,5-3.49c2.12,1,4.08,2.32,6.1,3.52,2-3.11,4.05-6.13,5.75-9.37,1.56,1.27,1.66,1.6,3.59,3.09s5.87,5.14,9.25,4,2.58-4,3.15-6.53c.58.43.68.84,1.36,1.3,2.82,1.91,6,3.73,9,5.39,1.87-2.43,3.71-4.92,5.57-7.33,1.81,2.23,2.25,5.46,5.59,6.35s5.44-1.78,7.85-3.35c1.75,1.34,3.34,2.86,5,4.31q5.42-4.68,10.77-9.42.95,3.4,1.9,6.83c3.84-1.74,7.71-3.47,11.55-5.22.29,1.14,0,2.22.61,3.33a5.15,5.15,0,0,0,3.2,2.06c1-2.39,2-4.79,3.08-7.18,2.24,1.44,4.5,2.86,6.76,4.28q5.56-4.17,11-8.49c.36,3,.74,5.89,1.11,8.83q6.21-3.39,12.39-6.8c.39,1,.79,1.95,1.19,2.92,2.74-2.48,5.47-5,8.25-7.44,2.68,1.7,3.93,5.1,7.38,5.74s4.7-2.62,6.52-4.54c2.76,1.37,5.35,3,8,4.6q2.64-6.12,5.22-12.25,3.83,3,7.6,6c1.25-1.86,2.55-3.71,3.69-5.61,1.54,1.25,1.75,2.74,3.62,3.9s2.18,2.77,5,.77a38.53,38.53,0,0,0,8.16-8.89c1.32,1.64-.74,5,2.72,5.11s5.39-3.94,6.8-6.36c3,2.55,5.78,5.4,8.55,8.19,2.07-2,4.17-4.14,6.2-6.12,3.16.24,3,2.64,6.6.63s7.06-6.52,9.4-9.9c.81,2,.6,4.89,1.9,6.65s1.71.06,2.49-1.11,1.92-2.83,2.73-4.08c1.82.15,3.32,1.33,5.19,1.24s2.66-1.35,3-2.89a18.1,18.1,0,0,0-.27-4.75,57.07,57.07,0,0,1,8.33,1.23c2.58.7,4.8,2.87,7.43,1.62s1.54-4,2.41-6c3.62.52,6.21,3.58,10.09,3.26s4.39-4.17,5.13-6.94c2.23,1.87,4.31,3.93,6.44,5.91,3.08-2.16,6.16-4.41,9.28-6.47.21,1.55-1,4.65,1.42,5.17s2.15-.65,3.74-2.65,4.46-6,6.37-8.29a7.09,7.09,0,0,1,1,3.55c0,.91.75,1.67.89,2.1s.36.59.39.58a56.68,56.68,0,0,0,9.76-6.2c.19-.52.39-1.05.59-1.57a4.4,4.4,0,0,0,.92.46c.32.06.4-.49.69-.24s.24.68.19,1c2.14.05,2.14,2.35,4.6,1.15,4.57-2.23,7.75-6.46,10.56-10.33,1.49,2.39-.08,6.44,3.45,7.63s5.39-3.36,6.58-5.59c2.54.83,4.87,2,7.28,3.07l1.23-9.78q3.66,2.93,7.34,5.83,5.27-5.21,10.51-10.44,1.39,4.05,2.82,8.08c3.5-2.6,7-5.22,10.64-7.68,1.19,1,.37,3,2.69,1.24s4.27-5.26,6-7.66c2.57,2.23,4.79,6,8.51,6.56s3.55-2.7,5.59-4.41c3,1.44,6,3.09,8.92,4.67,1.14-3.84,2.27-7.73,3.44-11.53,2.59,1.26,4.26,4.15,7.5,4.1s3.37-3.24,3.87-5.42c2.51,2.62,4.92,5.38,7.35,8.09q4.86-5.4,9.75-10.78l2.46,7c2.33-2.74,4.64-5.55,7-8.2,3,2.52,4.52,7,8.46,8.4s4.62-2.77,6.09-4.91c3.24,0,3.84,2.85,7.49,1.37s6.63-5.78,8.73-8.91c1,1.87.26,5,2.92,5.92s3.45-2.42,4.08-4.05c2.23.89,4.29,2,6.41,3.09,1.42-3.42,3-6.77,4.15-10.29,1.69,1.19,1.86,1.54,3.93,2.92s6.35,4.91,9.68,3.53,2-4.29,2.26-6.88c.63.4.77.8,1.51,1.24,3,1.8,6.4,3.51,9.66,5.09,1.52-2.6,3-5.26,4.53-7.83,2,2.26,2.81,5.62,6.21,6.52s5.16-1.89,7.45-3.56c1.82,1.43,3.52,3,5.25,4.56q5-4.8,10-9.63,1.11,3.62,2.24,7.22c3.75-1.66,7.53-3.29,11.27-5,.35,1.2.14,2.34.78,3.5a6.12,6.12,0,0,0,3.3,2.3c.94-2.46,1.81-4.94,2.7-7.41,2.29,1.62,4.58,3.26,6.85,4.9q5.44-4,10.91-8c.35,3.11.71,6.22,1.05,9.33q6.15-3,12.36-5.94c.33,1.06.66,2.13,1,3.2,2.84-2.32,5.68-4.7,8.61-6.91,2.54,2.14,3.64,5.86,7,7.15s4.78-1.88,6.7-3.63c2.64,2,5.1,4.16,7.59,6.3q3.06-5.88,6.17-11.75,3.48,3.84,6.92,7.7c1.4-1.72,2.84-3.42,4.16-5.17,1.29,1.55,1.53,3.16,3.06,4.69s1.52,3.41,4.74,1.89,6.85-4.93,9.38-7.51c1.06,1.92-1.51,5,1.85,5.82s6-2.92,7.62-5.13c2.51,3.34,4.68,6.89,6.94,10.38,2.33-1.58,4.73-3.21,7.06-4.73,2.88,1,2.34,3.38,6.23,2.27s8-4.73,11-7.49c.31,2.19-.42,5.1.38,7.14s1.56.54,2.61-.46,2.46-2.36,3.53-3.43c1.73.61,2.83,2.18,4.68,2.55s2.86-.75,3.46-2.22a19.71,19.71,0,0,0,.83-4.78,51.3,51.3,0,0,1,7.64,3.17c2.27,1.3,3.77,4,6.7,3.4s2.44-3.56,3.73-5.38c3.34,1.41,4.93,5.1,8.79,5.76s5.25-3.15,6.53-5.68c1.6,2.42,3,5,4.47,7.51,3.44-1.43,6.89-3,10.34-4.29-.2,1.57-2.14,4.34,0,5.39s2.19-.16,4.19-1.77,5.77-4.88,8.09-6.78c.38,1.2,0,2.8,0,4a9.17,9.17,0,0,0,.54,2.93l5.49-2.25V1080Z"/></g></g></svg>