<?xml version="1.0" standalone="no"?>
<!DOCTYPE svg PUBLIC "-//W3C//DTD SVG 1.1//EN" "http://www.w3.org/Graphics/SVG/1.1/DTD/svg11.dtd" >
<svg xmlns="http://www.w3.org/2000/svg">
<metadata>Generated by IcoMoon</metadata>
<defs>
<font id="icomaj" horiz-adv-x="1024">
<font-face units-per-em="1024" ascent="960" descent="-64" />
<missing-glyph horiz-adv-x="1024" />
<glyph unicode="&#x20;" horiz-adv-x="512" d="" />
<glyph unicode="&#xe900;" glyph-name="users" d="M298.667 618.667c0 117.821 95.513 213.333 213.333 213.333s213.333-95.513 213.333-213.333c0-117.82-95.514-213.333-213.333-213.333s-213.333 95.514-213.333 213.333zM512 746.667c-70.694 0-128-57.308-128-128s57.306-128 128-128c70.694 0 128 57.308 128 128s-57.306 128-128 128zM268.222 705.788c22.577 6.75 35.407 30.524 28.657 53.101s-30.524 35.407-53.101 28.657c-70.129-20.967-115.778-91.755-115.778-168.879s45.649-147.913 115.778-168.879c22.577-6.75 46.351 6.080 53.101 28.659 6.75 22.575-6.080 46.349-28.657 53.099-28.018 8.376-54.889 41.079-54.889 87.121s26.871 78.745 54.889 87.121zM780.22 787.546c-22.575 6.75-46.349-6.080-53.099-28.657s6.080-46.351 28.659-53.101c28.015-8.376 54.886-41.079 54.886-87.121s-26.871-78.745-54.886-87.121c-22.579-6.75-35.409-30.524-28.659-53.099 6.75-22.579 30.524-35.409 53.099-28.659 70.131 20.966 115.78 91.755 115.78 168.879s-45.649 147.912-115.78 168.879zM512 362.667c-85.069 0-166.595-10.846-228.505-38.34-63.115-28.023-112.829-77.466-112.829-153.66 0-19.913 3.637-42.573 17.183-64.183 13.545-21.602 34.353-37.956 61.231-50.116 51.587-23.339 134.234-35.034 262.92-35.034s211.332 11.695 262.921 35.034c26.876 12.16 47.684 28.514 61.231 50.116 13.547 21.611 17.182 44.271 17.182 64.183 0 76.194-49.715 125.636-112.828 153.66-61.909 27.494-143.437 38.34-228.506 38.34zM256 170.667c0 30.473 17.145 55.697 62.127 75.674 46.186 20.506 113.993 30.993 193.873 30.993s147.686-10.487 193.873-30.993c44.983-19.977 62.127-45.201 62.127-75.674 0-9.54-1.698-14.942-4.151-18.859s-8.311-10.551-24.102-17.694c-33.745-15.266-100.433-27.447-227.746-27.447s-194 12.181-227.747 27.447c-15.789 7.142-21.647 13.777-24.103 17.694-2.454 3.917-4.151 9.318-4.151 18.859zM815.113 381.632c10.475 21.107 36.079 29.73 57.186 19.255 63.74-31.633 109.035-86.268 109.035-166.221 0-23.565-19.102-42.667-42.667-42.667s-42.667 19.102-42.667 42.667c0 40.713-20.267 69.252-61.632 89.779-21.107 10.475-29.73 36.079-19.255 57.186zM189.633 324.446c21.108 10.475 29.728 36.079 19.253 57.186s-36.078 29.73-57.186 19.255c-63.74-31.633-109.034-86.268-109.034-166.221 0-23.565 19.103-42.667 42.667-42.667s42.667 19.102 42.667 42.667c0 40.713 20.268 69.252 61.633 89.779z" />
<glyph unicode="&#xe901;" glyph-name="android" d="M770.56 561.919c-10.637 0-20.838-4.225-28.361-11.747s-11.746-17.722-11.746-28.359v-181.76c0-10.637 4.224-20.838 11.746-28.361s17.724-11.746 28.361-11.746c10.637 0 20.838 4.224 28.361 11.746s11.746 17.724 11.746 28.361v181.76c0 10.637-4.224 20.838-11.746 28.359s-17.724 11.747-28.361 11.747zM253.44 561.919c-10.637 0-20.838-4.225-28.36-11.747s-11.747-17.722-11.747-28.359v-181.76c0-10.637 4.226-20.838 11.747-28.361s17.723-11.746 28.36-11.746c10.637 0 20.838 4.224 28.36 11.746s11.747 17.724 11.747 28.361v181.76c0 10.637-4.226 20.838-11.747 28.359s-17.723 11.747-28.36 11.747zM322.56 561.919v-273.066c0-5.995 1.181-11.934 3.475-17.472s5.657-10.573 9.896-14.81c4.239-4.241 9.272-7.603 14.811-9.899 5.539-2.291 11.475-3.473 17.471-3.473h29.013v-96.853c0-10.637 4.225-20.838 11.747-28.361s17.723-11.746 28.36-11.746c10.637 0 20.838 4.224 28.361 11.746s11.746 17.724 11.746 28.361v96.853h69.12v-96.853c0-10.637 4.224-20.838 11.746-28.361s17.724-11.746 28.361-11.746c10.637 0 20.838 4.224 28.361 11.746s11.746 17.724 11.746 28.361v96.853h29.013c12.109 0 23.718 4.809 32.282 13.372 8.563 8.559 13.372 20.173 13.372 32.282v273.066h-378.88zM696.32 618.666c-12.557 42.129-40.405 78.043-78.080 100.693l-6.4 3.84-6.827 3.413 7.68 13.227 22.613 42.667c0.427 1.216 0.452 2.537 0.068 3.768s-1.156 2.303-2.202 3.059h-2.987c-1.088-0.049-2.155-0.343-3.115-0.86s-1.792-1.244-2.432-2.127l-23.040-39.68-7.253-13.227-6.827 2.987-7.253 2.56c-44.215 15.345-92.318 15.345-136.533 0l-6.827-2.56-7.253-2.987-7.253 13.227-23.040 42.667c-0.393 0.7-0.919 1.317-1.549 1.813s-1.352 0.865-2.125 1.083c-0.773 0.218-1.581 0.282-2.378 0.187s-1.568-0.345-2.268-0.737c-0.701-0.393-1.317-0.919-1.814-1.549s-0.865-1.353-1.083-2.125c-0.218-0.773-0.282-1.581-0.187-2.378s0.344-1.568 0.737-2.268l22.613-42.667 7.68-13.227-6.827-3.413-6.4-3.84c-37.855-22.743-65.623-59.055-77.653-101.547-3.33-11.087-5.195-22.563-5.547-34.133h378.88c-0.418 11.534-2.138 22.984-5.12 34.133zM426.667 641.279c-3.375 0-6.675 1.001-9.482 2.876s-4.994 4.541-6.286 7.659c-1.292 3.119-1.63 6.55-0.972 9.861s2.284 6.352 4.671 8.739c2.387 2.387 5.428 4.012 8.739 4.671s6.743 0.32 9.862-0.971c3.119-1.292 5.781-3.479 7.659-6.286 1.873-2.807 2.876-6.106 2.876-9.481 0-4.527-1.796-8.867-5.001-12.068-3.2-3.2-7.539-4.998-12.066-4.998zM597.333 641.279c-3.375 0-6.677 1.001-9.481 2.876-2.807 1.875-4.996 4.541-6.289 7.659-1.289 3.119-1.63 6.55-0.969 9.861 0.657 3.311 2.283 6.352 4.672 8.739 2.385 2.387 5.427 4.012 8.738 4.671s6.741 0.32 9.86-0.971c3.119-1.292 5.781-3.479 7.659-6.286 1.873-2.807 2.876-6.106 2.876-9.481 0-4.527-1.796-8.867-5.001-12.068-3.2-3.2-7.539-4.998-12.066-4.998z" />
<glyph unicode="&#xe902;" glyph-name="apple" d="M704.853 428.373c-0.512 26.291 6.323 52.203 19.742 74.816s32.883 41.034 56.205 53.184c-14.686 20.419-33.865 37.193-56.055 49.029-22.195 11.836-46.805 18.417-71.945 19.238-54.187 4.267-113.067-31.573-134.827-31.573s-75.52 29.867-116.48 29.867c-85.333 0-175.36-67.84-175.36-203.093 0.411-42.159 7.763-83.964 21.76-123.733 18.773-54.613 89.173-191.573 162.56-189.44 38.4 0 65.707 27.307 115.627 27.307s73.387-27.307 116.48-27.307c73.813 0 137.813 125.867 156.16 181.76-27.78 11.362-51.546 30.741-68.262 55.667-16.721 24.926-25.634 54.268-25.604 84.279zM619.52 678.827c13.257 14.948 23.253 32.495 29.35 51.522s8.162 39.115 6.063 58.985c-39.838-4.369-76.634-23.375-103.253-53.333-13.764-14.503-24.393-31.687-31.219-50.48s-9.707-38.791-8.461-58.747c20.659-0.581 41.156 3.851 59.729 12.916 18.577 9.065 34.679 22.493 46.938 39.137h0.853z" />
<glyph unicode="&#xe903;" glyph-name="arrow-down" d="M512 789.333c23.565 0 42.667-19.103 42.667-42.667v-494.327l183.164 183.164c16.661 16.661 43.678 16.661 60.339 0s16.661-43.678 0-60.339l-256-256c-8-8-18.854-12.497-30.17-12.497s-22.17 4.497-30.17 12.497l-256 256c-16.662 16.661-16.662 43.678 0 60.339s43.677 16.661 60.34 0l183.163-183.164v494.327c0 23.564 19.102 42.667 42.667 42.667z" />
<glyph unicode="&#xe904;" glyph-name="arrow-down-circle" d="M512 789.333c-188.513 0-341.333-152.82-341.333-341.333s152.82-341.333 341.333-341.333c188.514 0 341.333 152.819 341.333 341.333s-152.819 341.333-341.333 341.333zM85.333 448c0 235.642 191.025 426.667 426.667 426.667 235.639 0 426.667-191.025 426.667-426.667 0-235.639-191.027-426.667-426.667-426.667-235.642 0-426.667 191.027-426.667 426.667zM512 661.333c23.565 0 42.667-19.103 42.667-42.667v-238.327l97.83 97.83c16.661 16.661 43.678 16.661 60.339 0s16.661-43.678 0-60.339l-170.667-170.667c-16.661-16.661-43.678-16.661-60.339 0l-170.667 170.667c-16.662 16.661-16.662 43.678 0 60.339s43.677 16.661 60.34 0l97.83-97.83v238.327c0 23.564 19.102 42.667 42.667 42.667z" />
<glyph unicode="&#xe905;" glyph-name="arrow-left" d="M499.503 734.17c16.661-16.663 16.661-43.677 0-60.34l-183.163-183.163h494.327c23.565 0 42.667-19.102 42.667-42.667s-19.102-42.667-42.667-42.667h-494.327l183.163-183.164c16.661-16.661 16.661-43.678 0-60.339s-43.678-16.661-60.339 0l-256 256c-16.662 16.661-16.662 43.678 0 60.339l256 256c16.661 16.662 43.678 16.662 60.339 0z" />
<glyph unicode="&#xe906;" glyph-name="arrow-left-circle" d="M512 789.333c-188.513 0-341.333-152.82-341.333-341.333s152.82-341.333 341.333-341.333c188.514 0 341.333 152.819 341.333 341.333s-152.819 341.333-341.333 341.333zM85.333 448c0 235.642 191.025 426.667 426.667 426.667 235.639 0 426.667-191.025 426.667-426.667 0-235.639-191.027-426.667-426.667-426.667-235.642 0-426.667 191.027-426.667 426.667zM542.17 648.837c16.661-16.663 16.661-43.677 0-60.34l-97.83-97.83h238.327c23.565 0 42.667-19.102 42.667-42.667s-19.102-42.667-42.667-42.667h-238.327l97.83-97.83c16.661-16.661 16.661-43.678 0-60.339s-43.678-16.661-60.339 0l-170.667 170.667c-16.662 16.661-16.662 43.678 0 60.339l170.667 170.667c16.661 16.662 43.678 16.662 60.339 0z" />
<glyph unicode="&#xe907;" glyph-name="arrow-right" d="M524.497 734.17c16.661 16.662 43.678 16.662 60.339 0l256-256c16.661-16.661 16.661-43.678 0-60.339l-256-256c-16.661-16.661-43.678-16.661-60.339 0s-16.661 43.678 0 60.339l183.164 183.164h-494.327c-23.564 0-42.667 19.102-42.667 42.667s19.103 42.667 42.667 42.667h494.327l-183.164 183.163c-16.661 16.663-16.661 43.677 0 60.34z" />
<glyph unicode="&#xe908;" glyph-name="arrow-right-circle" d="M512 789.333c-188.513 0-341.333-152.82-341.333-341.333s152.82-341.333 341.333-341.333c188.514 0 341.333 152.819 341.333 341.333s-152.819 341.333-341.333 341.333zM85.333 448c0 235.642 191.025 426.667 426.667 426.667 235.639 0 426.667-191.025 426.667-426.667 0-235.639-191.027-426.667-426.667-426.667-235.642 0-426.667 191.027-426.667 426.667zM481.83 588.497c-16.661 16.663-16.661 43.677 0 60.34s43.678 16.662 60.339 0l170.667-170.667c16.661-16.661 16.661-43.678 0-60.339l-170.667-170.667c-16.661-16.661-43.678-16.661-60.339 0s-16.661 43.678 0 60.339l97.83 97.83h-238.327c-23.564 0-42.667 19.102-42.667 42.667s19.103 42.667 42.667 42.667h238.327l-97.83 97.83z" />
<glyph unicode="&#xe909;" glyph-name="arrow-up" d="M481.83 776.837c16.661 16.662 43.678 16.662 60.339 0l256-256c16.661-16.661 16.661-43.678 0-60.339s-43.678-16.661-60.339 0l-183.164 183.163v-494.327c0-23.565-19.102-42.667-42.667-42.667s-42.667 19.102-42.667 42.667v494.327l-183.163-183.163c-16.663-16.661-43.677-16.661-60.34 0s-16.662 43.678 0 60.339l256 256z" />
<glyph unicode="&#xe90a;" glyph-name="arrow-up-circle" d="M512 789.333c-188.513 0-341.333-152.82-341.333-341.333s152.82-341.333 341.333-341.333c188.514 0 341.333 152.819 341.333 341.333s-152.819 341.333-341.333 341.333zM85.333 448c0 235.642 191.025 426.667 426.667 426.667 235.639 0 426.667-191.025 426.667-426.667 0-235.639-191.027-426.667-426.667-426.667-235.642 0-426.667 191.027-426.667 426.667zM311.163 478.17l170.667 170.667c16.661 16.662 43.678 16.662 60.339 0l170.667-170.667c16.661-16.661 16.661-43.678 0-60.339s-43.678-16.661-60.339 0l-97.83 97.83v-238.327c0-23.565-19.102-42.667-42.667-42.667s-42.667 19.102-42.667 42.667v238.327l-97.83-97.83c-16.663-16.661-43.677-16.661-60.34 0s-16.662 43.678 0 60.339z" />
<glyph unicode="&#xe90b;" glyph-name="bag" d="M512 832c-70.69 0-127.998-57.308-127.998-128h255.998c0 70.692-57.306 128-128 128zM298.669 704c0 117.821 95.513 213.333 213.331 213.333 117.824 0 213.333-95.513 213.333-213.333h-27.985c18.573-0.002 34.807-0.055 48.427-1.109 15.266-1.181 30.413-3.787 45.338-10.679 21.564-9.955 39.932-25.713 53.047-45.511 9.084-13.706 13.961-28.277 17.451-43.187 3.281-14.021 5.905-31.081 8.922-50.69l19.243-125.095c8.222-53.427 14.818-96.29 17.088-131.063 2.325-35.622 0.525-67.294-11.127-97.075-17.583-44.932-49.882-82.577-91.618-106.79-27.665-16.047-58.692-22.639-94.251-25.758-34.714-3.042-78.084-3.042-132.134-3.042h-131.46c-54.051 0-97.42 0-132.132 3.042-35.562 3.119-66.589 9.711-94.252 25.758-41.737 24.213-74.035 61.858-91.618 106.79-11.654 29.781-13.452 61.453-11.126 97.075 2.269 34.769 8.864 77.636 17.084 131.059l19.247 125.101c3.016 19.608 5.64 36.668 8.921 50.688 3.489 14.91 8.367 29.481 17.449 43.187 13.118 19.798 31.485 35.555 53.048 45.511 14.928 6.892 30.071 9.497 45.338 10.679 13.621 1.054 29.856 1.107 48.428 1.109h-27.987zM284.812 617.812c-10.124-0.783-14.059-2.108-16.152-3.074-7.187-3.319-13.31-8.571-17.682-15.171-1.274-1.922-3.181-5.61-5.495-15.497-2.438-10.42-4.585-24.181-7.899-45.721l-18.71-121.616c-8.595-55.868-14.581-95.031-16.578-125.628-1.969-30.174 0.361-47.437 5.44-60.416 10.55-26.961 29.929-49.549 54.971-64.077 12.056-6.993 28.765-11.921 58.888-14.562 30.544-2.679 70.163-2.718 126.688-2.718h127.441c56.525 0 96.145 0.038 126.686 2.718 30.123 2.641 46.835 7.569 58.889 14.562 25.045 14.528 44.42 37.116 54.972 64.077 5.082 12.979 7.411 30.242 5.44 60.416-1.997 30.596-7.983 69.76-16.576 125.628l-18.714 121.616c-3.311 21.539-5.461 35.301-7.898 45.721-2.313 9.886-4.22 13.574-5.495 15.497-4.373 6.599-10.496 11.852-17.681 15.171-2.095 0.966-6.029 2.291-16.154 3.074-10.667 0.826-24.597 0.855-46.387 0.855h-361.602c-21.793 0-35.721-0.029-46.39-0.855z" />
<glyph unicode="&#xe90c;" glyph-name="battery" d="M332.288 746.667h274.091c34.923 0 63.748 0.001 87.215-1.948 24.375-2.025 46.771-6.371 67.746-17.267 31.172-16.192 56.589-41.608 72.781-72.779 10.893-20.977 15.241-43.37 17.263-67.747 1.95-23.467 1.95-52.291 1.95-87.214v-103.424c0-34.923 0-63.748-1.95-87.215-2.022-24.375-6.37-46.771-17.263-67.746-16.192-31.172-41.609-56.589-72.781-72.781-20.975-10.893-43.371-15.241-67.746-17.267-23.467-1.946-52.292-1.946-87.215-1.946h-274.092c-34.924 0-63.746 0-87.213 1.946-24.378 2.027-46.771 6.374-67.747 17.267-31.171 16.192-56.587 41.609-72.779 72.781-10.897 20.975-15.243 43.371-17.267 67.746-1.949 23.467-1.948 52.292-1.948 87.215v103.424c0 34.924-0.001 63.747 1.948 87.214 2.025 24.378 6.371 46.771 17.267 67.747 16.192 31.171 41.608 56.587 72.779 72.779 20.977 10.897 43.37 15.243 67.747 17.267 23.467 1.949 52.29 1.948 87.213 1.948zM252.137 659.678c-19.005-1.578-28.707-4.438-35.473-7.952-15.585-8.096-28.293-20.804-36.39-36.39-3.514-6.766-6.374-16.468-7.952-35.473-1.621-19.516-1.655-44.78-1.655-81.943v-99.84c0-37.163 0.034-62.426 1.655-81.941 1.578-19.008 4.438-28.71 7.952-35.473 8.096-15.586 20.804-28.297 36.39-36.39 6.766-3.516 16.468-6.374 35.473-7.953 19.516-1.621 44.78-1.655 81.943-1.655h270.507c37.163 0 62.426 0.034 81.941 1.655 19.008 1.579 28.71 4.437 35.473 7.953 15.586 8.094 28.297 20.804 36.39 36.39 3.516 6.763 6.374 16.465 7.953 35.473 1.621 19.516 1.655 44.779 1.655 81.941v99.84c0 37.164-0.034 62.427-1.655 81.943-1.579 19.005-4.437 28.707-7.953 35.473-8.094 15.585-20.804 28.293-36.39 36.39-6.763 3.514-16.465 6.374-35.473 7.952-19.516 1.621-44.779 1.655-81.941 1.655h-270.507c-37.164 0-62.427-0.034-81.943-1.655zM938.667 618.667c23.565 0 42.667-19.103 42.667-42.667v-256c0-23.565-19.102-42.667-42.667-42.667s-42.667 19.102-42.667 42.667v256c0 23.564 19.102 42.667 42.667 42.667z" />
<glyph unicode="&#xe90d;" glyph-name="bell-notification" d="M516.442 832c-123.916 0-219.716-93.694-219.716-203.709v-104.293c0-13.726-5.641-25.856-8.581-31.821-3.82-7.753-8.815-15.974-14.144-24.034-10.734-16.235-25.1-35.23-40.406-54.426-19.639-24.636-23.821-53.158-17.565-75.059 5.944-20.809 21.379-37.090 47.715-41.459 66.416-11.012 151.326-19.866 252.696-19.866 108.843 0 192.034 10.206 252.19 22.174 21.367 4.254 33.724 17.165 39.066 33.865 5.705 17.843 3.703 42.057-10.662 65.105-6.903 11.076-14.323 22.396-21.798 33.745-0.764 1.161-1.532 2.321-2.295 3.486-6.618 10.039-13.282 20.151-19.221 29.551-6.545 10.364-12.911 20.958-17.749 30.63-3.78 7.561-10.637 21.986-10.637 37.444v97.624c0 111.732-86.763 201.043-208.892 201.043zM211.392 628.291c0 162.124 139.145 289.043 305.050 289.043 167.693 0 294.225-125.968 294.225-286.376v-93.431c0.358-0.829 0.879-1.978 1.63-3.479 2.884-5.77 7.415-13.476 13.568-23.217 5.466-8.653 11.657-18.044 18.359-28.215 0.751-1.143 1.51-2.291 2.274-3.452 7.467-11.337 15.424-23.462 22.959-35.554 26.415-42.385 33.519-92.454 19.516-136.235-14.37-44.928-50.551-80.99-103.689-91.558-65.856-13.103-154.633-23.817-268.843-23.817-106.35 0-195.935 9.289-266.657 21.018-60.647 10.057-101.313 51.469-115.806 102.199-14.18 49.638-3.136 106.505 32.893 151.697 14.728 18.47 27.275 35.174 35.945 48.29 4.189 6.336 6.961 11.068 8.576 14.272v98.814zM212.64 532.271c0.012 0.004-0.047-0.179-0.213-0.58 0.118 0.375 0.201 0.572 0.213 0.58zM673.506 133.086c14.588-18.505 11.418-45.333-7.087-59.921-87.091-68.676-220.843-69.547-308.875 0.026-18.487 14.613-21.629 41.446-7.018 59.934s41.443 21.628 59.93 7.019c56.773-44.873 146.778-44.403 203.124 0.026 18.505 14.592 45.333 11.422 59.925-7.083z" />
<glyph unicode="&#xe90e;" glyph-name="bitcoin" d="M576.853 376.747c-11.52-46.507-89.6-21.333-115.2-14.933l20.48 82.347c25.6-6.4 106.667-18.773 94.72-67.413zM510.293 556.799l-18.773-74.665c21.333-5.12 86.613-26.88 97.28 15.36 10.667 43.945-57.173 54.185-78.507 59.305zM843.093 365.653c-45.653-182.613-230.827-293.973-413.867-248.747-182.613 45.653-294.4 230.827-248.747 413.44 45.653 183.039 230.827 293.972 413.867 248.745 182.613-45.653 294.4-230.827 248.747-413.439zM399.787 390.827c-1.707-4.693-6.4-11.52-17.067-8.96-1.707 0-27.307 6.827-27.307 6.827l-18.773-42.667 48.64-11.947c9.387-2.56 17.92-4.693 26.88-7.253l-15.36-61.867 37.12-9.387 15.36 61.44c10.24-2.987 20.053-5.12 29.867-7.68l-15.36-61.013 37.547-9.387 15.36 61.867c64-11.947 112.213-7.253 132.267 50.773 16.213 46.507-0.853 73.387-34.56 90.88 24.32 5.547 42.667 21.76 47.787 55.040 6.827 45.225-27.733 69.972-75.093 85.759l15.36 61.867-37.547 9.387-14.933-59.733c-9.813 2.56-20.053 4.693-30.293 7.253l14.933 60.16-37.12 9.387-15.36-61.44c-8.107 1.707-16.213 3.84-23.893 5.547l-51.627 13.227-9.813-40.107c0 0 27.307-6.4 27.307-6.827 14.933-3.84 17.493-13.653 17.493-21.76l-42.24-168.532 0.427-0.853z" />
<glyph unicode="&#xe90f;" glyph-name="bookmark" d="M417.621 832h188.758c34.923 0 63.748 0.001 87.215-1.948 24.375-2.025 46.771-6.371 67.746-17.267 31.172-16.192 56.589-41.608 72.781-72.779 10.893-20.977 15.241-43.37 17.267-67.747 1.946-23.467 1.946-52.289 1.946-87.213v-376.948c0-41.079 0-74.786-2.249-100.403-2.125-24.145-6.805-52.604-25.57-73.203-23.061-25.306-56.862-38.007-90.88-34.146-27.686 3.145-49.95 21.483-67.447 38.255-18.56 17.792-40.759 43.162-67.81 74.078l-16.094 18.394c-18.539 21.188-30.66 34.982-40.704 44.625-9.728 9.344-14.34 11.58-16.661 12.382-9.020 3.11-18.816 3.11-27.836 0-2.321-0.802-6.933-3.038-16.661-12.382-10.044-9.643-22.165-23.437-40.704-44.625l-16.094-18.394c-27.051-30.916-49.248-56.282-67.811-74.078-17.495-16.772-39.76-35.11-67.447-38.255-34.016-3.861-67.819 8.841-90.876 34.146-18.768 20.599-23.448 49.058-25.57 73.203-2.252 25.617-2.252 59.324-2.251 100.403v376.948c0 34.924-0.001 63.747 1.948 87.213 2.025 24.378 6.371 46.771 17.267 67.747 16.192 31.171 41.608 56.587 72.779 72.779 20.977 10.897 43.37 15.243 67.747 17.267 23.467 1.949 52.29 1.948 87.213 1.948zM337.47 745.012c-19.005-1.578-28.707-4.438-35.473-7.952-15.585-8.096-28.293-20.804-36.39-36.39-3.514-6.766-6.374-16.468-7.952-35.473-1.621-19.516-1.655-44.78-1.655-81.943v-373.018c0-43.742 0.040-73.651 1.923-95.070 1.55-17.626 4.020-23.159 4.241-23.834 4.383-4.433 10.49-6.729 16.708-6.276 0.609 0.358 6.114 2.897 18.886 15.142 15.52 14.878 35.246 37.363 64.051 70.281l15.873 18.142c17.025 19.456 31.589 36.105 44.641 48.636 13.671 13.124 28.8 24.892 47.924 31.488 27.055 9.335 56.452 9.335 83.507 0 19.123-6.596 34.253-18.364 47.923-31.488 13.052-12.531 27.618-29.18 44.642-48.636l15.872-18.142c28.804-32.917 48.533-55.403 64.051-70.281 12.77-12.245 18.278-14.784 18.884-15.142 6.221-0.452 12.326 1.843 16.708 6.276 0.222 0.674 2.692 6.208 4.241 23.834 1.886 21.419 1.924 51.328 1.924 95.070v373.018c0 37.164-0.034 62.427-1.655 81.943-1.579 19.005-4.437 28.707-7.953 35.473-8.094 15.585-20.804 28.293-36.39 36.39-6.763 3.514-16.465 6.374-35.473 7.952-19.516 1.621-44.779 1.655-81.941 1.655h-185.173c-37.164 0-62.427-0.034-81.943-1.655z" />
<glyph unicode="&#xe910;" glyph-name="calendar" d="M341.333 917.333c23.564 0 42.667-19.103 42.667-42.667v-42.764c12.682 0.098 26.367 0.097 41.152 0.097h173.696c14.784 0 28.471 0 41.152-0.097v42.764c0 23.564 19.102 42.667 42.667 42.667s42.667-19.103 42.667-42.667v-47.983c13.619-2.322 26.496-5.755 38.972-10.923 52.275-21.652 93.803-63.183 115.456-115.455 9.007-21.747 12.745-44.714 14.515-70.687 1.724-25.259 1.724-56.295 1.724-94.77v-155.265c0-47.023 0-84.945-2.547-115.639-2.624-31.612-8.175-59.354-21.47-84.954-20.241-38.963-52.011-70.733-90.974-90.974-25.6-13.295-53.342-18.846-84.954-21.47-30.694-2.547-68.617-2.547-115.639-2.547h-136.832c-47.021 0-84.946 0-115.641 2.547-31.608 2.624-59.351 8.175-84.951 21.47-38.964 20.241-70.734 52.011-90.974 90.974-13.298 25.6-18.845 53.342-21.47 84.954-2.549 30.694-2.548 68.617-2.548 115.639v155.264c0 38.475 0 69.512 1.723 94.77 1.772 25.973 5.508 48.94 14.516 70.687 21.652 52.273 63.183 93.803 115.455 115.455 12.477 5.168 25.356 8.601 38.973 10.923v47.983c0 23.564 19.103 42.667 42.667 42.667zM298.667 739.21c-2.264-0.711-4.353-1.473-6.317-2.287-31.363-12.991-56.282-37.91-69.273-69.273-3.983-9.616-6.743-22.212-8.218-43.84-0.905-13.27-1.273-28.76-1.423-47.81h597.129c-0.149 19.050-0.516 34.54-1.421 47.81-1.476 21.628-4.237 34.224-8.222 43.84-12.988 31.363-37.909 56.282-69.269 69.273-1.967 0.814-4.053 1.576-6.319 2.287v-35.21c0-23.564-19.102-42.667-42.667-42.667s-42.667 19.103-42.667 42.667v42.565c-12.548 0.098-26.645 0.102-42.667 0.102h-170.667c-16.022 0-30.117-0.004-42.667-0.102v-42.565c0-23.564-19.102-42.667-42.667-42.667s-42.667 19.103-42.667 42.667v35.21zM810.667 490.667h-597.333v-109.227c0-49.314 0.034-83.686 2.255-110.434 2.179-26.236 6.239-41.289 12.156-52.676 12.144-23.381 31.206-42.441 54.584-54.583 11.39-5.918 26.441-9.98 52.676-12.156 26.747-2.223 61.122-2.257 110.435-2.257h133.12c49.314 0 83.686 0.034 110.434 2.257 26.236 2.176 41.289 6.238 52.676 12.156 23.381 12.143 42.441 31.202 54.583 54.583 5.918 11.388 9.98 26.441 12.156 52.676 2.223 26.748 2.257 61.12 2.257 110.434v109.227zM554.667 277.333c0 23.565 19.102 42.667 42.667 42.667h85.333c23.565 0 42.667-19.102 42.667-42.667s-19.102-42.667-42.667-42.667h-85.333c-23.565 0-42.667 19.102-42.667 42.667z" />
<glyph unicode="&#xe911;" glyph-name="camera" d="M272.748 796.576c27.78 45.812 77.528 78.091 134.509 78.091h209.486c56.981 0 106.731-32.279 134.511-78.091 8.465-13.964 17.946-28.626 27.712-42.030 4.672-6.413 13.798-11.536 26.458-11.536h5.235c94.259 0 170.675-76.415 170.675-170.667v-337.676c0-94.255-76.412-170.667-170.667-170.667h-597.333c-94.257 0-170.667 76.412-170.667 170.667v337.676c0 94.252 76.396 170.667 170.656 170.667h5.232c12.661 0 21.807 5.123 26.48 11.536 9.767 13.404 19.245 28.066 27.712 42.030zM407.257 789.333c-23.823 0-47.425-13.721-61.543-37.004-9.28-15.304-20.108-32.112-31.713-48.038-23.417-32.136-60.388-46.615-95.425-46.615h-5.232c-47.124 0-85.344-38.201-85.344-85.334v-337.676c0-47.13 38.205-85.333 85.333-85.333h597.333c47.13 0 85.333 38.204 85.333 85.333v337.676c0 47.133-38.199 85.333-85.325 85.333h-5.231c-35.038 0-72.030 14.479-95.445 46.615-11.605 15.927-22.434 32.734-31.714 48.038-14.118 23.282-37.717 37.004-61.542 37.004h-209.486zM512 576c-70.694 0-128-57.306-128-128s57.306-128 128-128c70.694 0 128 57.306 128 128s-57.306 128-128 128zM298.667 448c0 117.821 95.513 213.333 213.333 213.333s213.333-95.513 213.333-213.333c0-117.82-95.514-213.333-213.333-213.333s-213.333 95.514-213.333 213.333z" />
<glyph unicode="&#xe912;" glyph-name="cart" d="M42.667 832c0 23.564 19.103 42.667 42.667 42.667 69.325 0 130.873-44.361 152.795-110.129l5.957-17.871h525.194c27.985 0.001 51.785 0.002 71.044-1.719 20.049-1.791 40.090-5.753 58.406-16.877 25.715-15.616 45.103-39.788 54.771-68.276 6.886-20.294 6.404-40.717 3.806-60.677-2.5-19.174-7.663-42.408-13.734-69.728l-13.065-58.795c-6.178-27.793-11.319-50.931-16.99-69.713-5.931-19.652-13.227-37.376-25.067-53.577-17.805-24.363-41.749-43.571-69.393-55.663-18.385-8.047-37.269-11.324-57.741-12.851-19.563-1.459-43.26-1.459-71.735-1.459h-227.166c-28.476 0-52.172 0-71.737 1.459-20.471 1.527-39.354 4.804-57.74 12.851-27.645 12.092-51.588 31.3-69.391 55.663-11.84 16.201-19.135 33.924-25.068 53.577-5.67 18.782-10.81 41.916-16.987 69.713l-49.333 221.999-14.986 44.958c-10.307 30.922-39.246 51.78-71.841 51.78-23.564 0-42.667 19.103-42.667 42.667zM266.522 661.333l37.934-170.701c6.602-29.709 11.076-49.715 15.716-65.088 4.482-14.844 8.318-22.477 12.274-27.891 8.902-12.181 20.873-21.786 34.696-27.831 6.143-2.688 14.426-4.779 29.891-5.931 16.013-1.199 36.512-1.225 66.946-1.225h224.043c30.434 0 50.931 0.026 66.944 1.225 15.467 1.152 23.748 3.243 29.892 5.931 13.824 6.046 25.796 15.65 34.697 27.831 3.955 5.414 7.791 13.047 12.275 27.891 4.638 15.373 9.114 35.379 15.714 65.088l12.318 55.433c6.592 29.657 10.88 49.141 12.826 64.079 1.903 14.581 0.794 19.909 0.004 22.232-3.221 9.495-9.685 17.553-18.253 22.758-2.099 1.273-7.057 3.51-21.705 4.818-15.006 1.34-34.957 1.38-65.335 1.38h-500.876zM469.333 149.333c0-47.13-38.204-85.333-85.333-85.333-47.128 0-85.333 38.204-85.333 85.333s38.205 85.333 85.333 85.333c47.13 0 85.333-38.204 85.333-85.333zM768 64c47.13 0 85.333 38.204 85.333 85.333s-38.204 85.333-85.333 85.333c-47.13 0-85.333-38.204-85.333-85.333s38.204-85.333 85.333-85.333z" />
<glyph unicode="&#xe913;" glyph-name="check" d="M840.836 691.503c16.661-16.663 16.661-43.677 0-60.34l-396.497-396.497c-33.324-33.327-87.354-33.323-120.679 0l-183.164 183.164c-16.662 16.661-16.662 43.678 0 60.339s43.677 16.661 60.34 0l183.163-183.164 396.497 396.497c16.661 16.662 43.678 16.662 60.339 0z" />
<glyph unicode="&#xe914;" glyph-name="checks-double" d="M712.836 648.837c16.661-16.663 16.661-43.677 0-60.34l-353.83-353.83c-33.325-33.327-87.355-33.323-120.679 0v0l-140.497 140.497c-16.662 16.661-16.662 43.678 0 60.339s43.677 16.661 60.34 0l140.497-140.497 353.83 353.831c16.661 16.662 43.678 16.662 60.339 0zM926.17 648.837c16.661-16.663 16.661-43.677 0-60.34l-384-384c-16.661-16.661-43.678-16.661-60.339 0s-16.661 43.678 0 60.339l384 384c16.661 16.662 43.678 16.662 60.339 0z" />
<glyph unicode="&#xe915;" glyph-name="chevron-down" d="M225.83 606.17c16.663 16.662 43.677 16.662 60.34 0l225.83-225.831 225.83 225.831c16.661 16.662 43.678 16.662 60.339 0s16.661-43.677 0-60.34l-248.457-248.456c-20.83-20.83-54.596-20.83-75.426 0l-248.457 248.456c-16.662 16.663-16.662 43.677 0 60.34z" />
<glyph unicode="&#xe916;" glyph-name="chevron-left" d="M670.17 734.17c16.661-16.663 16.661-43.677 0-60.34l-225.83-225.83 225.83-225.83c16.661-16.661 16.661-43.678 0-60.339-16.666-16.661-43.678-16.661-60.339 0l-248.46 248.457c-20.828 20.83-20.828 54.596 0 75.426l248.46 248.457c16.661 16.662 43.674 16.662 60.339 0z" />
<glyph unicode="&#xe917;" glyph-name="chevron-right" d="M353.83 734.17c16.663 16.662 43.677 16.662 60.34 0l248.456-248.457c20.83-20.83 20.83-54.596 0-75.426l-248.456-248.457c-16.663-16.661-43.677-16.661-60.34 0s-16.662 43.678 0 60.339l225.831 225.83-225.831 225.83c-16.662 16.663-16.662 43.677 0 60.34z" />
<glyph unicode="&#xe918;" glyph-name="chevron-up" d="M474.287 598.627c20.83 20.828 54.596 20.828 75.426 0l248.457-248.457c16.661-16.661 16.661-43.678 0-60.339-16.661-16.666-43.678-16.666-60.339 0l-225.83 225.83-225.83-225.83c-16.663-16.666-43.677-16.666-60.34 0-16.662 16.661-16.662 43.678 0 60.339l248.457 248.457z" />
<glyph unicode="&#xe919;" glyph-name="circle-add" d="M554.667 618.667c0 23.564-19.102 42.667-42.667 42.667s-42.667-19.103-42.667-42.667v-128h-128c-23.564 0-42.667-19.102-42.667-42.667s19.103-42.667 42.667-42.667h128v-128c0-23.565 19.102-42.667 42.667-42.667s42.667 19.102 42.667 42.667v128h128c23.565 0 42.667 19.102 42.667 42.667s-19.102 42.667-42.667 42.667h-128v128zM512 874.667c-235.642 0-426.667-191.025-426.667-426.667 0-235.639 191.025-426.667 426.667-426.667 235.639 0 426.667 191.027 426.667 426.667 0 235.642-191.027 426.667-426.667 426.667zM170.667 448c0 188.513 152.82 341.333 341.333 341.333s341.333-152.82 341.333-341.333c0-188.514-152.819-341.333-341.333-341.333s-341.333 152.819-341.333 341.333z" />
<glyph unicode="&#xe91a;" glyph-name="circle-block" d="M512 874.667c235.639 0 426.667-191.025 426.667-426.667 0-235.639-191.027-426.667-426.667-426.667-235.642 0-426.667 191.027-426.667 426.667 0 235.642 191.025 426.667 426.667 426.667zM340.064 742.931l459.599-478.748c33.971 53.060 53.67 116.139 53.67 183.817 0 188.513-152.819 341.333-341.333 341.333-62.694 0-121.444-16.904-171.936-46.402zM271.952 690.663c-62.539-61.869-101.285-147.741-101.285-242.663 0-188.514 152.82-341.333 341.333-341.333 89.911 0 171.703 34.765 232.67 91.584l-472.718 492.412z" />
<glyph unicode="&#xe91b;" glyph-name="circle-close" d="M414.17 606.17c-16.663 16.662-43.677 16.662-60.34 0s-16.662-43.677 0-60.34l97.831-97.83-97.831-97.83c-16.662-16.661-16.662-43.678 0-60.339s43.677-16.661 60.34 0l97.83 97.83 97.83-97.83c16.661-16.661 43.678-16.661 60.339 0s16.661 43.678 0 60.339l-97.83 97.83 97.83 97.83c16.661 16.663 16.661 43.677 0 60.34s-43.678 16.662-60.339 0l-97.83-97.831-97.83 97.831zM512 874.667c-235.642 0-426.667-191.025-426.667-426.667 0-235.639 191.025-426.667 426.667-426.667 235.639 0 426.667 191.027 426.667 426.667 0 235.642-191.027 426.667-426.667 426.667zM170.667 448c0 188.513 152.82 341.333 341.333 341.333s341.333-152.82 341.333-341.333c0-188.514-152.819-341.333-341.333-341.333s-341.333 152.819-341.333 341.333z" />
<glyph unicode="&#xe91c;" glyph-name="circle-divide" d="M341.333 490.667c-23.564 0-42.667-19.102-42.667-42.667s19.103-42.667 42.667-42.667h341.333c23.565 0 42.667 19.102 42.667 42.667s-19.102 42.667-42.667 42.667h-341.333zM554.667 320c0-23.565-19.102-42.667-42.667-42.667s-42.667 19.102-42.667 42.667c0 23.565 19.102 42.667 42.667 42.667s42.667-19.102 42.667-42.667zM512 533.333c23.565 0 42.667 19.103 42.667 42.667s-19.102 42.667-42.667 42.667c-23.565 0-42.667-19.103-42.667-42.667s19.102-42.667 42.667-42.667zM512 874.667c-235.642 0-426.667-191.025-426.667-426.667 0-235.639 191.025-426.667 426.667-426.667 235.639 0 426.667 191.027 426.667 426.667 0 235.642-191.027 426.667-426.667 426.667zM170.667 448c0 188.513 152.82 341.333 341.333 341.333s341.333-152.82 341.333-341.333c0-188.514-152.819-341.333-341.333-341.333s-341.333 152.819-341.333 341.333z" />
<glyph unicode="&#xe91d;" glyph-name="circle-emphasis" d="M512 661.333c23.565 0 42.667-19.103 42.667-42.667v-213.333c0-23.565-19.102-42.667-42.667-42.667s-42.667 19.102-42.667 42.667v213.333c0 23.564 19.102 42.667 42.667 42.667zM512 234.667c23.565 0 42.667 19.102 42.667 42.667s-19.102 42.667-42.667 42.667c-23.565 0-42.667-19.102-42.667-42.667s19.102-42.667 42.667-42.667zM85.333 448c0 235.642 191.025 426.667 426.667 426.667 235.639 0 426.667-191.025 426.667-426.667 0-235.639-191.027-426.667-426.667-426.667-235.642 0-426.667 191.027-426.667 426.667zM512 789.333c-188.513 0-341.333-152.82-341.333-341.333s152.82-341.333 341.333-341.333c188.514 0 341.333 152.819 341.333 341.333s-152.819 341.333-341.333 341.333z" />
<glyph unicode="&#xe91e;" glyph-name="circle-help" d="M554.667 234.667c0-23.565-19.102-42.667-42.667-42.667s-42.667 19.102-42.667 42.667c0 23.565 19.102 42.667 42.667 42.667s42.667-19.102 42.667-42.667zM437.333 549.333c0 36.443 31.539 69.333 74.667 69.333s74.667-32.89 74.667-69.333c0-25.028-14.455-47.932-37.777-60.288-11.174-5.922-27.482-14.707-41.468-28.433-24.363-23.902-38.089-56.597-38.089-90.726v-7.219c0-23.565 19.102-42.667 42.667-42.667s42.667 19.102 42.667 42.667v7.219c0 11.217 4.51 21.961 12.514 29.815 4.19 4.109 10.334 7.94 21.662 13.939 48.802 25.86 83.157 76.399 83.157 135.693 0 87.269-73.527 154.667-160 154.667s-160-67.398-160-154.667c0-23.565 19.103-42.667 42.667-42.667s42.667 19.102 42.667 42.667zM85.333 448c0 235.642 191.025 426.667 426.667 426.667 235.639 0 426.667-191.025 426.667-426.667 0-235.639-191.027-426.667-426.667-426.667-235.642 0-426.667 191.027-426.667 426.667zM512 789.333c-188.513 0-341.333-152.82-341.333-341.333s152.82-341.333 341.333-341.333c188.514 0 341.333 152.819 341.333 341.333s-152.819 341.333-341.333 341.333z" />
<glyph unicode="&#xe91f;" glyph-name="circle-info" d="M512 533.333c23.565 0 42.667-19.102 42.667-42.667v-213.333c0-23.565-19.102-42.667-42.667-42.667s-42.667 19.102-42.667 42.667v213.333c0 23.565 19.102 42.667 42.667 42.667zM512 661.333c23.565 0 42.667-19.103 42.667-42.667s-19.102-42.667-42.667-42.667c-23.565 0-42.667 19.103-42.667 42.667s19.102 42.667 42.667 42.667zM85.333 448c0 235.642 191.025 426.667 426.667 426.667 235.639 0 426.667-191.025 426.667-426.667 0-235.639-191.027-426.667-426.667-426.667-235.642 0-426.667 191.027-426.667 426.667zM512 789.333c-188.513 0-341.333-152.82-341.333-341.333s152.82-341.333 341.333-341.333c188.514 0 341.333 152.819 341.333 341.333s-152.819 341.333-341.333 341.333z" />
<glyph unicode="&#xe920;" glyph-name="circle-more" d="M682.667 405.333c23.565 0 42.667 19.102 42.667 42.667s-19.102 42.667-42.667 42.667c-23.565 0-42.667-19.102-42.667-42.667s19.102-42.667 42.667-42.667zM554.667 448c0-23.565-19.102-42.667-42.667-42.667s-42.667 19.102-42.667 42.667c0 23.565 19.102 42.667 42.667 42.667s42.667-19.102 42.667-42.667zM341.333 405.333c23.564 0 42.667 19.102 42.667 42.667s-19.103 42.667-42.667 42.667c-23.564 0-42.667-19.102-42.667-42.667s19.103-42.667 42.667-42.667zM512 874.667c-235.642 0-426.667-191.025-426.667-426.667 0-235.639 191.025-426.667 426.667-426.667 235.639 0 426.667 191.027 426.667 426.667 0 235.642-191.027 426.667-426.667 426.667zM170.667 448c0 188.513 152.82 341.333 341.333 341.333s341.333-152.82 341.333-341.333c0-188.514-152.819-341.333-341.333-341.333s-341.333 152.819-341.333 341.333z" />
<glyph unicode="&#xe921;" glyph-name="circle-substract" d="M341.333 490.667c-23.564 0-42.667-19.102-42.667-42.667s19.103-42.667 42.667-42.667h341.333c23.565 0 42.667 19.102 42.667 42.667s-19.102 42.667-42.667 42.667h-341.333zM512 874.667c-235.642 0-426.667-191.025-426.667-426.667 0-235.639 191.025-426.667 426.667-426.667 235.639 0 426.667 191.027 426.667 426.667 0 235.642-191.027 426.667-426.667 426.667zM170.667 448c0 188.513 152.82 341.333 341.333 341.333s341.333-152.82 341.333-341.333c0-188.514-152.819-341.333-341.333-341.333s-341.333 152.819-341.333 341.333z" />
<glyph unicode="&#xe922;" glyph-name="close" d="M225.83 734.17c16.663 16.662 43.677 16.662 60.34 0l225.83-225.831 225.83 225.831c16.661 16.662 43.678 16.662 60.339 0s16.661-43.677 0-60.34l-225.83-225.83 225.83-225.83c16.661-16.661 16.661-43.678 0-60.339s-43.678-16.661-60.339 0l-225.83 225.83-225.83-225.83c-16.663-16.661-43.677-16.661-60.34 0s-16.662 43.678 0 60.339l225.831 225.83-225.831 225.83c-16.662 16.663-16.662 43.677 0 60.34z" />
<glyph unicode="&#xe923;" glyph-name="codepen" d="M512.004 959c-282.226 0-511.004-228.782-511.004-511.004 0-282.226 228.778-510.996 511.004-510.996 282.218 0 510.996 228.77 510.996 510.996 0 282.222-228.778 511.004-510.996 511.004zM512.004 20.918c-235.494 0-427.076 191.59-427.076 427.078 0 235.484 191.584 427.076 427.076 427.076 235.488 0 427.070-191.592 427.070-427.076 0-235.488-191.582-427.078-427.070-427.078zM827.718 547.804c-0.054 0.398-0.156 0.78-0.222 1.178-0.132 0.768-0.274 1.534-0.472 2.28-0.118 0.45-0.286 0.88-0.426 1.312-0.214 0.666-0.434 1.33-0.696 1.978-0.188 0.448-0.402 0.896-0.61 1.328-0.286 0.618-0.582 1.214-0.922 1.794-0.25 0.434-0.516 0.85-0.774 1.264-0.364 0.566-0.738 1.116-1.148 1.646-0.296 0.4-0.614 0.796-0.93 1.182-0.43 0.496-0.878 0.996-1.356 1.46-0.356 0.366-0.708 0.73-1.078 1.064-0.5 0.448-1.016 0.882-1.54 1.294-0.406 0.316-0.804 0.632-1.23 0.932-0.156 0.1-0.296 0.232-0.446 0.334l-288.808 192.538c-9.126 6.082-21.002 6.082-30.126 0l-288.806-192.538c-0.15-0.102-0.292-0.234-0.448-0.334-0.426-0.298-0.824-0.616-1.222-0.932-0.532-0.412-1.048-0.848-1.536-1.294-0.384-0.334-0.732-0.7-1.088-1.064-0.474-0.464-0.92-0.964-1.346-1.46-0.324-0.384-0.64-0.782-0.938-1.182-0.398-0.532-0.784-1.080-1.14-1.646-0.274-0.414-0.53-0.83-0.78-1.264-0.334-0.58-0.632-1.178-0.924-1.794-0.208-0.432-0.422-0.88-0.606-1.328-0.266-0.648-0.482-1.312-0.7-1.978-0.142-0.432-0.298-0.864-0.422-1.312-0.202-0.746-0.334-1.512-0.476-2.28-0.064-0.398-0.166-0.78-0.214-1.178-0.16-1.164-0.25-2.344-0.25-3.542v-192.538c0-1.196 0.090-2.376 0.25-3.558 0.050-0.382 0.15-0.78 0.214-1.16 0.142-0.768 0.274-1.532 0.476-2.28 0.126-0.45 0.282-0.88 0.422-1.312 0.218-0.664 0.434-1.33 0.7-1.994 0.184-0.452 0.398-0.882 0.606-1.314 0.292-0.614 0.59-1.21 0.924-1.81 0.25-0.418 0.504-0.83 0.78-1.246 0.358-0.566 0.742-1.116 1.14-1.648 0.298-0.414 0.614-0.794 0.938-1.178 0.426-0.498 0.874-0.998 1.346-1.464 0.358-0.364 0.706-0.728 1.088-1.058 0.488-0.454 1.004-0.884 1.536-1.3 0.398-0.316 0.796-0.63 1.222-0.93 0.156-0.1 0.298-0.232 0.448-0.332l288.806-192.54c4.562-3.040 9.816-4.57 15.068-4.57 5.242 0 10.496 1.532 15.058 4.57l288.808 192.54c0.148 0.1 0.29 0.232 0.446 0.332 0.426 0.298 0.824 0.614 1.23 0.93 0.524 0.416 1.040 0.848 1.54 1.3 0.372 0.33 0.722 0.696 1.078 1.058 0.476 0.466 0.926 0.966 1.356 1.464 0.316 0.382 0.632 0.764 0.93 1.178 0.41 0.534 0.786 1.082 1.148 1.648 0.258 0.416 0.524 0.828 0.774 1.246 0.34 0.6 0.636 1.198 0.922 1.81 0.208 0.432 0.422 0.864 0.61 1.314 0.262 0.664 0.48 1.33 0.696 1.994 0.14 0.432 0.308 0.864 0.426 1.312 0.2 0.748 0.34 1.512 0.472 2.28 0.066 0.38 0.168 0.778 0.222 1.16 0.148 1.182 0.242 2.364 0.242 3.558v192.538c0 1.198-0.092 2.378-0.242 3.542zM539.156 686.058l212.754-141.826-95.032-63.576-117.722 78.75v126.652zM484.846 686.058v-126.652l-117.718-78.75-95.040 63.576 212.758 141.826zM250.35 493.436l67.936-45.44-67.936-45.444v90.884zM484.846 209.932l-212.758 141.83 95.040 63.556 117.718-78.734v-126.652zM512.004 383.756l-96.044 64.24 96.044 64.24 96.036-64.24-96.036-64.24zM539.156 209.932v126.652l117.722 78.734 95.032-63.556-212.754-141.83zM773.652 402.552l-67.93 45.444 67.93 45.44v-90.884z" />
<glyph unicode="&#xe924;" glyph-name="codepen-full" d="M318.29 447.996l-67.94-45.442v90.882l67.94-45.44zM484.846 559.406v126.65l-212.756-141.824 95.038-63.578 117.718 78.752zM751.914 544.232l-212.76 141.824v-126.65l117.726-78.752 95.034 63.578zM272.090 351.762l212.754-141.826v126.652l-117.714 78.732-95.040-63.558zM539.154 336.588v-126.652l212.76 141.826-95.034 63.558-117.726-78.732zM511.998 512.236l-96.040-64.238 96.040-64.242 96.044 64.242-96.044 64.238zM1023 447.996c0-282.224-228.78-510.994-511.002-510.994-282.208 0-510.998 228.77-510.998 510.994 0 282.222 228.79 511.002 510.998 511.002 282.222 0 511.002-228.78 511.002-511.002zM827.956 544.266c0 1.198-0.086 2.376-0.244 3.542-0.056 0.396-0.148 0.78-0.214 1.18-0.14 0.764-0.274 1.53-0.474 2.278-0.116 0.45-0.28 0.88-0.424 1.312-0.214 0.666-0.43 1.328-0.696 1.978-0.184 0.448-0.41 0.896-0.608 1.328-0.292 0.616-0.592 1.214-0.922 1.794-0.244 0.434-0.518 0.848-0.776 1.264-0.366 0.564-0.738 1.114-1.144 1.646-0.3 0.398-0.608 0.796-0.94 1.178-0.424 0.498-0.874 0.998-1.346 1.464-0.36 0.366-0.708 0.73-1.080 1.062-0.492 0.45-1.016 0.88-1.546 1.298-0.4 0.314-0.798 0.63-1.222 0.93-0.156 0.1-0.298 0.232-0.458 0.332l-288.796 192.538c-9.126 6.084-21.002 6.084-30.126 0l-288.804-192.538c-0.152-0.1-0.292-0.232-0.442-0.332-0.424-0.298-0.83-0.616-1.23-0.93-0.532-0.418-1.048-0.85-1.54-1.298-0.374-0.332-0.728-0.698-1.088-1.062-0.472-0.466-0.912-0.966-1.354-1.464-0.316-0.38-0.63-0.78-0.93-1.178-0.398-0.534-0.782-1.082-1.14-1.646-0.276-0.416-0.532-0.83-0.78-1.264-0.332-0.58-0.63-1.18-0.924-1.794-0.208-0.432-0.416-0.88-0.606-1.328-0.266-0.65-0.49-1.312-0.7-1.978-0.148-0.432-0.296-0.864-0.422-1.312-0.202-0.748-0.332-1.514-0.476-2.278-0.064-0.4-0.164-0.784-0.214-1.18-0.158-1.164-0.25-2.344-0.25-3.542v-192.538c0-1.198 0.092-2.376 0.25-3.556 0.050-0.382 0.15-0.782 0.214-1.164 0.144-0.766 0.276-1.53 0.476-2.278 0.126-0.45 0.274-0.88 0.422-1.312 0.208-0.664 0.434-1.33 0.7-1.998 0.19-0.448 0.398-0.876 0.606-1.31 0.292-0.616 0.592-1.212 0.924-1.81 0.248-0.416 0.504-0.832 0.78-1.248 0.36-0.564 0.742-1.114 1.14-1.644 0.298-0.416 0.614-0.798 0.93-1.18 0.442-0.498 0.88-0.998 1.354-1.462 0.36-0.368 0.714-0.73 1.088-1.064 0.49-0.45 1.008-0.878 1.54-1.294 0.4-0.316 0.806-0.632 1.23-0.932 0.15-0.1 0.29-0.232 0.442-0.332l288.804-192.54c4.562-3.042 9.816-4.568 15.060-4.568 5.26 0 10.504 1.528 15.066 4.568l288.796 192.54c0.158 0.1 0.3 0.232 0.458 0.332 0.424 0.298 0.822 0.616 1.222 0.932 0.532 0.416 1.054 0.846 1.546 1.294 0.372 0.334 0.72 0.698 1.080 1.064 0.472 0.464 0.922 0.964 1.346 1.462 0.332 0.38 0.638 0.764 0.94 1.18 0.406 0.532 0.78 1.080 1.144 1.644 0.258 0.416 0.532 0.832 0.776 1.248 0.33 0.598 0.63 1.196 0.922 1.81 0.198 0.434 0.424 0.864 0.608 1.31 0.266 0.668 0.48 1.334 0.696 1.998 0.144 0.432 0.308 0.864 0.424 1.312 0.202 0.748 0.334 1.512 0.474 2.278 0.066 0.382 0.158 0.782 0.214 1.164 0.158 1.18 0.244 2.36 0.244 3.556v192.538zM773.652 402.554v90.882l-67.93-45.44 67.93-45.442z" />
<glyph unicode="&#xe925;" glyph-name="compass" d="M677.094 553.057c13.414 37.346-22.69 73.454-60.036 60.037l-177.929-63.92c-13.187-4.737-23.567-15.116-28.303-28.304l-63.919-177.924c-13.416-37.346 22.691-73.455 60.038-60.041l177.926 63.919c13.188 4.74 23.565 15.117 28.305 28.305l63.919 177.927zM485.013 474.987l84.233 30.259-30.259-84.233-84.233-30.259 30.259 84.233zM512 874.667c-235.642 0-426.667-191.025-426.667-426.667 0-235.639 191.025-426.667 426.667-426.667 235.639 0 426.667 191.027 426.667 426.667 0 235.642-191.027 426.667-426.667 426.667zM170.667 448c0 188.513 152.82 341.333 341.333 341.333s341.333-152.82 341.333-341.333c0-188.514-152.819-341.333-341.333-341.333s-341.333 152.819-341.333 341.333z" />
<glyph unicode="&#xe926;" glyph-name="components" d="M466.935 856c24.887 24.889 65.242 24.889 90.129 0l121.886-121.884c24.887-24.889 24.887-65.242 0-90.131l-121.886-121.882c-24.887-24.892-65.242-24.892-90.129 0l-121.885 121.882c-24.889 24.889-24.889 65.242 0 90.131l121.885 121.884zM512 780.386l-91.335-91.335 91.335-91.336 91.337 91.335-91.337 91.336zM225.883 614.95c24.89 24.889 65.243 24.889 90.132 0l121.882-121.885c24.892-24.887 24.892-65.242 0-90.129l-121.882-121.886c-24.889-24.887-65.242-24.887-90.132 0l-121.883 121.886c-24.889 24.887-24.889 65.242 0 90.129l121.883 121.885zM270.949 539.336l-91.335-91.336 91.335-91.337 91.336 91.337-91.336 91.336zM707.985 614.949c24.887 24.889 65.242 24.889 90.133 0l121.882-121.885c24.887-24.887 24.887-65.242 0-90.129l-121.882-121.886c-24.892-24.887-65.246-24.887-90.133 0l-121.882 121.886c-24.892 24.887-24.892 65.242 0 90.129l121.882 121.885zM753.050 539.336l-91.332-91.336 91.332-91.337 91.337 91.337-91.337 91.336zM466.935 373.897c24.887 24.892 65.242 24.892 90.129 0l121.886-121.882c24.887-24.887 24.887-65.242 0-90.133l-121.886-121.882c-24.887-24.887-65.242-24.887-90.129 0l-121.885 121.882c-24.889 24.892-24.889 65.246 0 90.133l121.885 121.882zM512 298.283l-91.336-91.332 91.336-91.337 91.337 91.337-91.337 91.332z" />
<glyph unicode="&#xe927;" glyph-name="computer" d="M332.288 874.667h359.424c34.923 0 63.748 0.001 87.215-1.948 24.375-2.025 46.771-6.371 67.746-17.267 31.172-16.192 56.589-41.608 72.781-72.779 10.893-20.977 15.241-43.37 17.263-67.747 1.95-23.467 1.95-52.291 1.95-87.215v-146.090c0-34.923 0-63.748-1.95-87.215-2.022-24.375-6.37-46.771-17.263-67.746-16.192-31.172-41.609-56.589-72.781-72.781-20.975-10.893-43.371-15.241-67.746-17.267-23.467-1.946-52.292-1.946-87.215-1.946h-137.045v-85.333h170.667c23.565 0 42.667-19.102 42.667-42.667s-19.102-42.667-42.667-42.667h-426.667c-23.564 0-42.667 19.102-42.667 42.667s19.103 42.667 42.667 42.667h170.667v85.333h-137.046c-34.924 0-63.746 0-87.213 1.946-24.378 2.027-46.771 6.374-67.747 17.267-31.171 16.192-56.587 41.609-72.779 72.781-10.897 20.975-15.243 43.371-17.267 67.746-1.949 23.467-1.948 52.292-1.948 87.215v146.091c0 34.924-0.001 63.747 1.948 87.213 2.025 24.378 6.371 46.771 17.267 67.747 16.192 31.171 41.608 56.587 72.779 72.779 20.977 10.897 43.37 15.243 67.747 17.267 23.467 1.949 52.29 1.948 87.213 1.948zM689.92 320c37.163 0 62.426 0.034 81.941 1.655 19.008 1.579 28.71 4.437 35.473 7.953 15.586 8.094 28.297 20.804 36.39 36.39 3.516 6.763 6.374 16.465 7.953 35.473 1.621 19.516 1.655 44.779 1.655 81.941v142.507c0 37.164-0.034 62.427-1.655 81.943-1.579 19.005-4.437 28.707-7.953 35.473-8.094 15.585-20.804 28.293-36.39 36.39-6.763 3.514-16.465 6.374-35.473 7.952-19.516 1.621-44.779 1.655-81.941 1.655h-355.84c-37.164 0-62.427-0.034-81.943-1.655-19.005-1.578-28.707-4.438-35.473-7.952-15.585-8.096-28.293-20.804-36.39-36.39-3.514-6.766-6.374-16.468-7.952-35.473-1.621-19.516-1.655-44.78-1.655-81.943v-142.507c0-37.163 0.034-62.426 1.655-81.941 1.578-19.008 4.438-28.71 7.952-35.473 8.096-15.586 20.804-28.297 36.39-36.39 6.766-3.516 16.468-6.374 35.473-7.953 19.516-1.621 44.78-1.655 81.943-1.655h355.84z" />
<glyph unicode="&#xe928;" glyph-name="controller" d="M341.333 597.333c0 23.564-19.103 42.667-42.667 42.667s-42.667-19.103-42.667-42.667v-21.333h-21.333c-23.564 0-42.667-19.102-42.667-42.667s19.102-42.667 42.667-42.667h21.333v-21.333c0-23.565 19.102-42.667 42.667-42.667s42.667 19.102 42.667 42.667v21.333h21.333c23.564 0 42.667 19.102 42.667 42.667s-19.103 42.667-42.667 42.667h-21.333v21.333zM768 618.667c0-23.564-19.102-42.667-42.667-42.667s-42.667 19.102-42.667 42.667c0 23.564 19.102 42.667 42.667 42.667s42.667-19.103 42.667-42.667zM725.333 405.333c23.565 0 42.667 19.102 42.667 42.667s-19.102 42.667-42.667 42.667c-23.565 0-42.667-19.102-42.667-42.667s19.102-42.667 42.667-42.667zM682.667 533.333c0-23.565-19.102-42.667-42.667-42.667s-42.667 19.102-42.667 42.667c0 23.564 19.102 42.667 42.667 42.667s42.667-19.102 42.667-42.667zM810.667 490.667c23.565 0 42.667 19.102 42.667 42.667s-19.102 42.667-42.667 42.667c-23.565 0-42.667-19.102-42.667-42.667s19.102-42.667 42.667-42.667zM512 832c-77.316 0-172.272-11.015-246.706-21.73-97.057-13.972-176.079-85.66-196.603-182.571-11.485-54.231-22.741-118.353-25.32-172.036-1.849-38.49-5.91-92.275-10.212-143.868-4.476-53.679 13.411-108.975 46.235-148.301 33.495-40.132 86.543-67.183 147.749-50.057 39.189 10.97 70.504 38.511 93.732 65.651 23.744 27.738 42.642 59.315 56.1 85.005 10.362 19.78 28.756 30.925 46.082 30.925h177.886c17.323 0 35.721-11.145 46.080-30.925 13.461-25.69 32.358-57.267 56.102-85.005 23.228-27.14 54.541-54.682 93.73-65.651 61.205-17.126 114.253 9.924 147.75 50.057 32.823 39.326 50.709 94.622 46.234 148.301-4.301 51.593-8.363 105.378-10.21 143.868-2.581 53.683-13.837 117.805-25.323 172.036-20.523 96.911-99.546 168.599-196.604 182.571-74.432 10.715-169.387 21.73-246.703 21.73zM277.452 725.807c73.585 10.592 163.584 20.859 234.548 20.859s160.96-10.267 234.547-20.86c62.626-9.015 112.38-54.869 125.278-115.788 11.234-53.034 21.325-111.771 23.569-158.452 1.924-40.090 6.097-95.142 10.406-146.863 2.624-31.45-8.341-64.525-26.709-86.532-17.698-21.205-38.178-28.45-59.238-22.558-15.599 4.369-33.391 17.335-51.9 38.963-17.997 21.022-33.472 46.464-45.342 69.116-22.694 43.328-67.755 76.659-121.668 76.659h-177.886c-53.914 0-98.973-33.331-121.67-76.659-11.868-22.652-27.345-48.094-45.34-69.116-18.511-21.628-36.302-34.594-51.902-38.963-21.058-5.892-41.541 1.353-59.238 22.558-18.368 22.007-29.332 55.083-26.71 86.532 4.312 51.721 8.482 106.773 10.408 146.863 2.243 46.682 12.335 105.419 23.567 158.452 12.902 60.919 62.653 106.772 125.28 115.788z" />
<glyph unicode="&#xe929;" glyph-name="credit-card" d="M213.333 277.333c0 23.565 19.103 42.667 42.667 42.667h85.333c23.564 0 42.667-19.102 42.667-42.667s-19.102-42.667-42.667-42.667h-85.333c-23.564 0-42.667 19.102-42.667 42.667zM469.333 320c-23.565 0-42.667-19.102-42.667-42.667s19.102-42.667 42.667-42.667h42.667c23.565 0 42.667 19.102 42.667 42.667s-19.102 42.667-42.667 42.667h-42.667zM289.621 832h444.757c34.923 0 63.748 0.001 87.215-1.948 24.375-2.025 46.771-6.371 67.746-17.267 31.172-16.192 56.589-41.608 72.781-72.779 10.893-20.977 15.241-43.37 17.267-67.747 1.946-23.467 1.946-52.291 1.946-87.215v-274.090c0-34.923 0-63.748-1.946-87.215-2.027-24.375-6.374-46.771-17.267-67.746-16.192-31.172-41.609-56.589-72.781-72.781-20.975-10.893-43.371-15.241-67.746-17.267-23.467-1.946-52.292-1.946-87.215-1.946h-444.756c-34.924 0-63.748 0-87.215 1.946-24.378 2.027-46.771 6.374-67.747 17.267-31.171 16.192-56.587 41.609-72.779 72.781-10.897 20.975-15.243 43.371-17.267 67.746-1.949 23.467-1.948 52.292-1.948 87.215v274.092c-0.001 34.924-0.001 63.746 1.948 87.213 2.025 24.378 6.371 46.771 17.267 67.747 16.192 31.171 41.608 56.587 72.779 72.779 20.977 10.897 43.37 15.243 67.747 17.267 23.467 1.949 52.29 1.948 87.214 1.948zM173.997 737.059c-15.585-8.096-28.293-20.804-36.39-36.39-3.514-6.766-6.374-16.468-7.952-35.473-1.044-12.575-1.43-27.537-1.572-46.53h767.836c-0.145 18.993-0.529 33.955-1.574 46.53-1.579 19.005-4.437 28.707-7.953 35.473-8.094 15.585-20.804 28.293-36.386 36.39-6.767 3.514-16.469 6.374-35.473 7.952-19.52 1.62-44.783 1.655-81.946 1.655h-441.173c-37.164 0-62.427-0.035-81.943-1.655-19.005-1.578-28.707-4.438-35.473-7.952zM128 533.333v-220.587c0-37.163 0.035-62.426 1.655-81.946 1.578-19.004 4.438-28.706 7.952-35.473 8.096-15.582 20.804-28.292 36.39-36.386 6.766-3.516 16.468-6.374 35.473-7.953 19.516-1.621 44.78-1.655 81.943-1.655h441.173c37.163 0 62.426 0.034 81.946 1.655 19.004 1.579 28.706 4.437 35.473 7.953 15.582 8.094 28.292 20.804 36.386 36.386 3.516 6.767 6.374 16.469 7.953 35.473 1.621 19.52 1.655 44.783 1.655 81.946v220.587h-768z" />
<glyph unicode="&#xe92a;" glyph-name="css3" d="M966.222 958.998l-85.18-922.628-369.048-99.368-369.054 99.368-85.162 922.628h908.444zM794.58 771.396h-570.848l13.77-111.416h289.56l-279.54-116.422 8.76-108.906 392.256-1.262-8.762-145.212-129.166-36.248-123.728 31.234-7.508 90.14h-115.578l15.022-174.014 233.266-68.858 231.598 67.604 30.042 345.522h-262.706l0.646 0.28 271.66 116.142 11.256 111.416z" />
<glyph unicode="&#xe92b;" glyph-name="css3-text" d="M408.128 866.636v-44.036h-112.604v136.398h112.604v-48.26h-64.344v-44.102h64.344zM523.882 910.738h44.984v48.26h-112.616c0 0 0-24.224 0-48.26 15.066-15.066 22.922-22.278 44.712-44.068-12.738 0-44.712-0.044-44.712-0.042v-44.028h112.616v44.036l-44.984 44.102zM683.492 910.738h44.98v48.26h-112.612c0 0 0-24.224 0-48.26 15.062-15.066 22.922-22.278 44.71-44.068-12.73 0-44.71-0.044-44.71-0.042v-44.028h112.614v44.036l-44.982 44.102zM876.79 757.776l-68.406-740.972-296.386-79.8-296.392 79.8-68.396 740.972h729.58zM738.954 607.112h-458.464l11.058-89.478h232.55l-224.502-93.502 7.036-87.46 315.024-1.016-7.042-116.622-103.728-29.108-99.368 25.084-6.030 72.39h-92.822l12.064-139.752 187.336-55.298 186 54.292 24.134 277.488h-210.99l0.52 0.224 218.172 93.278 9.052 89.48z" />
<glyph unicode="&#xe92c;" glyph-name="discord" d="M793.173 708.695c-52.48 24.32-108.373 42.24-167.253 52.48-7.253-12.8-15.787-30.293-21.333-44.373-62.293 9.387-124.16 9.387-185.173 0-5.973 14.080-14.507 31.573-21.76 44.373-58.88-10.24-114.773-28.16-167.253-52.48-105.813-159.573-134.4-315.308-120.32-468.481 70.4-52.48 138.24-84.053 205.227-104.96 16.64 22.613 31.147 46.933 43.947 72.107-24.32 8.96-47.36 20.48-69.12 33.707 5.973 4.267 11.52 8.96 17.067 13.227 133.546-62.293 278.186-62.293 410.026 0 5.547-4.693 11.093-8.96 17.067-13.227-21.76-13.227-45.227-24.32-69.12-33.707 12.8-25.173 27.307-49.493 43.947-72.107 66.987 20.907 135.253 52.48 205.227 104.96 16.64 177.92-28.587 331.948-120.32 468.481h-0.853zM377.174 334.080c-40.107 0-72.96 37.12-72.96 82.773s32 82.773 72.96 82.773c40.96 0 73.386-37.12 72.96-82.773 0-45.227-32-82.773-72.96-82.773zM646.4 334.080c-40.107 0-72.96 37.12-72.96 82.773s32 82.773 72.96 82.773c40.96 0 73.387-37.12 72.96-82.773 0-45.227-32-82.773-72.96-82.773z" />
<glyph unicode="&#xe92d;" glyph-name="doc-paper" d="M298.667 832c-47.128 0-85.333-38.205-85.333-85.333v-520.533c0-36.548 0.033-61.393 1.602-80.597 1.528-18.705 4.299-28.271 7.699-34.944 8.181-16.055 21.236-29.111 37.292-37.291 6.673-3.401 16.239-6.17 34.945-7.697 19.204-1.57 44.048-1.604 80.596-1.604h273.067c36.548 0 61.393 0.034 80.597 1.604 18.705 1.527 28.271 4.297 34.944 7.697 16.055 8.179 29.111 21.235 37.291 37.291 3.401 6.673 6.17 16.239 7.697 34.944 1.57 19.204 1.604 44.049 1.604 80.597v179.2c0 94.255-76.412 170.667-170.667 170.667h-32c-76.582 0-138.667 62.083-138.667 138.667 0 64.801-52.532 117.333-117.333 117.333h-53.333zM426.667 917.333c259.204 0 469.333-210.128 469.333-469.333v-223.629c0-34.347 0-62.69-1.886-85.781-1.958-23.983-6.165-46.029-16.717-66.739-16.363-32.111-42.47-58.219-74.581-74.581-20.71-10.551-42.756-14.758-66.739-16.717-23.091-1.886-51.435-1.886-85.781-1.886h-276.592c-34.345 0-62.691 0-85.782 1.886-23.983 1.958-46.029 6.165-66.736 16.717-32.113 16.363-58.222 42.47-74.584 74.581-10.551 20.71-14.756 42.756-16.716 66.739-1.886 23.091-1.886 51.435-1.885 85.781v522.295c0 94.257 76.41 170.667 170.667 170.667h128zM765.756 628.368c-49.523 92.91-136.115 163.067-240.034 190.735 18.377-30.5 28.945-66.233 28.945-104.436 0-29.455 23.876-53.333 53.333-53.333h32c45.705 0 88.614-11.978 125.756-32.966z" />
<glyph unicode="&#xe92e;" glyph-name="download" d="M512 832c23.565 0 42.667-19.103 42.667-42.667v-366.327l97.83 97.83c16.661 16.663 43.678 16.663 60.339 0 16.661-16.661 16.661-43.678 0-60.339l-170.667-170.667c-8-8-18.854-12.497-30.17-12.497s-22.17 4.497-30.17 12.497l-170.667 170.667c-16.662 16.661-16.662 43.678 0 60.339 16.662 16.663 43.677 16.663 60.34 0l97.83-97.83v366.327c0 23.564 19.102 42.667 42.667 42.667zM170.667 362.667c23.564 0 42.667-19.102 42.667-42.667 0-41.694 0.207-56.311 2.459-67.639 10.1-50.773 49.792-90.466 100.569-100.57 11.325-2.253 25.942-2.458 67.638-2.458h256c41.694 0 56.311 0.205 67.639 2.458 50.773 10.103 90.466 49.796 100.57 100.57 2.253 11.328 2.458 25.946 2.458 67.639 0 23.565 19.102 42.667 42.667 42.667s42.667-19.102 42.667-42.667c0-1.673 0-3.315 0-4.937 0.009-34.889 0.017-58.662-4.1-79.351-16.832-84.625-82.987-150.78-167.612-167.612-20.685-4.117-44.463-4.109-79.347-4.1-1.621 0-3.268 0-4.941 0h-256c-1.671 0-3.318 0-4.94 0-34.884-0.009-58.662-0.017-79.346 4.1-84.628 16.832-150.782 82.987-167.615 167.612-4.114 20.689-4.109 44.463-4.1 79.347 0 1.626 0.001 3.268 0.001 4.941 0 23.565 19.102 42.667 42.667 42.667z" />
<glyph unicode="&#xe92f;" glyph-name="edit" d="M562.086 806.537c29.538 16.73 64.516 21.039 97.233 11.982 14.507-4.016 26.901-11.013 38.583-18.915 11.098-7.505 23.825-17.441 38.579-28.957l2.15-1.68c14.754-11.516 27.486-21.452 37.461-30.396 10.5-9.416 20.297-19.742 27.716-32.84 16.73-29.539 21.039-64.515 11.981-97.231-4.015-14.506-11.012-26.902-18.914-38.586-7.505-11.097-17.442-23.827-28.962-38.58l-303.049-388.237c-0.768-0.981-1.523-1.95-2.27-2.91-14.225-18.24-24.981-32.030-38.298-43.358-11.27-9.587-23.739-17.668-37.094-24.038-15.777-7.526-32.759-11.712-55.223-17.25-1.178-0.29-2.371-0.585-3.579-0.883l-90.659-22.379c-6.278-1.553-13.445-3.328-19.767-4.297-7.048-1.084-17.961-2.065-30.014 1.792-14.49 4.642-26.853 14.293-34.871 27.221-6.671 10.756-8.368 21.581-9.028 28.681-0.592 6.37-0.613 13.751-0.631 20.22-0.001 0.401-0.002 0.798-0.003 1.19l-0.293 92.19c-0.004 1.246-0.009 2.475-0.013 3.686-0.083 23.134-0.146 40.627 3.326 57.758 2.939 14.502 7.751 28.561 14.315 41.818 7.755 15.667 18.523 29.449 32.766 47.68 0.747 0.956 1.503 1.924 2.269 2.906l303.051 388.239c11.516 14.754 21.453 27.484 30.396 37.459 9.417 10.502 19.742 20.299 32.841 27.716zM636.548 736.279c-10.906 3.019-22.562 1.583-32.41-3.994-1.673-0.947-4.847-3.169-11.354-10.429-6.767-7.546-14.916-17.946-27.507-34.077l134.532-105.014c12.595 16.131 20.702 26.56 26.381 34.954 5.466 8.077 6.848 11.696 7.36 13.548 3.021 10.906 1.583 22.564-3.994 32.41-0.947 1.672-3.17 4.847-10.428 11.356-7.548 6.766-17.946 14.913-34.078 27.505s-26.56 20.703-34.953 26.38c-8.077 5.463-11.699 6.847-13.551 7.36zM647.305 515.499l-134.532 105.014-249.706-319.896c-17.483-22.396-22.413-29.043-25.826-35.938-3.282-6.63-5.688-13.658-7.157-20.907-1.528-7.539-1.704-15.812-1.614-44.224l0.259-81.604 79.223 19.558c27.584 6.81 35.567 8.99 42.509 12.305 6.677 3.183 12.912 7.223 18.547 12.019 5.859 4.983 11.109 11.379 28.591 33.775l249.706 319.898zM512 64c0 23.565 19.102 42.667 42.667 42.667h298.667c23.565 0 42.667-19.102 42.667-42.667s-19.102-42.667-42.667-42.667h-298.667c-23.565 0-42.667 19.102-42.667 42.667z" />
<glyph unicode="&#xe930;" glyph-name="facebook" d="M853.333 445.867c-0.798 65.045-20.169 128.508-55.829 182.914s-86.123 97.489-145.446 124.176c-59.328 26.687-125.043 35.865-189.41 26.455s-124.703-37.018-173.905-79.571-85.22-98.28-103.812-160.617c-18.592-62.338-18.983-128.689-1.128-191.243s53.213-118.699 101.91-161.83c48.696-43.132 108.704-71.45 172.955-81.617v241.92h-85.333v99.413h85.333v75.52c-1.975 17.559-0.073 35.339 5.577 52.083s14.903 32.044 27.11 44.821c12.207 12.777 27.068 22.719 43.537 29.123s34.146 9.117 51.776 7.945c25.591-0.35 51.123-2.633 76.373-6.827v-85.333h-42.667c-7.356 0.928-14.831 0.191-21.862-2.157-7.036-2.348-13.453-6.246-18.778-11.407s-9.421-11.453-11.985-18.409c-2.569-6.959-3.537-14.404-2.842-21.786v-64.427h94.72l-15.36-99.413h-78.933v-238.933c80.636 12.753 154.031 53.986 206.869 116.22s81.621 141.342 81.131 222.98z" />
<glyph unicode="&#xe931;" glyph-name="filter" d="M422.696 789.338c1.322-0.003 2.646-0.005 3.971-0.005 1.327 0 2.65 0.002 3.972 0.005 15.731 0.026 31.194 0.052 44.966-3.639 36.813-9.863 65.562-38.615 75.426-75.425 3.691-13.775 3.665-29.237 3.639-44.969 0-1.322-0.004-2.646-0.004-3.971h341.333c23.565 0 42.667-19.102 42.667-42.667s-19.102-42.667-42.667-42.667h-341.333c0-1.325 0.004-2.649 0.004-3.971 0.026-15.732 0.051-31.195-3.639-44.971-9.865-36.809-38.613-65.562-75.426-75.422-13.773-3.691-29.235-3.665-44.966-3.639-1.323 0-2.645 0.004-3.972 0.004-1.325 0-2.649-0.004-3.971-0.004-15.732-0.026-31.195-0.051-44.969 3.639-36.81 9.86-65.562 38.613-75.424 75.422-3.691 13.777-3.665 29.239-3.639 44.972 0.002 1.322 0.004 2.646 0.004 3.971h-85.333c-23.564 0-42.667 19.103-42.667 42.667s19.103 42.667 42.667 42.667h85.333c0 1.325-0.002 2.649-0.004 3.971-0.026 15.732-0.052 31.195 3.639 44.969 9.863 36.81 38.615 65.562 75.424 75.425 13.775 3.691 29.237 3.665 44.97 3.639zM405.274 703.771c-4.551-0.207-5.622-0.541-5.462-0.498-7.362-1.973-13.112-7.723-15.085-15.085-0.036-0.15-0.316-1.46-0.499-5.462-0.218-4.78-0.228-11.087-0.228-21.393v-85.333c0-10.306 0.010-16.613 0.228-21.393 0.207-4.551 0.541-5.621 0.499-5.462 1.972-7.362 7.723-13.112 15.085-15.085-0.16 0.043 0.911-0.291 5.462-0.499 4.78-0.218 11.086-0.228 21.393-0.228s16.614 0.010 21.393 0.228c4.548 0.208 5.619 0.541 5.461 0.499 7.364 1.972 13.111 7.723 15.087 15.085-0.043-0.159 0.29 0.911 0.495 5.462 0.222 4.78 0.23 11.087 0.23 21.393v85.333c0 10.307-0.009 16.613-0.23 21.393-0.205 4.55-0.538 5.621-0.495 5.462zM405.274 703.771c4.78 0.218 11.086 0.228 21.393 0.228l-21.393-0.228zM426.667 704c10.308 0 16.614-0.010 21.393-0.228l-21.393 0.228zM448.060 703.771c4.002-0.182 5.312-0.463 5.461-0.498l-5.461 0.498zM453.538 703.269c0 0-0.009 0.001-0.017 0.004l0.017-0.004zM678.694 448.004c1.323-0.004 2.645-0.004 3.972-0.004s2.65 0 3.972 0.004c15.731 0.026 31.194 0.051 44.966-3.639 36.813-9.865 65.562-38.613 75.426-75.426 3.691-13.773 3.665-29.235 3.639-44.966 0-1.323-0.004-2.645-0.004-3.972h85.333c23.565 0 42.667-19.102 42.667-42.667s-19.102-42.667-42.667-42.667h-85.333c0-1.327 0.004-2.65 0.004-3.972 0.026-15.731 0.051-31.194-3.639-44.971-9.865-36.809-38.613-65.562-75.426-75.422-13.773-3.691-29.235-3.665-44.966-3.639-1.323 0-2.645 0.004-3.972 0.004s-2.65-0.004-3.972-0.004c-15.731-0.026-31.194-0.051-44.966 3.639-36.813 9.86-65.562 38.613-75.426 75.422-3.691 13.777-3.665 29.239-3.639 44.971 0 1.323 0.004 2.645 0.004 3.972h-341.333c-23.564 0-42.667 19.102-42.667 42.667s19.103 42.667 42.667 42.667h341.333c0 1.323-0.004 2.65-0.004 3.972-0.026 15.731-0.051 31.194 3.639 44.966 9.865 36.813 38.613 65.562 75.426 75.426 13.773 3.691 29.235 3.665 44.966 3.639zM661.274 362.436c-4.548-0.205-5.619-0.538-5.461-0.495-7.364-1.975-13.111-7.727-15.087-15.087 0.043 0.158-0.29-0.913-0.495-5.461-0.222-4.779-0.23-11.089-0.23-21.393v-85.333c0-10.308 0.009-16.614 0.23-21.393 0.205-4.553 0.538-5.623 0.495-5.461 1.975-7.364 7.723-13.111 15.087-15.087-0.158 0.043 0.913-0.29 5.461-0.499 4.779-0.218 11.085-0.226 21.393-0.226s16.614 0.009 21.393 0.226c4.548 0.209 5.619 0.542 5.461 0.499 7.364 1.975 13.111 7.723 15.087 15.087-0.043-0.162 0.29 0.909 0.495 5.461 0.222 4.779 0.23 11.085 0.23 21.393v85.333c0 10.304-0.009 16.614-0.23 21.393-0.205 4.548-0.538 5.619-0.495 5.461-1.975 7.36-7.723 13.111-15.087 15.087 0.158-0.043-0.913 0.29-5.461 0.495-4.779 0.222-11.085 0.23-21.393 0.23s-16.614-0.009-21.393-0.23z" />
<glyph unicode="&#xe932;" glyph-name="folder" d="M85.333 704c0 70.692 57.308 128 128 128h159.823c45.306 0 88.753-18.015 120.765-50.075l77.811-77.925h153.28c117.978 0 213.555-95.757 213.333-213.734l-0.482-256c-0.222-117.662-95.667-212.932-213.333-212.932h-425.865c-117.821 0-213.333 95.514-213.333 213.333v469.333zM493.747 661.333l-60.207 60.296c-16.006 16.030-37.731 25.038-60.384 25.038h-159.823c-23.564 0-42.667-19.103-42.667-42.667v-128h202.49c22.653 0 44.377 9.007 60.384 25.038l60.207 60.296zM170.667 490.667v-256c0-70.694 57.308-128 128-128h425.865c70.601 0 127.868 57.161 128 127.761l0.482 256c0.132 70.785-57.216 128.239-128 128.239h-153.28l-77.811-77.925c-32.013-32.061-75.459-50.075-120.765-50.075h-202.49z" />
<glyph unicode="&#xe933;" glyph-name="folder-open" d="M85.333 704v-426.667c0-46.669 18.788-89.033 49.116-119.804 30.902-31.351 73.987-50.863 121.551-50.863h445.449c69.79 0 132.548 42.492 158.464 107.294l77.773 194.487c25.054 62.643-8.073 129.773-66.074 152.218-6.289 88.509-80.090 158.393-170.231 158.393h-170.645c-11.511 0-22.532 4.65-30.566 12.895l-47.211 48.468c-32.126 32.978-76.212 51.579-122.252 51.579h-117.373c-70.692 0-128-57.308-128-128zM784.337 568.471h-447.634c-55.462 0-104.614-35.718-121.743-88.471l-44.294-136.41v360.41c0 23.564 19.103 42.667 42.667 42.667h117.373c23.020 0 45.063-9.3 61.126-25.789v0l47.212-48.468c24.094-24.734 57.161-38.684 91.691-38.684h170.645c40.218 0 73.929-27.821 82.957-65.255zM214.628 202.671l81.494 250.978c5.709 17.583 22.093 29.487 40.581 29.487h492.635c22.182 0 37.355-22.404 29.116-43.004l-77.773-194.483c-12.958-32.401-44.339-53.649-79.232-53.649h-445.449c-15.025 0-29.117 3.861-41.372 10.671z" />
<glyph unicode="&#xe934;" glyph-name="github" d="M398.935 239.787c0-2.987-2.987-5.12-7.253-5.12s-7.68 0-7.68 5.12c0 5.12 3.413 5.12 7.253 5.12s7.68-2.133 7.68-5.12zM356.268 246.187c0-2.987 0-6.4 5.973-7.253 1.528-0.734 3.284-0.832 4.884-0.273s2.912 1.732 3.649 3.26c0 2.987 0 5.973-5.973 7.253s-7.68 0-8.533-2.987zM416.855 248.32c-3.84 0-6.4-3.413-5.973-6.827s3.84-4.693 8.107-3.84c4.267 0.853 6.4 3.84 5.973 6.827s-3.84 4.267-8.107 3.84zM507.733 789.332c-44.996 0.424-89.616-8.248-131.18-25.494s-79.215-42.712-110.694-74.868c-31.479-32.157-56.137-70.342-72.495-112.263s-24.078-86.714-22.696-131.694c-1.191-73.681 20.66-145.894 62.502-206.554s101.585-106.735 170.884-131.793c17.493-2.987 23.892 8.107 23.892 17.067s0 57.173 0 85.333c0 0-96.425-21.333-116.905 42.667 0 0-15.36 42.667-37.973 51.627 0 0-31.573 22.187 2.133 21.76 11.040-1.489 21.577-5.547 30.765-11.844s16.772-14.665 22.142-24.422c4.464-8.751 10.67-16.499 18.235-22.763 7.565-6.268 16.332-10.923 25.76-13.679s19.322-3.558 29.072-2.355c9.75 1.203 19.151 4.39 27.625 9.357 1.617 17.813 9.297 34.53 21.76 47.36-76.799 8.96-154.452 20.053-154.452 156.16-0.816 15.377 1.655 30.75 7.246 45.094s14.176 27.336 25.181 38.105c-10.383 31.233-9.172 65.161 3.413 95.573 29.013 9.387 95.145-37.973 95.145-37.973 56.499 15.935 116.305 15.935 172.8 0 0 0 66.133 47.36 95.147 37.973 12.86-30.353 14.071-64.381 3.413-95.573 11.396-10.62 20.433-23.513 26.534-37.844 6.097-14.332 9.122-29.781 8.879-45.355 0-136.533-81.067-147.2-157.867-156.16 7.718-8.657 13.594-18.799 17.263-29.803 3.665-11.004 5.052-22.639 4.070-34.197 0-47.787 0-106.667 0-118.187-0.026-2.88 0.64-5.726 1.946-8.294 1.31-2.569 3.213-4.787 5.559-6.46 2.342-1.677 5.060-2.761 7.91-3.162 2.854-0.405 5.764-0.111 8.478 0.849 69.175 24.841 128.794 70.784 170.441 131.341 41.651 60.557 63.219 132.672 61.666 206.153 0.401 45.436-8.273 90.495-25.515 132.535s-42.705 80.214-74.893 112.284c-32.188 32.070-70.46 57.391-112.563 74.476s-87.194 25.593-132.629 25.024zM304.641 302.507c0 0 0-4.693 0-7.253 0.476-0.478 1.041-0.858 1.663-1.114 0.623-0.26 1.289-0.393 1.964-0.393s1.341 0.132 1.964 0.393c0.622 0.256 1.187 0.636 1.663 1.114 0 0 0 4.693 0 7.68s-5.547 1.28-7.253-0.427zM289.708 314.027c0 0 0-4.267 2.987-5.547 0.36-0.448 0.815-0.806 1.332-1.054 0.517-0.243 1.082-0.375 1.655-0.375s1.138 0.132 1.655 0.375c0.517 0.247 0.972 0.606 1.332 1.054 0 0 0 4.267-2.987 5.547s-5.12 1.28-5.973 0zM332.375 263.68c0 0 0-5.973 0-8.96s7.253-3.413 8.96 0c1.707 3.413 0 5.973 0 8.96s-5.547 2.133-7.253 0h-1.707zM316.588 284.587c0 0 0-5.12 0-8.533s5.973-4.693 8.107-3.413c1.080 1.242 1.676 2.833 1.676 4.48s-0.595 3.238-1.676 4.48c-2.133 3.413-5.547 4.693-8.107 2.987z" />
<glyph unicode="&#xe935;" glyph-name="globe" d="M181.42 533.333c-7.020-27.273-10.753-55.868-10.753-85.333s3.734-58.061 10.754-85.333h164.4c-2.877 26.765-4.487 55.202-4.487 85.333s1.609 58.569 4.487 85.333h-164.4zM216.331 618.667h143.839c13.014 56.017 31.252 102.185 49.756 138.771 3.445 6.811 6.896 13.284 10.32 19.422-86.847-24.18-159.745-81.837-203.914-158.193zM512 763.528c-7.996-11.97-16.93-26.818-25.924-44.602-13.466-26.625-27.132-59.96-37.952-100.259h127.753c-10.82 40.299-24.486 73.634-37.952 100.259-8.994 17.784-17.929 32.632-25.924 44.602zM592.29 533.333h-160.58c-3.204-26.385-5.043-54.818-5.043-85.333s1.839-58.948 5.043-85.333h160.58c3.204 26.385 5.043 54.818 5.043 85.333s-1.839 58.948-5.043 85.333zM678.178 362.667c2.88 26.765 4.489 55.202 4.489 85.333s-1.609 58.569-4.489 85.333h164.403c7.019-27.273 10.752-55.868 10.752-85.333s-3.733-58.061-10.752-85.333h-164.403zM575.876 277.333h-127.753c10.82-40.299 24.486-73.634 37.952-100.258 8.994-17.783 17.929-32.631 25.924-44.604 7.996 11.972 16.93 26.82 25.924 44.604 13.466 26.624 27.132 59.959 37.952 100.258zM420.246 119.138c-3.424 6.14-6.875 12.612-10.32 19.426-18.503 36.582-36.742 82.752-49.756 138.769h-143.839c44.169-76.356 117.068-134.012 203.915-158.195zM603.755 119.142c3.426 6.135 6.874 12.608 10.321 19.422 18.5 36.582 36.74 82.752 49.754 138.769h143.838c-44.169-76.356-117.065-134.012-203.913-158.191zM807.667 618.667h-143.838c-13.013 56.017-31.253 102.185-49.754 138.771-3.447 6.811-6.895 13.284-10.321 19.422 86.848-24.18 159.744-81.837 203.913-158.193zM85.333 448c0 235.642 191.025 426.667 426.667 426.667 235.639 0 426.667-191.025 426.667-426.667 0-235.639-191.027-426.667-426.667-426.667-235.642 0-426.667 191.027-426.667 426.667z" />
<glyph unicode="&#xe936;" glyph-name="googledrive" d="M486.372 571.314l-329.366-567.004-156.006 285.322 324.988 559.442 160.384-277.76zM691.838 291.604l-319.876-0.932-165.344-286.362 648.418 0.13 167.964 288.096-331.162-0.932zM998.022 335.128l-326.094 555.608-321.176 0.954 316.344-556.562h330.926zM691.838 291.604l331.162 0.932h-331.706l0.544-0.932z" />
<glyph unicode="&#xe937;" glyph-name="grid-even" d="M229.474 874.667c0.521 0 1.042 0 1.566 0h94.153c16.88 0.001 32.070 0.002 44.702-1.047 13.532-1.124 27.901-3.668 41.942-10.962 19.48-10.12 35.365-26.005 45.485-45.487 7.296-14.041 9.839-28.41 10.965-41.942 1.045-12.631 1.045-27.821 1.045-44.701v-95.72c0-16.88 0-32.070-1.045-44.702-1.126-13.532-3.669-27.901-10.965-41.942-10.121-19.48-26.005-35.365-45.485-45.485-14.041-7.296-28.41-9.839-41.942-10.965-12.631-1.045-27.822-1.045-44.702-1.045h-95.72c-16.88 0-32.070 0-44.701 1.045-13.532 1.126-27.901 3.669-41.942 10.965-19.482 10.121-35.367 26.005-45.487 45.485-7.294 14.041-9.839 28.41-10.962 41.942-1.049 12.632-1.048 27.822-1.047 44.702v94.153c0 0.524 0 1.045 0 1.566-0.001 16.881-0.002 32.071 1.047 44.702 1.124 13.532 3.668 27.901 10.962 41.942 10.12 19.482 26.005 35.367 45.487 45.487 14.041 7.294 28.41 9.839 41.942 10.962 12.631 1.049 27.822 1.048 44.702 1.047zM182.508 787.073c-0.224-0.081-0.32-0.131-0.341-0.142-3.897-2.024-7.074-5.201-9.097-9.097-0.011-0.021-0.061-0.117-0.142-0.341-0.085-0.233-0.226-0.666-0.395-1.369-0.355-1.479-0.776-3.919-1.111-7.957-0.72-8.67-0.754-20.266-0.754-39.206v-92.587c0-18.94 0.035-30.536 0.754-39.206 0.335-4.038 0.756-6.479 1.111-7.957 0.169-0.703 0.31-1.135 0.395-1.369 0.081-0.224 0.131-0.32 0.142-0.341 2.024-3.896 5.201-7.073 9.097-9.097 0.021-0.011 0.117-0.061 0.341-0.142 0.233-0.085 0.666-0.226 1.369-0.395 1.479-0.354 3.919-0.775 7.957-1.111 8.67-0.72 20.266-0.754 39.206-0.754h92.587c18.94 0 30.536 0.034 39.206 0.754 4.038 0.335 6.479 0.756 7.957 1.111 0.703 0.169 1.135 0.31 1.369 0.395 0.224 0.081 0.32 0.131 0.341 0.142 3.896 2.024 7.073 5.201 9.097 9.097 0.011 0.021 0.061 0.117 0.142 0.341 0.085 0.234 0.226 0.666 0.395 1.369 0.354 1.479 0.775 3.919 1.111 7.957 0.72 8.671 0.754 20.266 0.754 39.206v92.587c0 18.94-0.034 30.536-0.754 39.206-0.335 4.039-0.756 6.479-1.111 7.957-0.169 0.704-0.31 1.136-0.395 1.369-0.081 0.224-0.131 0.32-0.142 0.341-2.024 3.897-5.201 7.074-9.097 9.097-0.021 0.011-0.117 0.061-0.341 0.142-0.234 0.085-0.666 0.226-1.369 0.395-1.479 0.355-3.919 0.776-7.957 1.111-8.671 0.72-20.266 0.754-39.206 0.754h-92.587c-18.94 0-30.536-0.035-39.206-0.754-4.039-0.335-6.479-0.756-7.957-1.111-0.704-0.169-1.136-0.31-1.369-0.395zM698.807 874.667h95.718c16.879 0.001 32.073 0.002 44.702-1.047 13.534-1.124 27.904-3.668 41.941-10.962 19.482-10.12 35.366-26.005 45.487-45.487 7.296-14.041 9.839-28.41 10.965-41.942 1.045-12.632 1.045-27.822 1.045-44.703v-95.717c0-16.881 0-32.072-1.045-44.704-1.126-13.532-3.669-27.901-10.965-41.942-10.121-19.48-26.005-35.365-45.487-45.485-14.037-7.296-28.407-9.839-41.941-10.965-12.629-1.045-27.819-1.045-44.702-1.045h-95.718c-16.879 0-32.073 0-44.702 1.045-13.534 1.126-27.904 3.669-41.941 10.965-19.482 10.121-35.366 26.005-45.487 45.485-7.296 14.041-9.839 28.41-10.965 41.942-1.045 12.631-1.045 27.822-1.045 44.702v95.72c0 16.88 0 32.070 1.045 44.701 1.126 13.532 3.669 27.901 10.965 41.942 10.121 19.482 26.005 35.367 45.487 45.487 14.037 7.294 28.407 9.839 41.941 10.962 12.629 1.049 27.823 1.048 44.702 1.047zM651.84 787.073c-0.222-0.081-0.32-0.131-0.341-0.142-3.895-2.024-7.074-5.201-9.097-9.097-0.013-0.021-0.060-0.117-0.141-0.341-0.085-0.233-0.226-0.666-0.397-1.369-0.354-1.479-0.777-3.919-1.109-7.957-0.721-8.67-0.755-20.266-0.755-39.206v-92.587c0-18.94 0.034-30.536 0.755-39.206 0.333-4.038 0.755-6.479 1.109-7.957 0.171-0.703 0.311-1.135 0.397-1.369 0.081-0.224 0.128-0.32 0.141-0.341 2.022-3.896 5.201-7.073 9.097-9.097 0.021-0.011 0.119-0.061 0.341-0.142 0.235-0.085 0.666-0.226 1.37-0.395 1.481-0.354 3.921-0.775 7.957-1.111 8.67-0.72 20.267-0.754 39.206-0.754h92.587c18.94 0 30.537 0.034 39.206 0.754 4.041 0.335 6.477 0.756 7.957 1.111 0.704 0.169 1.135 0.31 1.37 0.395 0.222 0.081 0.32 0.131 0.341 0.142 3.895 2.024 7.074 5.201 9.097 9.097 0.013 0.021 0.060 0.117 0.141 0.341 0.085 0.234 0.226 0.666 0.397 1.369 0.354 1.479 0.777 3.919 1.109 7.957 0.721 8.671 0.755 20.266 0.755 39.206v92.587c0 18.94-0.034 30.536-0.755 39.206-0.333 4.039-0.755 6.479-1.109 7.957-0.171 0.704-0.311 1.136-0.397 1.369-0.081 0.224-0.128 0.32-0.141 0.341-2.022 3.897-5.201 7.074-9.097 9.097-0.021 0.011-0.119 0.061-0.341 0.142-0.235 0.085-0.666 0.226-1.37 0.395-1.481 0.355-3.917 0.776-7.957 1.111-8.67 0.72-20.267 0.754-39.206 0.754h-92.587c-18.94 0-30.537-0.035-39.206-0.754-4.036-0.335-6.477-0.756-7.957-1.111-0.704-0.169-1.135-0.31-1.37-0.395zM229.473 405.333h95.72c16.88 0 32.070 0 44.702-1.045 13.532-1.126 27.901-3.669 41.942-10.965 19.48-10.121 35.365-26.005 45.485-45.487 7.296-14.037 9.839-28.407 10.965-41.941 1.045-12.629 1.045-27.823 1.045-44.702v-95.718c0-16.883 0-32.073-1.045-44.702-1.126-13.534-3.669-27.904-10.965-41.941-10.121-19.482-26.005-35.366-45.485-45.487-14.041-7.296-28.41-9.839-41.942-10.965-12.632-1.045-27.823-1.045-44.704-1.045h-95.717c-16.881 0-32.071 0-44.703 1.045-13.532 1.126-27.901 3.669-41.942 10.965-19.482 10.121-35.367 26.005-45.487 45.487-7.294 14.037-9.839 28.407-10.962 41.941-1.049 12.629-1.048 27.823-1.047 44.702v95.718c-0.001 16.879-0.002 32.073 1.047 44.702 1.124 13.534 3.668 27.904 10.962 41.941 10.12 19.482 26.005 35.366 45.487 45.487 14.041 7.296 28.41 9.839 41.942 10.965 12.631 1.045 27.821 1.045 44.701 1.045zM182.508 317.739c-0.224-0.081-0.32-0.128-0.341-0.141-3.897-2.022-7.074-5.201-9.097-9.097-0.011-0.021-0.061-0.119-0.142-0.341-0.085-0.235-0.226-0.666-0.395-1.37-0.355-1.481-0.776-3.921-1.111-7.957-0.72-8.67-0.754-20.267-0.754-39.206v-92.587c0-18.94 0.035-30.537 0.754-39.206 0.335-4.041 0.756-6.477 1.111-7.957 0.169-0.704 0.31-1.135 0.395-1.37 0.081-0.222 0.131-0.32 0.142-0.341 2.024-3.895 5.201-7.074 9.097-9.097 0.021-0.013 0.117-0.060 0.341-0.141 0.233-0.085 0.666-0.226 1.369-0.397 1.479-0.354 3.919-0.777 7.957-1.109 8.67-0.721 20.266-0.755 39.206-0.755h92.587c18.94 0 30.536 0.034 39.206 0.755 4.038 0.333 6.478 0.755 7.957 1.109 0.703 0.171 1.135 0.311 1.369 0.397 0.224 0.081 0.32 0.128 0.341 0.141 3.896 2.022 7.073 5.201 9.097 9.097 0.011 0.021 0.061 0.119 0.142 0.341 0.085 0.235 0.226 0.666 0.395 1.37 0.354 1.481 0.775 3.917 1.111 7.957 0.72 8.67 0.754 20.267 0.754 39.206v92.587c0 18.94-0.034 30.537-0.754 39.206-0.335 4.036-0.756 6.477-1.111 7.957-0.169 0.704-0.31 1.135-0.395 1.37-0.081 0.222-0.131 0.32-0.142 0.341-2.024 3.895-5.201 7.074-9.097 9.097-0.010 0.004-0.035 0.017-0.080 0.038-0.055 0.026-0.139 0.060-0.261 0.102-0.234 0.085-0.666 0.226-1.369 0.397-1.479 0.354-3.919 0.777-7.957 1.109-8.671 0.721-20.266 0.755-39.206 0.755h-92.587c-18.94 0-30.536-0.034-39.206-0.755-4.039-0.333-6.479-0.755-7.957-1.109-0.704-0.171-1.136-0.311-1.369-0.397zM698.807 405.333h95.718c16.883 0 32.073 0 44.702-1.045 13.534-1.126 27.904-3.669 41.941-10.965 19.482-10.121 35.366-26.005 45.487-45.487 7.296-14.037 9.839-28.407 10.965-41.941 1.045-12.629 1.045-27.823 1.045-44.702v-95.718c0-16.879 0-32.073-1.045-44.702-1.126-13.534-3.669-27.904-10.965-41.941-10.121-19.482-26.005-35.366-45.487-45.487-14.037-7.296-28.407-9.839-41.941-10.965-12.629-1.045-27.823-1.045-44.702-1.045h-95.718c-16.879 0-32.073 0-44.702 1.045-13.534 1.126-27.904 3.669-41.941 10.965-19.482 10.121-35.366 26.005-45.487 45.487-7.296 14.037-9.839 28.407-10.965 41.941-1.045 12.629-1.045 27.819-1.045 44.702v95.718c0 16.879 0 32.073 1.045 44.702 1.126 13.534 3.669 27.904 10.965 41.941 10.121 19.482 26.005 35.366 45.487 45.487 14.037 7.296 28.407 9.839 41.941 10.965 12.629 1.045 27.823 1.045 44.702 1.045zM651.84 317.739c-0.222-0.081-0.32-0.128-0.341-0.141-3.895-2.022-7.074-5.201-9.097-9.097-0.013-0.021-0.060-0.119-0.141-0.341-0.085-0.235-0.226-0.666-0.397-1.37-0.354-1.481-0.777-3.921-1.109-7.957-0.721-8.67-0.755-20.267-0.755-39.206v-92.587c0-18.94 0.034-30.537 0.755-39.206 0.333-4.041 0.755-6.477 1.109-7.957 0.171-0.704 0.311-1.135 0.397-1.37 0.081-0.222 0.128-0.32 0.141-0.341 2.022-3.895 5.201-7.074 9.097-9.097 0.021-0.013 0.119-0.060 0.341-0.141 0.235-0.085 0.666-0.226 1.37-0.397 1.481-0.354 3.921-0.777 7.957-1.109 8.67-0.721 20.267-0.755 39.206-0.755h92.587c18.94 0 30.537 0.034 39.206 0.755 4.041 0.333 6.477 0.755 7.957 1.109 0.704 0.171 1.135 0.311 1.37 0.397 0.222 0.081 0.32 0.128 0.341 0.141 3.895 2.022 7.074 5.201 9.097 9.097 0.013 0.021 0.060 0.119 0.141 0.341 0.085 0.235 0.226 0.666 0.397 1.37 0.354 1.481 0.777 3.917 1.109 7.957 0.721 8.67 0.755 20.267 0.755 39.206v92.587c0 18.94-0.034 30.537-0.755 39.206-0.333 4.036-0.755 6.477-1.109 7.957-0.171 0.704-0.311 1.135-0.397 1.37-0.030 0.081-0.051 0.145-0.073 0.196-0.038 0.085-0.060 0.132-0.068 0.145-2.022 3.895-5.201 7.074-9.097 9.097-0.021 0.013-0.119 0.060-0.341 0.141-0.235 0.085-0.666 0.226-1.37 0.397-1.481 0.354-3.917 0.777-7.957 1.109-8.67 0.721-20.267 0.755-39.206 0.755h-92.587c-18.94 0-30.537-0.034-39.206-0.755-4.036-0.333-6.477-0.755-7.957-1.109-0.704-0.171-1.135-0.311-1.37-0.397z" />
<glyph unicode="&#xe938;" glyph-name="grid-uneven" d="M229.474 874.667c0.521 0 1.042 0 1.566 0h94.153c16.88 0.001 32.070 0.002 44.702-1.047 13.532-1.124 27.901-3.668 41.942-10.962 19.48-10.12 35.365-26.005 45.485-45.487 7.296-14.041 9.839-28.41 10.965-41.942 1.045-12.631 1.045-27.821 1.045-44.701v-181.053c0-16.882 0-32.072-1.045-44.701-1.126-13.534-3.669-27.904-10.965-41.941-10.121-19.482-26.005-35.366-45.485-45.487-14.041-7.296-28.41-9.839-41.942-10.965-12.631-1.045-27.822-1.045-44.702-1.045h-95.72c-16.88 0-32.070 0-44.701 1.045-13.532 1.126-27.901 3.669-41.942 10.965-19.482 10.121-35.367 26.005-45.487 45.487-7.294 14.037-9.839 28.407-10.962 41.941-1.049 12.629-1.048 27.823-1.047 44.701v179.486c0 0.524 0 1.045 0 1.566-0.001 16.881-0.002 32.071 1.047 44.702 1.124 13.532 3.668 27.901 10.962 41.942 10.12 19.482 26.005 35.367 45.487 45.487 14.041 7.294 28.41 9.839 41.942 10.962 12.631 1.049 27.822 1.048 44.702 1.047zM182.508 787.073c-0.224-0.081-0.32-0.131-0.341-0.142-3.897-2.024-7.074-5.201-9.097-9.097-0.011-0.021-0.061-0.117-0.142-0.341-0.085-0.233-0.226-0.666-0.395-1.369-0.355-1.479-0.776-3.919-1.111-7.957-0.72-8.67-0.754-20.266-0.754-39.206v-177.92c0-18.94 0.035-30.537 0.754-39.206 0.335-4.041 0.756-6.477 1.111-7.957 0.169-0.704 0.31-1.135 0.395-1.37 0.081-0.222 0.131-0.32 0.142-0.341 2.024-3.895 5.201-7.074 9.097-9.097 0.021-0.013 0.117-0.060 0.341-0.141 0.233-0.085 0.666-0.226 1.369-0.397 1.479-0.354 3.919-0.777 7.957-1.109 8.67-0.721 20.266-0.755 39.206-0.755h92.587c18.94 0 30.536 0.034 39.206 0.755 4.038 0.333 6.479 0.755 7.957 1.109 0.703 0.171 1.135 0.311 1.369 0.397 0.224 0.081 0.32 0.128 0.341 0.141 3.896 2.022 7.073 5.201 9.097 9.097 0.011 0.021 0.061 0.119 0.142 0.341 0.085 0.235 0.226 0.666 0.395 1.37 0.354 1.481 0.775 3.917 1.111 7.957 0.72 8.67 0.754 20.267 0.754 39.206v177.92c0 18.94-0.034 30.536-0.754 39.206-0.335 4.039-0.756 6.479-1.111 7.957-0.169 0.704-0.31 1.136-0.395 1.369-0.081 0.224-0.131 0.32-0.142 0.341-2.024 3.897-5.201 7.074-9.097 9.097-0.021 0.011-0.117 0.061-0.341 0.142-0.234 0.085-0.666 0.226-1.369 0.395-1.479 0.355-3.919 0.776-7.957 1.111-8.671 0.72-20.266 0.754-39.206 0.754h-92.587c-18.94 0-30.536-0.035-39.206-0.754-4.039-0.335-6.479-0.756-7.957-1.111-0.704-0.169-1.136-0.31-1.369-0.395zM698.807 874.667h95.718c16.879 0.001 32.073 0.002 44.702-1.047 13.534-1.124 27.904-3.668 41.941-10.962 19.482-10.12 35.366-26.005 45.487-45.487 7.296-14.041 9.839-28.41 10.965-41.942 1.045-12.632 1.045-27.822 1.045-44.703v-10.383c0-16.881 0-32.072-1.045-44.704-1.126-13.532-3.669-27.901-10.965-41.942-10.121-19.482-26.005-35.367-45.487-45.487-14.037-7.293-28.407-9.838-41.941-10.962-12.629-1.049-27.823-1.048-44.702-1.047h-95.718c-16.879-0.001-32.073-0.002-44.702 1.047-13.534 1.124-27.904 3.668-41.941 10.962-19.482 10.12-35.366 26.005-45.487 45.487-7.296 14.041-9.839 28.41-10.965 41.942-1.045 12.631-1.045 27.822-1.045 44.702v10.387c0 16.88 0 32.070 1.045 44.701 1.126 13.532 3.669 27.901 10.965 41.942 10.121 19.482 26.005 35.367 45.487 45.487 14.037 7.294 28.407 9.839 41.941 10.962 12.629 1.049 27.823 1.048 44.702 1.047zM651.84 787.073c-0.222-0.081-0.32-0.131-0.341-0.142-3.895-2.024-7.074-5.201-9.097-9.097-0.013-0.021-0.060-0.117-0.141-0.341-0.085-0.233-0.226-0.666-0.397-1.369-0.354-1.479-0.777-3.919-1.109-7.957-0.721-8.67-0.755-20.266-0.755-39.206v-7.253c0-18.94 0.034-30.536 0.755-39.206 0.333-4.038 0.755-6.479 1.109-7.957 0.171-0.703 0.311-1.135 0.397-1.369 0.081-0.224 0.128-0.32 0.141-0.341 2.022-3.896 5.201-7.073 9.097-9.097 0.021-0.011 0.119-0.060 0.341-0.142 0.235-0.085 0.666-0.226 1.37-0.395 1.481-0.354 3.921-0.775 7.957-1.111 8.67-0.72 20.267-0.754 39.206-0.754h92.587c18.94 0 30.537 0.034 39.206 0.754 4.041 0.335 6.477 0.756 7.957 1.111 0.704 0.169 1.135 0.31 1.37 0.395 0.222 0.082 0.32 0.131 0.341 0.142 3.895 2.024 7.074 5.201 9.097 9.097 0.013 0.021 0.060 0.117 0.141 0.341 0.085 0.234 0.226 0.666 0.397 1.369 0.354 1.479 0.777 3.919 1.109 7.957 0.721 8.671 0.755 20.266 0.755 39.206v7.253c0 18.94-0.034 30.536-0.755 39.206-0.333 4.039-0.755 6.479-1.109 7.957-0.171 0.704-0.311 1.136-0.397 1.369-0.081 0.224-0.128 0.32-0.141 0.341-2.022 3.897-5.201 7.074-9.097 9.097-0.021 0.011-0.119 0.061-0.341 0.142-0.235 0.085-0.666 0.226-1.37 0.395-1.481 0.355-3.917 0.776-7.957 1.111-8.67 0.72-20.267 0.754-39.206 0.754h-92.587c-18.94 0-30.537-0.035-39.206-0.754-4.036-0.335-6.477-0.756-7.957-1.111-0.704-0.169-1.135-0.31-1.37-0.395zM698.807 490.667h95.718c16.879 0 32.073 0 44.702-1.045 13.534-1.126 27.904-3.669 41.941-10.965 19.482-10.121 35.366-26.005 45.487-45.487 7.296-14.037 9.839-28.407 10.965-41.941 1.045-12.629 1.045-27.823 1.045-44.702v-181.052c0-16.879 0-32.073-1.045-44.702-1.126-13.534-3.669-27.904-10.965-41.941-10.121-19.482-26.005-35.366-45.487-45.487-14.037-7.296-28.407-9.839-41.941-10.965-12.629-1.045-27.823-1.045-44.702-1.045h-95.718c-16.879 0-32.073 0-44.702 1.045-13.534 1.126-27.904 3.669-41.941 10.965-19.482 10.121-35.366 26.005-45.487 45.487-7.296 14.037-9.839 28.407-10.965 41.941-1.045 12.629-1.045 27.819-1.045 44.702v181.052c0 16.879 0 32.073 1.045 44.702 1.126 13.534 3.669 27.904 10.965 41.941 10.121 19.482 26.005 35.366 45.487 45.487 14.037 7.296 28.407 9.839 41.941 10.965 12.629 1.045 27.823 1.045 44.702 1.045zM651.84 403.072c-0.222-0.081-0.32-0.128-0.341-0.141-3.895-2.022-7.074-5.201-9.097-9.097-0.013-0.021-0.060-0.119-0.141-0.341-0.085-0.235-0.226-0.666-0.397-1.37-0.354-1.481-0.777-3.921-1.109-7.957-0.721-8.67-0.755-20.267-0.755-39.206v-177.92c0-18.94 0.034-30.537 0.755-39.206 0.333-4.041 0.755-6.477 1.109-7.957 0.171-0.704 0.311-1.135 0.397-1.37 0.081-0.222 0.128-0.32 0.141-0.341 2.022-3.895 5.201-7.074 9.097-9.097 0.021-0.013 0.119-0.060 0.341-0.141 0.235-0.085 0.666-0.226 1.37-0.397 1.481-0.354 3.921-0.777 7.957-1.109 8.67-0.721 20.267-0.755 39.206-0.755h92.587c18.94 0 30.537 0.034 39.206 0.755 4.041 0.333 6.477 0.755 7.957 1.109 0.704 0.171 1.135 0.311 1.37 0.397 0.222 0.081 0.32 0.128 0.341 0.141 3.895 2.022 7.074 5.201 9.097 9.097 0.013 0.021 0.060 0.119 0.141 0.341 0.085 0.235 0.226 0.666 0.397 1.37 0.354 1.481 0.777 3.917 1.109 7.957 0.721 8.67 0.755 20.267 0.755 39.206v177.92c0 18.94-0.034 30.537-0.755 39.206-0.333 4.036-0.755 6.477-1.109 7.957-0.171 0.704-0.311 1.135-0.397 1.37-0.081 0.222-0.128 0.32-0.141 0.341-2.022 3.895-5.201 7.074-9.097 9.097-0.021 0.013-0.119 0.060-0.341 0.141-0.235 0.085-0.666 0.226-1.37 0.397-1.481 0.354-3.917 0.777-7.957 1.109-8.67 0.721-20.267 0.755-39.206 0.755h-92.587c-18.94 0-30.537-0.034-39.206-0.755-4.036-0.333-6.477-0.755-7.957-1.109-0.704-0.171-1.135-0.311-1.37-0.397zM229.473 320h95.72c16.88 0 32.070 0 44.702-1.045 13.532-1.126 27.901-3.669 41.942-10.965 19.48-10.121 35.365-26.005 45.485-45.487 7.296-14.037 9.839-28.407 10.965-41.941 1.045-12.629 1.045-27.823 1.045-44.702v-10.385c0-16.883 0-32.073-1.045-44.702-1.126-13.534-3.669-27.904-10.965-41.941-10.121-19.482-26.005-35.366-45.485-45.487-14.041-7.296-28.41-9.839-41.942-10.965-12.632-1.045-27.823-1.045-44.704-1.045h-95.717c-16.881 0-32.071 0-44.703 1.045-13.532 1.126-27.901 3.669-41.942 10.965-19.482 10.121-35.367 26.005-45.487 45.487-7.294 14.037-9.839 28.407-10.962 41.941-1.049 12.629-1.048 27.823-1.047 44.702v10.385c-0.001 16.879-0.002 32.073 1.047 44.702 1.124 13.534 3.668 27.904 10.962 41.941 10.12 19.482 26.005 35.366 45.487 45.487 14.041 7.296 28.41 9.839 41.942 10.965 12.631 1.045 27.821 1.045 44.701 1.045zM182.508 232.405c-0.224-0.081-0.32-0.128-0.341-0.141-3.897-2.022-7.074-5.201-9.097-9.097-0.011-0.021-0.061-0.119-0.142-0.341-0.085-0.235-0.226-0.666-0.395-1.37-0.355-1.481-0.776-3.921-1.111-7.957-0.72-8.67-0.754-20.267-0.754-39.206v-7.253c0-18.94 0.035-30.537 0.754-39.206 0.335-4.041 0.756-6.477 1.111-7.957 0.169-0.704 0.31-1.135 0.395-1.37 0.081-0.222 0.131-0.32 0.142-0.341 2.024-3.895 5.201-7.074 9.097-9.097 0.021-0.013 0.117-0.060 0.341-0.141 0.233-0.085 0.666-0.226 1.369-0.397 1.479-0.354 3.919-0.777 7.957-1.109 8.67-0.721 20.266-0.755 39.206-0.755h92.587c18.94 0 30.536 0.034 39.206 0.755 4.038 0.333 6.478 0.755 7.957 1.109 0.703 0.171 1.135 0.311 1.369 0.397 0.224 0.081 0.32 0.128 0.341 0.141 3.896 2.022 7.073 5.201 9.097 9.097 0.011 0.021 0.061 0.119 0.142 0.341 0.085 0.235 0.226 0.666 0.395 1.37 0.354 1.481 0.775 3.917 1.111 7.957 0.72 8.67 0.754 20.267 0.754 39.206v7.253c0 18.94-0.034 30.537-0.754 39.206-0.335 4.036-0.756 6.477-1.111 7.957-0.169 0.704-0.31 1.135-0.395 1.37-0.081 0.222-0.131 0.32-0.142 0.341-2.024 3.895-5.201 7.074-9.097 9.097-0.021 0.013-0.117 0.060-0.341 0.141-0.234 0.085-0.666 0.226-1.369 0.397-1.479 0.354-3.919 0.777-7.957 1.109-8.671 0.721-20.266 0.755-39.206 0.755h-92.587c-18.94 0-30.536-0.034-39.206-0.755-4.039-0.333-6.479-0.755-7.957-1.109-0.704-0.171-1.136-0.311-1.369-0.397z" />
<glyph unicode="&#xe939;" glyph-name="heart" d="M332 789.333c69.453 0 129.577-28.297 180-79.498 50.423 51.201 110.545 79.498 180.002 79.498 138.419 0 246.665-120.312 246.665-262.652 0-74.035-11.849-135.002-56.013-199.147-42.142-61.21-112.222-122.982-220.962-204.476l-149.692-101.726-149.703 101.739c-108.733 81.489-178.809 143.253-220.95 204.463-44.166 64.145-56.014 125.111-56.014 199.147 0 142.34 108.245 262.652 246.667 262.652zM332 704c-85.578 0-161.333-76.181-161.333-177.318 0-23.424 1.326-44.015 4.631-63.002 5.535-31.808 16.623-59.123 36.335-87.757 33.501-48.657 93.375-103.283 201.874-184.593l98.493-73.971 98.492 73.971c108.501 81.31 168.375 135.936 201.877 184.593 31.479 45.726 40.964 88.098 40.964 150.758 0 101.137-75.755 177.318-161.331 177.318-52.723 0-101.065-25.014-145.728-85.261-8.047-10.856-20.762-17.257-34.274-17.257s-26.227 6.401-34.274 17.257c-44.663 60.247-93.005 85.261-145.726 85.261z" />
<glyph unicode="&#xe93a;" glyph-name="hide" d="M154.197 780.346l768-597.332c18.598-14.468 21.952-41.276 7.484-59.874-14.468-18.603-41.271-21.952-59.874-7.484l-107.2 83.375c-70.857-57.071-155.405-92.365-250.603-92.365-182.624 0-326.053 129.877-408.813 294.229l-0.925 1.83c-3.896 7.684-8.927 17.604-11.177 29.837-1.79 9.724-1.79 21.15 0 30.878 2.25 12.233 7.281 22.153 11.177 29.833l0.925 1.83c26.117 51.864 58.275 100.296 95.8 142.296l-97.184 75.588c-18.601 14.467-21.952 41.274-7.485 59.874s41.274 21.951 59.874 7.484zM692.954 253.21l-76.702 59.657c-28.834-22.281-64.994-35.533-104.247-35.533-94.258 0-170.668 76.412-170.668 170.667 0 24.094 4.992 47.019 13.998 67.802l-88.895 69.14c-33.198-36.236-62.522-79.542-87.032-128.216-1.225-2.432-2.132-4.237-2.897-5.807-0.674-1.382-1.093-2.291-1.367-2.918 0.273-0.627 0.692-1.536 1.367-2.918 0.765-1.57 1.673-3.371 2.897-5.807 74.874-148.689 194.663-247.275 332.597-247.275 65.335 0 126.601 22.123 180.949 61.21zM427.465 459.699c-0.525-3.823-0.794-7.731-0.794-11.699 0-47.13 38.204-85.333 85.333-85.333 11.375 0 22.234 2.227 32.158 6.268l-116.698 90.765zM467.226 612.733l215.42-167.553c0.017 0.939 0.026 1.882 0.026 2.82 0 94.257-76.412 170.667-170.667 170.667-15.497 0-30.511-2.065-44.779-5.935zM844.599 439.275c-14.758-29.303-31.262-56.666-49.306-81.707l67.319-52.361c21.815 29.914 41.276 62.080 58.202 95.689l0.926 1.83c3.895 7.684 8.926 17.604 11.174 29.837 1.792 9.724 1.792 21.15 0 30.878-2.249 12.233-7.279 22.153-11.174 29.833l-0.926 1.83c-82.761 164.351-226.189 294.23-408.811 294.23-73.186 0-140.073-20.857-199.286-56.431l73.779-57.384c39.413 18.464 81.539 28.481 125.507 28.481 137.933 0 257.719-98.586 332.595-247.276 1.225-2.432 2.133-4.237 2.897-5.807 0.674-1.382 1.092-2.291 1.365-2.918-0.273-0.627-0.691-1.536-1.365-2.918-0.764-1.57-1.673-3.371-2.897-5.807z" />
<glyph unicode="&#xe93b;" glyph-name="home" d="M523.93 801.46c-7.791 2.269-16.068 2.269-23.863 0-2.24-0.653-6.182-2.287-14.566-8.635-8.815-6.676-19.61-16.23-36.429-31.18l-223.559-198.717c-27.407-24.362-35.177-31.71-40.578-39.834-5.196-7.817-9.067-16.435-11.456-25.51-2.484-9.438-2.813-20.122-2.813-56.794v-163.456c0-40.346 0.023-68.467 1.525-90.475 1.476-21.632 4.236-34.227 8.219-43.84 12.991-31.364 37.909-56.286 69.273-69.274 9.617-3.985 22.212-6.746 43.84-8.222 22.012-1.502 50.133-1.523 90.477-1.523h256.002c40.341 0 68.463 0.021 90.475 1.523 21.628 1.476 34.223 4.237 43.84 8.222 31.364 12.988 56.282 37.909 69.274 69.274 3.981 9.613 6.741 22.208 8.218 43.84 1.502 22.007 1.527 50.129 1.527 90.475v163.456c0 36.672-0.329 47.356-2.816 56.794-2.389 9.075-6.259 17.694-11.456 25.51-5.402 8.124-13.171 15.471-40.576 39.834l-223.561 198.717c-16.819 14.951-27.614 24.505-36.429 31.18-8.384 6.348-12.326 7.982-14.566 8.635zM476.207 883.389c23.377 6.807 48.205 6.807 71.582 0 16.218-4.724 29.666-13.030 42.214-22.531 11.819-8.948 25.131-20.779 40.457-34.403l224.717-199.75c1.212-1.075 2.402-2.136 3.584-3.183 22.259-19.764 39.070-34.695 51.366-53.187 10.389-15.633 18.133-32.872 22.912-51.026 5.653-21.474 5.645-43.959 5.628-73.724 0-1.579 0-3.174 0-4.796v-164.971c0-38.477 0-69.513-1.724-94.771-1.775-25.971-5.508-48.939-14.515-70.686-21.653-52.275-63.185-93.803-115.456-115.456-21.747-9.007-44.715-12.745-70.69-14.515-25.259-1.724-56.294-1.724-94.767-1.724h-259.032c-38.475 0-69.511 0-94.77 1.724-25.973 1.771-48.94 5.508-70.687 14.515-52.273 21.653-93.803 63.185-115.455 115.456-9.008 21.747-12.744 44.715-14.516 70.686-1.723 25.259-1.723 56.294-1.723 94.771v164.971c0 1.621-0.001 3.217-0.001 4.796-0.016 29.764-0.027 52.25 5.627 73.724 4.78 18.154 12.522 35.394 22.914 51.026 12.293 18.493 29.108 33.423 51.366 53.187 1.179 1.047 2.374 2.108 3.584 3.183l224.718 199.75c15.326 13.624 28.635 25.455 40.455 34.403 12.548 9.501 25.997 17.807 42.214 22.531z" />
<glyph unicode="&#xe93c;" glyph-name="home-door" d="M523.93 801.46c-7.791 2.269-16.068 2.269-23.863 0-2.24-0.653-6.182-2.287-14.566-8.635-8.815-6.676-19.61-16.23-36.429-31.18l-223.559-198.717c-27.407-24.362-35.177-31.71-40.578-39.834-5.196-7.817-9.067-16.435-11.456-25.51-2.484-9.438-2.813-20.122-2.813-56.794v-213.376c0-37.163 0.035-62.426 1.655-81.941 1.578-19.008 4.438-28.71 7.953-35.473 8.096-15.586 20.804-28.297 36.39-36.39 6.766-3.516 16.468-6.374 35.473-7.953 19.516-1.621 44.78-1.655 81.943-1.655h7.253v128c0 94.255 76.41 170.667 170.669 170.667 94.255 0 170.667-76.412 170.667-170.667v-128h7.253c37.163 0 62.426 0.034 81.941 1.655 19.004 1.579 28.706 4.437 35.473 7.953 15.586 8.094 28.292 20.804 36.39 36.39 3.516 6.763 6.374 16.465 7.953 35.473 1.617 19.516 1.655 44.779 1.655 81.941v213.376c0 36.672-0.329 47.356-2.816 56.794-2.389 9.075-6.259 17.694-11.456 25.51-5.402 8.124-13.171 15.471-40.576 39.834l-223.561 198.717c-16.819 14.951-27.614 24.505-36.429 31.18-8.384 6.348-12.326 7.982-14.566 8.635zM476.207 883.389c23.377 6.807 48.205 6.807 71.582 0 16.218-4.724 29.666-13.030 42.214-22.531 11.819-8.948 25.131-20.779 40.457-34.403l224.717-199.75c1.212-1.075 2.402-2.136 3.584-3.183 22.259-19.764 39.070-34.695 51.366-53.187 10.389-15.633 18.133-32.872 22.912-51.026 5.653-21.474 5.645-43.959 5.628-73.724 0-1.579 0-3.174 0-4.796v-215.168c0-34.923 0-63.748-1.95-87.215-2.022-24.375-6.37-46.771-17.267-67.746-16.192-31.172-41.609-56.585-72.777-72.777-20.979-10.897-43.371-15.245-67.75-17.267-23.467-1.95-52.288-1.95-87.215-1.95h-17.361c-0.333 0-0.666 0-1.007 0-5.167 0-11.337-0.004-16.772 0.448-6.302 0.521-15.322 1.865-24.738 6.758-11.691 6.071-21.222 15.603-27.294 27.29-4.89 9.421-6.234 18.441-6.758 24.742-0.452 5.431-0.448 11.605-0.448 16.772l0.004 137.323c0 47.13-38.208 85.333-85.333 85.333-47.13 0-85.335-38.204-85.335-85.333v-137.323c0.002-5.167 0.006-11.341-0.447-16.772-0.524-6.302-1.868-15.322-6.759-24.742-6.072-11.686-15.603-21.218-27.292-27.29-9.417-4.894-18.438-6.238-24.739-6.758-5.434-0.452-11.606-0.448-16.774-0.448-0.339 0-0.674 0-1.004 0h-17.364c-34.924 0-63.748 0-87.215 1.95-24.378 2.022-46.771 6.37-67.747 17.267-31.171 16.192-56.587 41.604-72.779 72.777-10.896 20.975-15.243 43.371-17.267 67.746-1.949 23.467-1.948 52.292-1.948 87.215v215.168c0 1.621-0.001 3.217-0.001 4.796-0.016 29.764-0.027 52.25 5.627 73.724 4.78 18.154 12.522 35.394 22.914 51.026 12.293 18.493 29.108 33.423 51.366 53.187 1.179 1.047 2.374 2.108 3.584 3.183l224.718 199.75c15.326 13.624 28.635 25.455 40.455 34.403 12.548 9.501 25.997 17.807 42.214 22.531z" />
<glyph unicode="&#xe93d;" glyph-name="html5" d="M61.426 958.998l82.008-919.838 368.012-102.156 369.030 102.3 82.098 919.694h-901.148zM791.508 740.708l-5.134-57.192-2.256-25.362h-431.71l10.31-115.522h411.13l-2.754-30.292-28.208-316.058-231.404-64.158-231.094 64.156-15.806 177.132h113.248l8.032-89.972 125.744-33.89 125.832 33.954 13.084 146.316h-390.98l-27.726 310.888-2.702 30.262h565.094l-2.7-30.262z" />
<glyph unicode="&#xe93e;" glyph-name="html5-text" d="M217.338 958.998h46.064v-45.512h42.138v45.512h46.068v-137.818h-46.064v46.152h-42.138v-46.152h-46.064v137.818h-0.004zM412.182 913.294h-40.55v45.704h127.188v-45.704h-40.57v-92.114h-46.064v92.114h-0.004zM519.004 958.998h48.040l29.542-48.426 29.518 48.426h48.046v-137.818h-45.876v68.308l-31.69-49h-0.79l-31.712 49v-68.308h-45.078v137.818zM697.080 958.998h46.076v-92.266h64.782v-45.552h-110.858v137.818zM149.974 758.148l65.892-739.066 295.688-82.080 296.508 82.198 65.962 738.95h-724.050zM736.578 582.76l-4.126-45.954-1.812-20.376h-346.868l8.284-92.814h330.332l-2.212-24.344-22.664-253.944-185.928-51.552-185.678 51.548-12.702 142.322h90.994l6.454-72.292 101.032-27.23 101.102 27.28 10.514 117.562h-314.144l-24.448 274.108h454.040l-2.17-24.314z" />
<glyph unicode="&#xe93f;" glyph-name="illustrator" d="M455.186 524.018l38.376-120.182h-125.254l37.65 120.182c8.692 28.96 15.928 62.986 23.164 91.222h1.448c7.242-28.238 15.202-61.538 24.616-91.222zM1023 788.666v-681.334c0-93.684-76.65-170.334-170.334-170.334h-681.332c-93.684 0.002-170.334 76.652-170.334 170.336v681.332c0 93.684 76.65 170.334 170.334 170.334h681.334c93.682 0 170.332-76.65 170.332-170.334zM648.492 198.23l-158.558 487.954h-113.66l-156.378-487.954h91.946l41.994 138.28h154.93l44.164-138.28h95.562zM799.040 550.806h-89.776v-352.576h89.776v352.576zM804.104 649.264c-0.724 27.512-19.544 48.504-49.954 48.504-29.684 0-49.952-20.992-49.952-48.504 0-26.79 19.544-47.782 49.228-47.782 31.132 0.002 50.678 20.994 50.678 47.782z" />
<glyph unicode="&#xe940;" glyph-name="input-field" d="M341.333 832c0 23.564 19.103 42.667 42.667 42.667h256c23.565 0 42.667-19.103 42.667-42.667s-19.102-42.667-42.667-42.667h-85.333v-682.667h85.333c23.565 0 42.667-19.102 42.667-42.667s-19.102-42.667-42.667-42.667h-256c-23.564 0-42.667 19.102-42.667 42.667s19.103 42.667 42.667 42.667h85.333v682.667h-85.333c-23.564 0-42.667 19.103-42.667 42.667zM332.288 704h9.045c23.564 0 42.667-19.103 42.667-42.667s-19.102-42.667-42.667-42.667h-7.253c-37.164 0-62.427-0.034-81.943-1.655-19.005-1.578-28.707-4.438-35.473-7.952-15.585-8.096-28.293-20.804-36.39-36.39-3.514-6.766-6.374-16.468-7.952-35.473-1.621-19.518-1.655-44.781-1.655-81.943v-14.507c0-37.163 0.034-62.426 1.655-81.941 1.578-19.008 4.438-28.71 7.952-35.473 8.096-15.586 20.804-28.297 36.39-36.39 6.766-3.516 16.468-6.374 35.473-7.953 19.516-1.621 44.78-1.655 81.943-1.655h7.253c23.564 0 42.667-19.102 42.667-42.667s-19.102-42.667-42.667-42.667h-9.046c-34.924 0-63.746 0-87.213 1.95-24.378 2.022-46.771 6.37-67.747 17.263-31.171 16.192-56.587 41.609-72.779 72.781-10.897 20.975-15.243 43.371-17.267 67.746-1.949 23.467-1.948 52.292-1.948 87.215v18.091c0 34.923-0.001 63.748 1.948 87.214 2.025 24.378 6.371 46.771 17.267 67.747 16.192 31.171 41.608 56.587 72.779 72.779 20.977 10.897 43.37 15.243 67.747 17.267 23.467 1.949 52.29 1.948 87.214 1.948zM771.861 617.012c-19.516 1.621-44.779 1.655-81.941 1.655h-7.253c-23.565 0-42.667 19.103-42.667 42.667s19.102 42.667 42.667 42.667h9.045c34.923 0 63.748 0.001 87.215-1.948 24.375-2.025 46.771-6.371 67.746-17.267 31.172-16.192 56.589-41.608 72.781-72.779 10.893-20.977 15.241-43.37 17.263-67.747 1.95-23.465 1.95-52.291 1.95-87.214v-18.091c0-34.923 0-63.748-1.95-87.215-2.022-24.375-6.37-46.771-17.263-67.746-16.192-31.172-41.609-56.589-72.781-72.781-20.975-10.893-43.371-15.241-67.746-17.263-23.467-1.95-52.292-1.95-87.215-1.95h-9.045c-23.565 0-42.667 19.102-42.667 42.667s19.102 42.667 42.667 42.667h7.253c37.163 0 62.426 0.034 81.941 1.655 19.008 1.579 28.71 4.437 35.473 7.953 15.586 8.094 28.297 20.804 36.39 36.39 3.516 6.763 6.374 16.465 7.953 35.473 1.621 19.516 1.655 44.779 1.655 81.941v14.507c0 37.163-0.034 62.426-1.655 81.943-1.579 19.005-4.437 28.707-7.953 35.473-8.094 15.585-20.804 28.294-36.39 36.39-6.763 3.514-16.465 6.374-35.473 7.952z" />
<glyph unicode="&#xe941;" glyph-name="instagram" d="M512 622.933c-34.598 0-68.42-10.26-97.187-29.482s-51.189-46.543-64.43-78.507c-13.24-31.966-16.704-67.14-9.955-101.073s23.41-65.105 47.875-89.57c24.465-24.461 55.634-41.122 89.567-47.872 33.937-6.75 69.107-3.285 101.073 9.954s59.285 35.661 78.507 64.427c19.226 28.77 29.483 62.592 29.483 97.19 0.055 22.989-4.429 45.76-13.201 67.008-8.772 21.251-21.653 40.558-37.909 56.813s-35.563 29.139-56.811 37.91c-21.252 8.771-44.023 13.257-67.012 13.201zM512 334.080c-22.532 0-44.557 6.682-63.292 19.2-18.731 12.514-33.334 30.306-41.956 51.123s-10.878 43.721-6.483 65.822c4.396 22.097 15.245 42.398 31.176 58.33 15.932 15.93 36.233 26.78 58.33 31.176 22.101 4.396 45.005 2.14 65.822-6.483s38.609-23.225 51.123-41.956c12.518-18.735 19.2-40.759 19.2-63.292 0-30.212-12.002-59.191-33.365-80.555s-50.342-33.365-80.555-33.365zM735.147 630.186c0-8.439-2.5-16.688-7.189-23.704s-11.354-12.486-19.149-15.715c-7.795-3.229-16.375-4.074-24.653-2.428s-15.876 5.71-21.845 11.677c-5.965 5.967-10.031 13.569-11.678 21.846s-0.802 16.855 2.428 24.652c3.23 7.796 8.7 14.46 15.714 19.148 7.019 4.689 15.266 7.191 23.706 7.191 11.315 0 22.17-4.495 30.17-12.497 8.004-8.001 12.497-18.854 12.497-30.17zM850.773 587.52c1.242 53.042-18.543 104.422-55.040 142.933-38.306 36.963-89.711 57.218-142.933 56.32-55.467 2.56-226.133 2.56-281.6 0-53.026 1.148-104.372-18.624-142.933-55.040-36.495-38.511-56.281-89.891-55.040-142.933-2.56-55.466-2.56-226.133 0-281.6-1.241-53.043 18.545-104.422 55.040-142.933 38.561-36.416 89.908-56.188 142.933-55.040 56.32-3.413 225.28-3.413 281.6 0 53.043-1.242 104.422 18.543 142.933 55.040 36.497 38.511 56.282 89.89 55.040 142.933 2.56 55.467 2.56 226.133 0 281.6v-1.28zM778.24 246.187c-5.794-14.677-14.537-28.002-25.694-39.159s-24.482-19.9-39.159-25.694c-66.236-13.393-133.948-17.984-201.387-13.653-67.294-4.335-134.868 0.256-200.96 13.653-14.674 5.794-28.003 14.537-39.159 25.694s-19.901 24.482-25.695 39.159c-17.92 45.227-14.080 151.893-14.080 201.387s-3.84 156.586 14.080 201.386c5.63 14.819 14.313 28.289 25.486 39.536s24.585 20.017 39.368 25.744c66.091 13.398 133.666 17.989 200.96 13.653 67.439 4.329 135.151-0.262 201.387-13.653 14.677-5.793 28.002-14.539 39.159-25.695s19.9-24.484 25.694-39.159c17.92-45.227 13.653-151.893 13.653-201.386s4.267-156.587-13.653-201.387v-0.427z" />
<glyph unicode="&#xe942;" glyph-name="js" d="M436.39 444.958c0-129.438 9.248-238.2-54.618-302.566-35.922-36.21-92.602-57.544-162.34-57.544-114.384 0-177.894 55.724-218.43 132.832 39.024 24.918 78.904 49.004 119.55 72.308 16.584-46.376 72.582-98.516 135.776-66.42 40.054 20.36 35.43 82.080 35.43 149.074 0 139.098 0 299.56 0 425.056-0.126 2.088-0.25 4.174 1.464 4.428 47.732 0 95.456 0 143.17 0-0.002-111.79-0.002-238.264-0.002-357.168zM799.454 529.076c-36.494 15.628-81.856 34.116-92.976 67.904-12.466 37.868 8.792 69.066 32.462 79.682 52.046 23.376 114.076-15.112 126.926-54.602 39.166 23.314 78.206 46.768 113.652 73.792-41.652 69.168-102.708 118.684-214.006 115.122-61.28-1.958-107.314-21.304-141.682-50.176-33.542-28.17-59.442-67.708-63.474-123.978-12.050-168.424 113.976-211.416 221.39-258.274 33.86-14.77 71.502-29.684 87.080-59.034 32.122-60.564-24.778-100.52-73.796-104.794-78.672-6.854-131.716 39.174-162.35 87.080-38.266-23.72-79.876-44.090-116.596-69.366 51.074-89.816 134.818-147.96 265.662-147.586 133.48 0.376 232.438 64.732 240.562 185.954 11.046 164.768-112.396 210.99-222.854 258.276z" />
<glyph unicode="&#xe943;" glyph-name="js-square" d="M2.016 959c-1.14-0.166-1.056-1.54-0.974-2.916 0-339.336 0-678.62 0-1017.948 338.728-2.27 681.616-0.324 1021.958-0.972 0 340.618 0 681.22 0 1021.836-340.316 0-680.666 0-1020.984 0zM519.786 55.666c-23.644-23.838-60.956-37.876-106.858-37.876-75.286 0-117.086 36.68-143.768 87.422 25.684 16.4 51.932 32.244 78.688 47.59 10.912-30.524 47.772-64.84 89.366-43.714 26.366 13.398 23.322 54.020 23.322 98.108 0 91.546 0 197.156 0 279.744-0.084 1.376-0.166 2.75 0.964 2.916 31.414 0 62.826 0 94.232 0 0-73.576 0-156.804 0-235.058 0-85.196 6.088-156.774-35.946-199.132zM941.392 140.166c-5.348-79.768-70.486-122.126-158.34-122.376-86.124-0.248-141.248 38.026-174.866 97.134 24.17 16.634 51.556 30.034 76.75 45.644 20.16-31.522 55.074-61.82 106.858-57.304 32.262 2.812 69.712 29.11 48.57 68.964-10.254 19.32-35.032 29.134-57.312 38.85-70.704 30.848-153.656 59.142-145.722 169.984 2.654 37.028 19.704 63.050 41.778 81.592 22.622 19 52.92 31.734 93.258 33.022 73.258 2.346 113.446-30.24 140.858-75.768-23.328-17.782-49.028-33.216-74.802-48.562-8.458 25.99-49.288 51.316-83.544 35.938-15.578-6.986-29.576-27.522-21.368-52.448 7.32-22.23 37.178-34.398 61.198-44.688 72.704-31.12 153.954-61.534 146.684-169.982z" />
</font>
</defs>
</svg>
