<?xml version="1.0" standalone="no"?>
<!DOCTYPE svg PUBLIC "-//W3C//DTD SVG 1.1//EN" "http://www.w3.org/Graphics/SVG/1.1/DTD/svg11.dtd" >
<svg xmlns="http://www.w3.org/2000/svg">
<metadata>Generated by IcoMoon</metadata>
<defs>
<font id="icomoon" horiz-adv-x="1024">
<font-face units-per-em="1024" ascent="960" descent="-64" />
<missing-glyph horiz-adv-x="1024" />
<glyph unicode="&#x20;" horiz-adv-x="0" d="" />
<glyph unicode="&#xe900;" glyph-name="carret_down_12" d="M467.711 283.633l-282.364 322.752c-33.324 37.974-6.241 97.615 44.332 97.615h564.728c11.318 0.009 22.399-3.244 31.916-9.37s17.067-14.865 21.745-25.172c4.678-10.307 6.288-21.743 4.632-32.94-1.655-11.197-6.502-21.68-13.961-30.193l-282.364-322.634c-5.526-6.324-12.341-11.392-19.988-14.865s-15.947-5.269-24.346-5.269c-8.398 0-16.699 1.797-24.345 5.269s-14.461 8.541-19.988 14.865v-0.059z" />
<glyph unicode="&#xe901;" glyph-name="carret_down_24" d="M489.856 365.815l-141.182 161.378c-16.662 18.986-3.121 48.806 22.166 48.806h282.365c5.658 0.005 11.2-1.622 15.957-4.685s8.533-7.433 10.871-12.586c2.338-5.153 3.145-10.871 2.317-16.47s-3.251-10.838-6.98-15.096l-141.184-161.318c-2.761-3.162-6.17-5.696-9.993-7.433s-7.974-2.633-12.173-2.633c-4.198 0-8.35 0.896-12.173 2.633s-7.232 4.271-9.993 7.433v-0.030z" />
<glyph unicode="&#xe902;" glyph-name="alert_circle" d="M523.375 789.333c-188.513 0-341.333-152.82-341.333-341.333s152.82-341.333 341.333-341.333c188.514 0 341.333 152.819 341.333 341.333s-152.819 341.333-341.333 341.333zM96.708 448c0 235.642 191.025 426.667 426.667 426.667 235.639 0 426.667-191.025 426.667-426.667 0-235.639-191.027-426.667-426.667-426.667-235.642 0-426.667 191.027-426.667 426.667zM523.375 661.333c23.565 0 42.667-19.103 42.667-42.667v-170.667c0-23.565-19.102-42.667-42.667-42.667s-42.667 19.102-42.667 42.667v170.667c0 23.564 19.102 42.667 42.667 42.667zM480.708 277.333c0 23.565 19.102 42.667 42.667 42.667h0.427c23.565 0 42.667-19.102 42.667-42.667s-19.102-42.667-42.667-42.667h-0.427c-23.565 0-42.667 19.102-42.667 42.667z" />
<glyph unicode="&#xe903;" glyph-name="alert_rectangle" d="M85.333 661.333c0 117.821 95.513 213.333 213.333 213.333h426.667c117.82 0 213.333-95.513 213.333-213.333v-426.667c0-117.82-95.514-213.333-213.333-213.333h-426.667c-117.821 0-213.333 95.514-213.333 213.333v426.667zM298.667 789.333c-70.692 0-128-57.308-128-128v-426.667c0-70.694 57.308-128 128-128h426.667c70.694 0 128 57.306 128 128v426.667c0 70.692-57.306 128-128 128h-426.667zM512.427 661.333c23.565 0 42.667-19.103 42.667-42.667v-170.667c0-23.565-19.102-42.667-42.667-42.667s-42.667 19.102-42.667 42.667v170.667c0 23.564 19.102 42.667 42.667 42.667zM469.333 277.333c0 23.565 19.102 42.667 42.667 42.667h0.427c23.565 0 42.667-19.102 42.667-42.667s-19.102-42.667-42.667-42.667h-0.427c-23.565 0-42.667 19.102-42.667 42.667z" />
<glyph unicode="&#xe904;" glyph-name="android-smartphone" d="M170.667 704c0 94.257 76.41 170.667 170.667 170.667h341.333c94.255 0 170.667-76.41 170.667-170.667v-512c0-94.255-76.412-170.667-170.667-170.667h-341.333c-94.257 0-170.667 76.412-170.667 170.667v512zM341.333 789.333c-47.128 0-85.333-38.205-85.333-85.333v-512c0-47.13 38.205-85.333 85.333-85.333h341.333c47.13 0 85.333 38.204 85.333 85.333v512c0 47.128-38.204 85.333-85.333 85.333h-341.333zM341.333 874.667h70.080c38.818 0 75.131-16.479 100.586-44.275 25.455 27.796 61.769 44.275 100.587 44.275h70.080v-85.333h-70.080c-19.337 0-37.013-10.924-45.662-28.219-22.63-45.262-87.219-45.262-109.85 0-8.649 17.295-26.325 28.219-45.661 28.219h-70.080v85.333z" />
<glyph unicode="&#xe905;" glyph-name="android-smartphone_active" d="M341.333 874.667h70.080c38.818 0 75.131-16.479 100.586-44.275 25.455 27.796 61.769 44.275 100.587 44.275h70.080v-85.333h-70.080c-19.337 0-37.013-10.924-45.662-28.219-22.63-45.262-87.219-45.262-109.85 0-8.649 17.295-26.325 28.219-45.661 28.219h-70.080v85.333zM170.667 704c0 94.257 76.41 170.667 170.667 170.667h341.333c94.255 0 170.667-76.41 170.667-170.667v-256c0-23.565-19.102-42.667-42.667-42.667s-42.667 19.102-42.667 42.667v256c0 47.128-38.204 85.333-85.333 85.333h-341.333c-47.128 0-85.333-38.205-85.333-85.333v-512c0-47.13 38.205-85.333 85.333-85.333h85.333c23.565 0 42.667-19.102 42.667-42.667s-19.102-42.667-42.667-42.667h-85.333c-94.257 0-170.667 76.412-170.667 170.667v512zM682.667 277.333c-47.13 0-85.333-38.204-85.333-85.333s38.204-85.333 85.333-85.333c47.13 0 85.333 38.204 85.333 85.333s-38.204 85.333-85.333 85.333zM512 192c0 94.255 76.412 170.667 170.667 170.667s170.667-76.412 170.667-170.667c0-94.255-76.412-170.667-170.667-170.667s-170.667 76.412-170.667 170.667z" />
<glyph unicode="&#xe906;" glyph-name="android-smartphone_check" d="M170.667 704c0 94.257 76.41 170.667 170.667 170.667h341.333c94.255 0 170.667-76.41 170.667-170.667v-512c0-94.255-76.412-170.667-170.667-170.667h-341.333c-94.257 0-170.667 76.412-170.667 170.667v512zM341.333 789.333c-47.128 0-85.333-38.205-85.333-85.333v-512c0-47.13 38.205-85.333 85.333-85.333h341.333c47.13 0 85.333 38.204 85.333 85.333v512c0 47.128-38.204 85.333-85.333 85.333h-341.333zM341.333 874.667h70.080c38.818 0 75.131-16.479 100.586-44.275 25.455 27.796 61.769 44.275 100.587 44.275h70.080v-85.333h-70.080c-19.337 0-37.013-10.924-45.662-28.219-22.63-45.262-87.219-45.262-109.85 0-8.649 17.295-26.325 28.219-45.661 28.219h-70.080v85.333zM669.184 521.792c17.19-16.115 18.061-43.115 1.946-60.305l-160-170.667c-15.287-16.307-40.563-18.052-57.946-4.006l-96 77.577c-18.328 14.81-21.179 41.673-6.369 60.002s41.675 21.18 60.003 6.37l65.167-52.663 132.89 141.747c16.115 17.193 43.119 18.063 60.309 1.946z" />
<glyph unicode="&#xe907;" glyph-name="android-smartphone_delete" d="M170.667 704c0 94.257 76.41 170.667 170.667 170.667h341.333c94.255 0 170.667-76.41 170.667-170.667v-512c0-94.255-76.412-170.667-170.667-170.667h-341.333c-94.257 0-170.667 76.412-170.667 170.667v512zM341.333 789.333c-47.128 0-85.333-38.205-85.333-85.333v-512c0-47.13 38.205-85.333 85.333-85.333h341.333c47.13 0 85.333 38.204 85.333 85.333v512c0 47.128-38.204 85.333-85.333 85.333h-341.333zM341.333 874.667h70.080c38.818 0 75.131-16.479 100.586-44.275 25.455 27.796 61.769 44.275 100.587 44.275h70.080v-85.333h-70.080c-19.337 0-37.013-10.924-45.662-28.219-22.63-45.262-87.219-45.262-109.85 0-8.649 17.295-26.325 28.219-45.661 28.219h-70.080v85.333zM375.163 520.836c16.663 16.663 43.677 16.663 60.34 0l213.333-213.333c16.661-16.661 16.661-43.678 0-60.339s-43.678-16.661-60.339 0l-213.334 213.333c-16.662 16.661-16.662 43.678 0 60.339zM648.836 520.836c-16.661 16.663-43.678 16.663-60.339 0l-213.334-213.333c-16.662-16.661-16.662-43.678 0-60.339s43.677-16.661 60.34 0l213.333 213.333c16.661 16.661 16.661 43.678 0 60.339z" />
<glyph unicode="&#xe908;" glyph-name="android-smartphone_down" d="M170.667 704c0 94.257 76.41 170.667 170.667 170.667h341.333c94.255 0 170.667-76.41 170.667-170.667v-512c0-94.255-76.412-170.667-170.667-170.667h-341.333c-94.257 0-170.667 76.412-170.667 170.667v512zM341.333 789.333c-47.128 0-85.333-38.205-85.333-85.333v-512c0-47.13 38.205-85.333 85.333-85.333h341.333c47.13 0 85.333 38.204 85.333 85.333v512c0 47.128-38.204 85.333-85.333 85.333h-341.333zM341.333 874.667h70.080c38.818 0 75.131-16.479 100.586-44.275 25.455 27.796 61.769 44.275 100.587 44.275h70.080v-85.333h-70.080c-19.337 0-37.013-10.924-45.662-28.219-22.63-45.262-87.219-45.262-109.85 0-8.649 17.295-26.325 28.219-45.661 28.219h-70.080v85.333zM512 234.667c23.565 0 42.667 19.102 42.667 42.667v256c0 23.564-19.102 42.667-42.667 42.667s-42.667-19.103-42.667-42.667v-256c0-23.565 19.102-42.667 42.667-42.667zM353.83 435.503c16.663 16.661 43.677 16.661 60.34 0l97.83-97.83 97.83 97.83c16.661 16.661 43.678 16.661 60.339 0s16.661-43.678 0-60.339l-128-128c-16.661-16.661-43.678-16.661-60.339 0l-128 128c-16.662 16.661-16.662 43.678 0 60.339z" />
<glyph unicode="&#xe909;" glyph-name="android-smartphone_minus" d="M170.667 704c0 94.257 76.41 170.667 170.667 170.667h341.333c94.255 0 170.667-76.41 170.667-170.667v-512c0-94.255-76.412-170.667-170.667-170.667h-341.333c-94.257 0-170.667 76.412-170.667 170.667v512zM341.333 789.333c-47.128 0-85.333-38.205-85.333-85.333v-512c0-47.13 38.205-85.333 85.333-85.333h341.333c47.13 0 85.333 38.204 85.333 85.333v512c0 47.128-38.204 85.333-85.333 85.333h-341.333zM341.333 874.667h70.080c38.818 0 75.131-16.479 100.586-44.275 25.455 27.796 61.769 44.275 100.587 44.275h70.080v-85.333h-70.080c-19.337 0-37.013-10.924-45.662-28.219-22.63-45.262-87.219-45.262-109.85 0-8.649 17.295-26.325 28.219-45.661 28.219h-70.080v85.333zM341.333 405.333c0 23.565 19.103 42.667 42.667 42.667h256c23.565 0 42.667-19.102 42.667-42.667s-19.102-42.667-42.667-42.667h-256c-23.564 0-42.667 19.102-42.667 42.667z" />
<glyph unicode="&#xe90a;" glyph-name="android-smartphone_plus" d="M170.667 704c0 94.257 76.41 170.667 170.667 170.667h341.333c94.255 0 170.667-76.41 170.667-170.667v-512c0-94.255-76.412-170.667-170.667-170.667h-341.333c-94.257 0-170.667 76.412-170.667 170.667v512zM341.333 789.333c-47.128 0-85.333-38.205-85.333-85.333v-512c0-47.13 38.205-85.333 85.333-85.333h341.333c47.13 0 85.333 38.204 85.333 85.333v512c0 47.128-38.204 85.333-85.333 85.333h-341.333zM341.333 874.667h70.080c38.818 0 75.131-16.479 100.586-44.275 25.455 27.796 61.769 44.275 100.587 44.275h70.080v-85.333h-70.080c-19.337 0-37.013-10.924-45.662-28.219-22.63-45.262-87.219-45.262-109.85 0-8.649 17.295-26.325 28.219-45.661 28.219h-70.080v85.333zM341.333 405.333c0 23.565 19.103 42.667 42.667 42.667h256c23.565 0 42.667-19.102 42.667-42.667s-19.102-42.667-42.667-42.667h-256c-23.564 0-42.667 19.102-42.667 42.667zM512 576c23.565 0 42.667-19.103 42.667-42.667v-256c0-23.565-19.102-42.667-42.667-42.667s-42.667 19.102-42.667 42.667v256c0 23.564 19.102 42.667 42.667 42.667z" />
<glyph unicode="&#xe90b;" glyph-name="android-smartphone_up" d="M170.667 704c0 94.257 76.41 170.667 170.667 170.667h341.333c94.255 0 170.667-76.41 170.667-170.667v-512c0-94.255-76.412-170.667-170.667-170.667h-341.333c-94.257 0-170.667 76.412-170.667 170.667v512zM341.333 789.333c-47.128 0-85.333-38.205-85.333-85.333v-512c0-47.13 38.205-85.333 85.333-85.333h341.333c47.13 0 85.333 38.204 85.333 85.333v512c0 47.128-38.204 85.333-85.333 85.333h-341.333zM341.333 874.667h70.080c38.818 0 75.131-16.479 100.586-44.275 25.455 27.796 61.769 44.275 100.587 44.275h70.080v-85.333h-70.080c-19.337 0-37.013-10.924-45.662-28.219-22.63-45.262-87.219-45.262-109.85 0-8.649 17.295-26.325 28.219-45.661 28.219h-70.080v85.333zM512 576c23.565 0 42.667-19.103 42.667-42.667v-256c0-23.565-19.102-42.667-42.667-42.667s-42.667 19.102-42.667 42.667v256c0 23.564 19.102 42.667 42.667 42.667zM353.83 375.164c16.663-16.661 43.677-16.661 60.34 0l97.83 97.83 97.83-97.83c16.661-16.661 43.678-16.661 60.339 0s16.661 43.678 0 60.339l-128 128c-16.661 16.662-43.678 16.662-60.339 0l-128-128c-16.662-16.661-16.662-43.678 0-60.339z" />
<glyph unicode="&#xe90c;" glyph-name="Arrow_Down_circle" d="M85.333 448c0 235.642 191.025 426.667 426.667 426.667 235.639 0 426.667-191.025 426.667-426.667 0-235.639-191.027-426.667-426.667-426.667-235.642 0-426.667 191.027-426.667 426.667zM512 789.333c-188.513 0-341.333-152.82-341.333-341.333s152.82-341.333 341.333-341.333c188.514 0 341.333 152.819 341.333 341.333s-152.819 341.333-341.333 341.333zM512 661.333c23.565 0 42.667-19.103 42.667-42.667v-238.327l97.83 97.83c16.661 16.661 43.678 16.661 60.339 0s16.661-43.678 0-60.339l-170.667-170.667c-8-8-18.854-12.497-30.17-12.497s-22.17 4.497-30.17 12.497l-170.667 170.667c-16.662 16.661-16.662 43.678 0 60.339s43.677 16.661 60.34 0l97.83-97.83v238.327c0 23.564 19.102 42.667 42.667 42.667z" />
<glyph unicode="&#xe90d;" glyph-name="Arrow_Down_rectangle" d="M85.333 661.333c0 117.821 95.513 213.333 213.333 213.333h426.667c117.82 0 213.333-95.513 213.333-213.333v-426.667c0-117.82-95.514-213.333-213.333-213.333h-426.667c-117.821 0-213.333 95.514-213.333 213.333v426.667zM298.667 789.333c-70.692 0-128-57.308-128-128v-426.667c0-70.694 57.308-128 128-128h426.667c70.694 0 128 57.306 128 128v426.667c0 70.692-57.306 128-128 128h-426.667zM512 661.333c23.565 0 42.667-19.103 42.667-42.667v-238.327l97.83 97.83c16.661 16.661 43.678 16.661 60.339 0s16.661-43.678 0-60.339l-170.667-170.667c-8-8-18.854-12.497-30.17-12.497s-22.17 4.497-30.17 12.497l-170.667 170.667c-16.662 16.661-16.662 43.678 0 60.339s43.677 16.661 60.34 0l97.83-97.83v238.327c0 23.564 19.102 42.667 42.667 42.667z" />
<glyph unicode="&#xe90e;" glyph-name="Arrow_Left" d="M456.836 776.837c16.661-16.663 16.661-43.677 0-60.34l-225.83-225.83h664.994c23.565 0 42.667-19.102 42.667-42.667s-19.102-42.667-42.667-42.667h-664.994l225.83-225.83c16.661-16.661 16.661-43.678 0-60.339s-43.677-16.661-60.34 0l-298.667 298.667c-16.662 16.661-16.662 43.678 0 60.339l298.667 298.667c16.663 16.662 43.678 16.662 60.34 0z" />
<glyph unicode="&#xe90f;" glyph-name="Arrow_Left_circle" d="M85.333 448c0 235.642 191.025 426.667 426.667 426.667 235.639 0 426.667-191.025 426.667-426.667 0-235.639-191.027-426.667-426.667-426.667-235.642 0-426.667 191.027-426.667 426.667zM512 789.333c-188.513 0-341.333-152.82-341.333-341.333s152.82-341.333 341.333-341.333c188.514 0 341.333 152.819 341.333 341.333s-152.819 341.333-341.333 341.333zM298.667 448c0-23.565 19.103-42.667 42.667-42.667h341.333c23.565 0 42.667 19.102 42.667 42.667s-19.102 42.667-42.667 42.667h-341.333c-23.564 0-42.667-19.102-42.667-42.667zM542.17 648.837c16.661-16.663 16.661-43.677 0-60.34l-140.497-140.497 140.497-140.497c16.661-16.661 16.661-43.678 0-60.339s-43.678-16.661-60.339 0l-170.667 170.667c-16.662 16.661-16.662 43.678 0 60.339l170.667 170.667c16.661 16.662 43.678 16.662 60.339 0z" />
<glyph unicode="&#xe910;" glyph-name="Arrow_Left_rectangle" d="M85.333 661.333c0 117.821 95.513 213.333 213.333 213.333h426.667c117.82 0 213.333-95.513 213.333-213.333v-426.667c0-117.82-95.514-213.333-213.333-213.333h-426.667c-117.821 0-213.333 95.514-213.333 213.333v426.667zM298.667 789.333c-70.692 0-128-57.308-128-128v-426.667c0-70.694 57.308-128 128-128h426.667c70.694 0 128 57.306 128 128v426.667c0 70.692-57.306 128-128 128h-426.667zM298.667 448c0-23.565 19.103-42.667 42.667-42.667h341.333c23.565 0 42.667 19.102 42.667 42.667s-19.102 42.667-42.667 42.667h-341.333c-23.564 0-42.667-19.102-42.667-42.667zM542.17 648.837c16.661-16.663 16.661-43.677 0-60.34l-140.497-140.497 140.497-140.497c16.661-16.661 16.661-43.678 0-60.339s-43.678-16.661-60.339 0l-170.667 170.667c-16.662 16.661-16.662 43.678 0 60.339l170.667 170.667c16.661 16.662 43.678 16.662 60.339 0z" />
<glyph unicode="&#xe911;" glyph-name="Arrow_Right" d="M567.164 776.837c16.661 16.662 43.678 16.662 60.339 0l298.667-298.667c16.661-16.661 16.661-43.678 0-60.339l-298.667-298.667c-16.661-16.661-43.678-16.661-60.339 0s-16.661 43.678 0 60.339l225.83 225.83h-664.994c-23.564 0-42.667 19.102-42.667 42.667s19.103 42.667 42.667 42.667h664.994l-225.83 225.83c-16.661 16.663-16.661 43.677 0 60.34z" />
<glyph unicode="&#xe912;" glyph-name="Arrow_Right_circle" d="M85.333 448c0 235.642 191.025 426.667 426.667 426.667 235.639 0 426.667-191.025 426.667-426.667 0-235.639-191.027-426.667-426.667-426.667-235.642 0-426.667 191.027-426.667 426.667zM512 789.333c-188.513 0-341.333-152.82-341.333-341.333s152.82-341.333 341.333-341.333c188.514 0 341.333 152.819 341.333 341.333s-152.819 341.333-341.333 341.333zM481.83 648.837c16.661 16.662 43.678 16.662 60.339 0l170.667-170.667c8-8 12.497-18.854 12.497-30.17s-4.497-22.17-12.497-30.17l-170.667-170.667c-16.661-16.661-43.678-16.661-60.339 0s-16.661 43.678 0 60.339l97.83 97.83h-238.327c-23.564 0-42.667 19.102-42.667 42.667s19.103 42.667 42.667 42.667h238.327l-97.83 97.83c-16.661 16.663-16.661 43.677 0 60.34z" />
<glyph unicode="&#xe913;" glyph-name="Arrow_Right_rectangle" d="M85.333 661.333c0 117.821 95.513 213.333 213.333 213.333h426.667c117.82 0 213.333-95.513 213.333-213.333v-426.667c0-117.82-95.514-213.333-213.333-213.333h-426.667c-117.821 0-213.333 95.514-213.333 213.333v426.667zM298.667 789.333c-70.692 0-128-57.308-128-128v-426.667c0-70.694 57.308-128 128-128h426.667c70.694 0 128 57.306 128 128v426.667c0 70.692-57.306 128-128 128h-426.667zM481.83 648.837c16.661 16.662 43.678 16.662 60.339 0l170.667-170.667c8-8 12.497-18.854 12.497-30.17s-4.497-22.17-12.497-30.17l-170.667-170.667c-16.661-16.661-43.678-16.661-60.339 0s-16.661 43.678 0 60.339l97.83 97.83h-238.327c-23.564 0-42.667 19.102-42.667 42.667s19.103 42.667 42.667 42.667h238.327l-97.83 97.83c-16.661 16.663-16.661 43.677 0 60.34z" />
<glyph unicode="&#xe914;" glyph-name="Arrow_Up_circle" d="M85.333 448c0 235.642 191.025 426.667 426.667 426.667 235.639 0 426.667-191.025 426.667-426.667 0-235.639-191.027-426.667-426.667-426.667-235.642 0-426.667 191.027-426.667 426.667zM512 789.333c-188.513 0-341.333-152.82-341.333-341.333s152.82-341.333 341.333-341.333c188.514 0 341.333 152.819 341.333 341.333s-152.819 341.333-341.333 341.333zM512 661.333c11.315 0 22.17-4.495 30.17-12.497l170.667-170.667c16.661-16.661 16.661-43.678 0-60.339s-43.678-16.661-60.339 0l-97.83 97.83v-238.327c0-23.565-19.102-42.667-42.667-42.667s-42.667 19.102-42.667 42.667v238.327l-97.83-97.83c-16.663-16.661-43.677-16.661-60.34 0s-16.662 43.678 0 60.339l170.667 170.667c8 8.001 18.854 12.497 30.17 12.497z" />
<glyph unicode="&#xe915;" glyph-name="Arrow_Up_rectangle" d="M85.333 661.333c0 117.821 95.513 213.333 213.333 213.333h426.667c117.82 0 213.333-95.513 213.333-213.333v-426.667c0-117.82-95.514-213.333-213.333-213.333h-426.667c-117.821 0-213.333 95.514-213.333 213.333v426.667zM298.667 789.333c-70.692 0-128-57.308-128-128v-426.667c0-70.694 57.308-128 128-128h426.667c70.694 0 128 57.306 128 128v426.667c0 70.692-57.306 128-128 128h-426.667zM512 661.333c11.315 0 22.17-4.495 30.17-12.497l170.667-170.667c16.661-16.661 16.661-43.678 0-60.339s-43.678-16.661-60.339 0l-97.83 97.83v-238.327c0-23.565-19.102-42.667-42.667-42.667s-42.667 19.102-42.667 42.667v238.327l-97.83-97.83c-16.663-16.661-43.677-16.661-60.34 0s-16.662 43.678 0 60.339l170.667 170.667c8 8.001 18.854 12.497 30.17 12.497z" />
<glyph unicode="&#xe916;" glyph-name="Bag" d="M106.633 509.197c-14.688 102.816 65.092 194.803 168.951 194.803h472.828c103.859 0 183.642-91.987 168.951-194.803l-43.529-304.7c-15.014-105.101-105.024-183.164-211.187-183.164h-301.297c-106.166 0-196.175 78.063-211.189 183.164l-43.529 304.7zM275.584 618.667c-51.93 0-91.82-45.994-84.476-97.399l43.529-304.704c9.008-63.057 63.014-109.897 126.714-109.897h301.297c63.697 0 117.705 46.839 126.711 109.897l43.529 304.704c7.347 51.406-32.546 97.399-84.476 97.399h-472.828zM403.079 870.164c21.076-10.538 29.621-36.167 19.081-57.243l-76.325-152.649c-10.538-21.076-36.167-29.619-57.243-19.081s-29.619 36.167-19.081 57.243l76.324 152.649c10.538 21.076 36.167 29.619 57.243 19.081zM620.924 870.164c21.077 10.538 46.703 1.995 57.242-19.081l76.326-152.649c10.539-21.076 1.993-46.705-19.081-57.243-21.077-10.538-46.707-1.996-57.246 19.081l-76.322 152.649c-10.539 21.076-1.997 46.705 19.081 57.243z" />
<glyph unicode="&#xe917;" glyph-name="Bag_check" d="M106.633 509.197c-14.688 102.816 65.092 194.803 168.951 194.803h472.828c103.859 0 183.642-91.987 168.951-194.803l-43.529-304.7c-15.014-105.101-105.024-183.164-211.187-183.164h-301.297c-106.166 0-196.175 78.063-211.189 183.164l-43.529 304.7zM275.584 618.667c-51.93 0-91.82-45.994-84.476-97.399l43.529-304.704c9.008-63.057 63.014-109.897 126.714-109.897h301.297c63.697 0 117.705 46.839 126.711 109.897l43.529 304.704c7.347 51.406-32.546 97.399-84.476 97.399h-472.828zM403.079 870.164c21.076-10.538 29.621-36.167 19.081-57.243l-76.325-152.649c-10.538-21.076-36.167-29.619-57.243-19.081s-29.619 36.167-19.081 57.243l76.324 152.649c10.538 21.076 36.167 29.619 57.243 19.081zM620.924 870.164c21.077 10.538 46.703 1.995 57.242-19.081l76.326-152.649c10.539-21.076 1.993-46.705-19.081-57.243-21.077-10.538-46.707-1.996-57.246 19.081l-76.322 152.649c-10.539 21.076-1.997 46.705 19.081 57.243zM669.184 479.125c17.19-16.115 18.061-43.115 1.946-60.305l-160-170.667c-15.287-16.307-40.563-18.052-57.946-4.006l-96 77.577c-18.328 14.81-21.179 41.673-6.369 60.002s41.675 21.18 60.003 6.37l65.167-52.663 132.89 141.747c16.115 17.195 43.119 18.065 60.309 1.946z" />
<glyph unicode="&#xe918;" glyph-name="Bag_delete" d="M106.633 509.197c-14.688 102.816 65.092 194.803 168.951 194.803h472.828c103.859 0 183.642-91.987 168.951-194.803l-43.529-304.7c-15.014-105.101-105.024-183.164-211.187-183.164h-301.297c-106.166 0-196.175 78.063-211.189 183.164l-43.529 304.7zM275.584 618.667c-51.93 0-91.82-45.994-84.476-97.399l43.529-304.704c9.008-63.057 63.014-109.897 126.714-109.897h301.297c63.697 0 117.705 46.839 126.711 109.897l43.529 304.704c7.347 51.406-32.546 97.399-84.476 97.399h-472.828zM403.079 870.164c21.076-10.538 29.621-36.167 19.081-57.243l-76.325-152.649c-10.538-21.076-36.167-29.619-57.243-19.081s-29.619 36.167-19.081 57.243l76.324 152.649c10.538 21.076 36.167 29.619 57.243 19.081zM620.924 870.164c21.077 10.538 46.703 1.995 57.242-19.081l76.326-152.649c10.539-21.076 1.993-46.705-19.081-57.243-21.077-10.538-46.707-1.996-57.246 19.081l-76.322 152.649c-10.539 21.076-1.997 46.705 19.081 57.243zM375.163 478.17c16.663 16.661 43.677 16.661 60.34 0l76.497-76.497 76.497 76.497c16.661 16.661 43.678 16.661 60.339 0s16.661-43.678 0-60.339l-76.497-76.497 76.497-76.497c16.661-16.661 16.661-43.678 0-60.339s-43.678-16.661-60.339 0l-76.497 76.497-76.497-76.497c-16.662-16.661-43.677-16.661-60.34 0s-16.662 43.678 0 60.339l76.497 76.497-76.497 76.497c-16.662 16.661-16.662 43.678 0 60.339z" />
<glyph unicode="&#xe919;" glyph-name="Bag_minus" d="M106.633 509.197c-14.688 102.816 65.092 194.803 168.951 194.803h472.828c103.859 0 183.642-91.987 168.951-194.803l-43.529-304.7c-15.014-105.101-105.024-183.164-211.187-183.164h-301.297c-106.166 0-196.175 78.063-211.189 183.164l-43.529 304.7zM275.584 618.667c-51.93 0-91.82-45.994-84.476-97.399l43.529-304.704c9.008-63.057 63.014-109.897 126.714-109.897h301.297c63.697 0 117.705 46.839 126.711 109.897l43.529 304.704c7.347 51.406-32.546 97.399-84.476 97.399h-472.828zM403.079 870.164c21.076-10.538 29.621-36.167 19.081-57.243l-76.325-152.649c-10.538-21.076-36.167-29.619-57.243-19.081s-29.619 36.167-19.081 57.243l76.324 152.649c10.538 21.076 36.167 29.619 57.243 19.081zM620.924 870.164c21.077 10.538 46.703 1.995 57.242-19.081l76.326-152.649c10.539-21.076 1.993-46.705-19.081-57.243-21.077-10.538-46.707-1.996-57.246 19.081l-76.322 152.649c-10.539 21.076-1.997 46.705 19.081 57.243zM341.333 362.667c0 23.565 19.103 42.667 42.667 42.667h256c23.565 0 42.667-19.102 42.667-42.667s-19.102-42.667-42.667-42.667h-256c-23.564 0-42.667 19.102-42.667 42.667z" />
<glyph unicode="&#xe91a;" glyph-name="Bag_new" d="M106.633 509.197c-14.688 102.816 65.092 194.803 168.951 194.803h472.828c103.859 0 183.642-91.987 168.951-194.803l-12.395-86.763c-3.332-23.326-24.943-39.535-48.269-36.203-23.33 3.332-39.539 24.943-36.207 48.273l12.395 86.763c7.347 51.406-32.546 97.399-84.476 97.399h-472.828c-51.93 0-91.82-45.994-84.476-97.399l43.529-304.704c9.008-63.057 63.014-109.897 126.714-109.897h65.313c23.563 0 42.665-19.102 42.665-42.667s-19.102-42.667-42.665-42.667h-65.313c-106.166 0-196.175 78.063-211.189 183.164l-43.529 304.7zM403.079 870.164c21.076-10.538 29.621-36.167 19.081-57.243l-76.325-152.649c-10.538-21.076-36.167-29.619-57.243-19.081s-29.619 36.167-19.081 57.243l76.324 152.649c10.538 21.076 36.167 29.619 57.243 19.081zM620.924 870.164c21.077 10.538 46.703 1.995 57.242-19.081l76.326-152.649c10.539-21.076 1.993-46.705-19.081-57.243-21.077-10.538-46.707-1.996-57.246 19.081l-76.322 152.649c-10.539 21.076-1.997 46.705 19.081 57.243zM682.667 277.333c-47.13 0-85.333-38.204-85.333-85.333s38.204-85.333 85.333-85.333c47.13 0 85.333 38.204 85.333 85.333s-38.204 85.333-85.333 85.333zM512 192c0 94.255 76.412 170.667 170.667 170.667s170.667-76.412 170.667-170.667c0-94.255-76.412-170.667-170.667-170.667s-170.667 76.412-170.667 170.667z" />
<glyph unicode="&#xe91b;" glyph-name="Bag_plus" d="M106.633 509.197c-14.688 102.816 65.092 194.803 168.951 194.803h472.828c103.859 0 183.642-91.987 168.951-194.803l-43.529-304.7c-15.014-105.101-105.024-183.164-211.187-183.164h-301.297c-106.166 0-196.175 78.063-211.189 183.164l-43.529 304.7zM275.584 618.667c-51.93 0-91.82-45.994-84.476-97.399l43.529-304.704c9.008-63.057 63.014-109.897 126.714-109.897h301.297c63.697 0 117.705 46.839 126.711 109.897l43.529 304.704c7.347 51.406-32.546 97.399-84.476 97.399h-472.828zM403.079 870.164c21.076-10.538 29.621-36.167 19.081-57.243l-76.325-152.649c-10.538-21.076-36.167-29.619-57.243-19.081s-29.619 36.167-19.081 57.243l76.324 152.649c10.538 21.076 36.167 29.619 57.243 19.081zM620.924 870.164c21.077 10.538 46.703 1.995 57.242-19.081l76.326-152.649c10.539-21.076 1.993-46.705-19.081-57.243-21.077-10.538-46.707-1.996-57.246 19.081l-76.322 152.649c-10.539 21.076-1.997 46.705 19.081 57.243zM512 533.333c23.565 0 42.667-19.102 42.667-42.667v-85.333h85.333c23.565 0 42.667-19.102 42.667-42.667s-19.102-42.667-42.667-42.667h-85.333v-85.333c0-23.565-19.102-42.667-42.667-42.667s-42.667 19.102-42.667 42.667v85.333h-85.333c-23.564 0-42.667 19.102-42.667 42.667s19.103 42.667 42.667 42.667h85.333v85.333c0 23.565 19.102 42.667 42.667 42.667z" />
<glyph unicode="&#xe91c;" glyph-name="Bag2" d="M106.633 509.197c-14.688 102.816 65.092 194.803 168.951 194.803h472.828c103.859 0 183.642-91.987 168.951-194.803l-43.529-304.7c-15.014-105.101-105.024-183.164-211.187-183.164h-301.297c-106.166 0-196.175 78.063-211.189 183.164l-43.529 304.7zM275.584 618.667c-51.93 0-91.82-45.994-84.476-97.399l43.529-304.704c9.008-63.057 63.014-109.897 126.714-109.897h301.297c63.697 0 117.705 46.839 126.711 109.897l43.529 304.704c7.347 51.406-32.546 97.399-84.476 97.399h-472.828zM298.672 756.752c36.139 72.278 110.004 117.915 190.804 117.915h45.047c80.802 0 154.675-45.655 190.81-117.929l38.161-76.323c10.539-21.076 1.997-46.705-19.081-57.243s-46.707-1.995-57.246 19.081l-38.161 76.323c-21.679 43.365-66.001 70.758-114.483 70.758h-45.047c-48.486 0-92.8-27.383-114.48-70.743l-38.169-76.337c-10.538-21.076-36.167-29.62-57.243-19.081s-29.619 36.167-19.081 57.243l38.169 76.337z" />
<glyph unicode="&#xe91d;" glyph-name="Bag2_check" d="M106.633 509.197c-14.688 102.816 65.092 194.803 168.951 194.803h472.828c103.859 0 183.642-91.987 168.951-194.803l-43.529-304.7c-15.014-105.101-105.024-183.164-211.187-183.164h-301.297c-106.166 0-196.175 78.063-211.189 183.164l-43.529 304.7zM275.584 618.667c-51.93 0-91.82-45.994-84.476-97.399l43.529-304.704c9.008-63.057 63.014-109.897 126.714-109.897h301.297c63.697 0 117.705 46.839 126.711 109.897l43.529 304.704c7.347 51.406-32.546 97.399-84.476 97.399h-472.828zM298.672 756.752c36.139 72.278 110.004 117.915 190.804 117.915h45.047c80.802 0 154.675-45.655 190.81-117.929l38.161-76.323c10.539-21.076 1.997-46.705-19.081-57.243s-46.707-1.995-57.246 19.081l-38.161 76.323c-21.679 43.365-66.001 70.758-114.483 70.758h-45.047c-48.486 0-92.8-27.383-114.48-70.743l-38.169-76.337c-10.538-21.076-36.167-29.62-57.243-19.081s-29.619 36.167-19.081 57.243l38.169 76.337zM669.184 479.125c17.19-16.115 18.061-43.115 1.946-60.305l-160-170.667c-15.287-16.307-40.563-18.052-57.946-4.006l-96 77.577c-18.328 14.81-21.179 41.673-6.369 60.002s41.675 21.18 60.003 6.37l65.167-52.663 132.89 141.747c16.115 17.195 43.119 18.065 60.309 1.946z" />
<glyph unicode="&#xe91e;" glyph-name="Bag2_delete" d="M106.633 509.197c-14.688 102.816 65.092 194.803 168.951 194.803h472.828c103.859 0 183.642-91.987 168.951-194.803l-43.529-304.7c-15.014-105.101-105.024-183.164-211.187-183.164h-301.297c-106.166 0-196.175 78.063-211.189 183.164l-43.529 304.7zM275.584 618.667c-51.93 0-91.82-45.994-84.476-97.399l43.529-304.704c9.008-63.057 63.014-109.897 126.714-109.897h301.297c63.697 0 117.705 46.839 126.711 109.897l43.529 304.704c7.347 51.406-32.546 97.399-84.476 97.399h-472.828zM298.672 756.752c36.139 72.278 110.004 117.915 190.804 117.915h45.047c80.802 0 154.675-45.655 190.81-117.929l38.161-76.323c10.539-21.076 1.997-46.705-19.081-57.243s-46.707-1.995-57.246 19.081l-38.161 76.323c-21.679 43.365-66.001 70.758-114.483 70.758h-45.047c-48.486 0-92.8-27.383-114.48-70.743l-38.169-76.337c-10.538-21.076-36.167-29.62-57.243-19.081s-29.619 36.167-19.081 57.243l38.169 76.337zM375.163 478.17c16.663 16.661 43.677 16.661 60.34 0l76.497-76.497 76.497 76.497c16.661 16.661 43.678 16.661 60.339 0s16.661-43.678 0-60.339l-76.497-76.497 76.497-76.497c16.661-16.661 16.661-43.678 0-60.339s-43.678-16.661-60.339 0l-76.497 76.497-76.497-76.497c-16.662-16.661-43.677-16.661-60.34 0s-16.662 43.678 0 60.339l76.497 76.497-76.497 76.497c-16.662 16.661-16.662 43.678 0 60.339z" />
<glyph unicode="&#xe91f;" glyph-name="Bag2_minus" d="M106.633 509.197c-14.688 102.816 65.092 194.803 168.951 194.803h472.828c103.859 0 183.642-91.987 168.951-194.803l-43.529-304.7c-15.014-105.101-105.024-183.164-211.187-183.164h-301.297c-106.166 0-196.175 78.063-211.189 183.164l-43.529 304.7zM275.584 618.667c-51.93 0-91.82-45.994-84.476-97.399l43.529-304.704c9.008-63.057 63.014-109.897 126.714-109.897h301.297c63.697 0 117.705 46.839 126.711 109.897l43.529 304.704c7.347 51.406-32.546 97.399-84.476 97.399h-472.828zM341.333 362.667c0 23.565 19.103 42.667 42.667 42.667h256c23.565 0 42.667-19.102 42.667-42.667s-19.102-42.667-42.667-42.667h-256c-23.564 0-42.667 19.102-42.667 42.667zM298.672 756.752c36.139 72.278 110.004 117.915 190.804 117.915h45.047c80.802 0 154.675-45.655 190.81-117.929l38.161-76.323c10.539-21.076 1.997-46.705-19.081-57.243s-46.707-1.995-57.246 19.081l-38.161 76.323c-21.679 43.365-66.001 70.758-114.483 70.758h-45.047c-48.486 0-92.8-27.383-114.48-70.743l-38.169-76.337c-10.538-21.076-36.167-29.62-57.243-19.081s-29.619 36.167-19.081 57.243l38.169 76.337z" />
<glyph unicode="&#xe920;" glyph-name="Bag2_new" d="M298.672 756.752c36.139 72.278 110.004 117.915 190.804 117.915h45.047c80.802 0 154.675-45.655 190.81-117.929l38.161-76.323c10.539-21.076 1.997-46.705-19.081-57.243s-46.707-1.995-57.246 19.081l-38.161 76.323c-21.679 43.365-66.001 70.758-114.483 70.758h-45.047c-48.486 0-92.8-27.383-114.48-70.743l-38.169-76.337c-10.538-21.076-36.167-29.62-57.243-19.081s-29.619 36.167-19.081 57.243l38.169 76.337zM106.633 509.197c-14.688 102.816 65.092 194.803 168.951 194.803h472.828c103.859 0 183.642-91.987 168.951-194.803l-12.395-86.763c-3.332-23.326-24.943-39.535-48.269-36.203-23.33 3.332-39.539 24.943-36.207 48.273l12.395 86.763c7.347 51.406-32.546 97.399-84.476 97.399h-472.828c-51.93 0-91.82-45.994-84.476-97.399l43.529-304.704c9.008-63.057 63.014-109.897 126.714-109.897h65.313c23.563 0 42.665-19.102 42.665-42.667s-19.102-42.667-42.665-42.667h-65.313c-106.166 0-196.175 78.063-211.189 183.164l-43.529 304.7zM682.667 277.333c-47.13 0-85.333-38.204-85.333-85.333s38.204-85.333 85.333-85.333c47.13 0 85.333 38.204 85.333 85.333s-38.204 85.333-85.333 85.333zM512 192c0 94.255 76.412 170.667 170.667 170.667s170.667-76.412 170.667-170.667c0-94.255-76.412-170.667-170.667-170.667s-170.667 76.412-170.667 170.667z" />
<glyph unicode="&#xe921;" glyph-name="Bag2_plus" d="M106.633 509.197c-14.688 102.816 65.092 194.803 168.951 194.803h472.828c103.859 0 183.642-91.987 168.951-194.803l-43.529-304.7c-15.014-105.101-105.024-183.164-211.187-183.164h-301.297c-106.166 0-196.175 78.063-211.189 183.164l-43.529 304.7zM275.584 618.667c-51.93 0-91.82-45.994-84.476-97.399l43.529-304.704c9.008-63.057 63.014-109.897 126.714-109.897h301.297c63.697 0 117.705 46.839 126.711 109.897l43.529 304.704c7.347 51.406-32.546 97.399-84.476 97.399h-472.828zM298.672 756.752c36.139 72.278 110.004 117.915 190.804 117.915h45.047c80.802 0 154.675-45.655 190.81-117.929l38.161-76.323c10.539-21.076 1.997-46.705-19.081-57.243s-46.707-1.995-57.246 19.081l-38.161 76.323c-21.679 43.365-66.001 70.758-114.483 70.758h-45.047c-48.486 0-92.8-27.383-114.48-70.743l-38.169-76.337c-10.538-21.076-36.167-29.62-57.243-19.081s-29.619 36.167-19.081 57.243l38.169 76.337zM512 533.333c23.565 0 42.667-19.102 42.667-42.667v-85.333h85.333c23.565 0 42.667-19.102 42.667-42.667s-19.102-42.667-42.667-42.667h-85.333v-85.333c0-23.565-19.102-42.667-42.667-42.667s-42.667 19.102-42.667 42.667v85.333h-85.333c-23.564 0-42.667 19.102-42.667 42.667s19.103 42.667 42.667 42.667h85.333v85.333c0 23.565 19.102 42.667 42.667 42.667z" />
<glyph unicode="&#xe922;" glyph-name="Bar-chart" d="M85.333 661.333c0 117.821 95.513 213.333 213.333 213.333h426.667c117.82 0 213.333-95.513 213.333-213.333v-426.667c0-117.82-95.514-213.333-213.333-213.333h-426.667c-117.821 0-213.333 95.514-213.333 213.333v426.667zM298.667 789.333c-70.692 0-128-57.308-128-128v-426.667c0-70.694 57.308-128 128-128h426.667c70.694 0 128 57.306 128 128v426.667c0 70.692-57.306 128-128 128h-426.667zM341.333 533.333c23.564 0 42.667-19.102 42.667-42.667v-213.333c0-23.565-19.103-42.667-42.667-42.667s-42.667 19.102-42.667 42.667v213.333c0 23.565 19.103 42.667 42.667 42.667zM682.667 448c23.565 0 42.667-19.102 42.667-42.667v-128c0-23.565-19.102-42.667-42.667-42.667s-42.667 19.102-42.667 42.667v128c0 23.565 19.102 42.667 42.667 42.667zM512 661.333c23.565 0 42.667-19.103 42.667-42.667v-341.333c0-23.565-19.102-42.667-42.667-42.667s-42.667 19.102-42.667 42.667v341.333c0 23.564 19.102 42.667 42.667 42.667z" />
<glyph unicode="&#xe923;" glyph-name="Bar-chart_down" d="M85.333 661.333c0 117.821 95.513 213.333 213.333 213.333h426.667c117.82 0 213.333-95.513 213.333-213.333v-426.667c0-117.82-95.514-213.333-213.333-213.333h-426.667c-117.821 0-213.333 95.514-213.333 213.333v426.667zM298.667 789.333c-70.692 0-128-57.308-128-128v-426.667c0-70.694 57.308-128 128-128h426.667c70.694 0 128 57.306 128 128v426.667c0 70.692-57.306 128-128 128h-426.667zM682.667 405.333c23.565 0 42.667-19.102 42.667-42.667v-85.333c0-23.565-19.102-42.667-42.667-42.667s-42.667 19.102-42.667 42.667v85.333c0 23.565 19.102 42.667 42.667 42.667zM341.333 661.333c23.564 0 42.667-19.103 42.667-42.667v-341.333c0-23.565-19.103-42.667-42.667-42.667s-42.667 19.102-42.667 42.667v341.333c0 23.564 19.103 42.667 42.667 42.667zM512 533.333c23.565 0 42.667-19.102 42.667-42.667v-213.333c0-23.565-19.102-42.667-42.667-42.667s-42.667 19.102-42.667 42.667v213.333c0 23.565 19.102 42.667 42.667 42.667z" />
<glyph unicode="&#xe924;" glyph-name="Bar-chart_up" d="M85.333 661.333c0 117.821 95.513 213.333 213.333 213.333h426.667c117.82 0 213.333-95.513 213.333-213.333v-426.667c0-117.82-95.514-213.333-213.333-213.333h-426.667c-117.821 0-213.333 95.514-213.333 213.333v426.667zM298.667 789.333c-70.692 0-128-57.308-128-128v-426.667c0-70.694 57.308-128 128-128h426.667c70.694 0 128 57.306 128 128v426.667c0 70.692-57.306 128-128 128h-426.667zM341.333 405.333c23.564 0 42.667-19.102 42.667-42.667v-85.333c0-23.565-19.103-42.667-42.667-42.667s-42.667 19.102-42.667 42.667v85.333c0 23.565 19.103 42.667 42.667 42.667zM682.667 661.333c23.565 0 42.667-19.103 42.667-42.667v-341.333c0-23.565-19.102-42.667-42.667-42.667s-42.667 19.102-42.667 42.667v341.333c0 23.564 19.102 42.667 42.667 42.667zM512 533.333c23.565 0 42.667-19.102 42.667-42.667v-213.333c0-23.565-19.102-42.667-42.667-42.667s-42.667 19.102-42.667 42.667v213.333c0 23.565 19.102 42.667 42.667 42.667z" />
<glyph unicode="&#xe925;" glyph-name="bell" d="M373.409 733.883c-29.591-33.736-46.298-82.647-46.298-140.817v-73.954c0-36.719-16.524-67.221-34.042-90.462-16.020-21.257-35.971-40.341-51.637-55.326-1.315-1.259-2.601-2.487-3.851-3.686-14.656-14.063-24.248-33.152-24.248-55.326 0-22.409 16.795-36.979 33.185-36.979h530.962c16.393 0 33.186 14.571 33.186 36.979 0 22.174-9.591 41.263-24.247 55.326-1.25 1.199-2.534 2.428-3.853 3.686-15.667 14.985-35.618 34.069-51.635 55.326-17.519 23.241-34.044 53.743-34.044 90.462v73.954c0 58.17-16.708 107.081-46.298 140.816-28.881 32.93-73.519 55.45-138.59 55.45s-109.707-22.52-138.591-55.45zM309.257 790.153c46.968 53.547 116.108 84.514 202.743 84.514s155.776-30.967 202.743-84.514c46.259-52.742 67.477-123.297 67.477-197.086v-73.954c0-10.415 4.672-22.938 16.853-39.104 11.678-15.492 26.837-30.020 43.584-46.071 0.939-0.905 1.886-1.809 2.837-2.722 29.171-27.989 50.505-68.531 50.505-116.902 0-65.566-51.123-122.313-118.519-122.313h-530.962c-67.394 0-118.519 56.747-118.519 122.313 0 48.371 21.332 88.913 50.505 116.902 0.951 0.913 1.897 1.818 2.837 2.722 16.746 16.051 31.904 30.579 43.581 46.071 12.181 16.166 16.854 28.689 16.854 39.104v73.954c0 73.789 21.218 144.345 67.479 197.086zM402.907 142.106c19.571 13.124 46.074 7.898 59.199-11.674 4.241-6.323 10.829-12.288 19.686-16.704 8.87-4.416 19.307-6.908 30.212-6.908s21.342 2.492 30.212 6.908c8.858 4.416 15.445 10.381 19.686 16.704 13.124 19.571 39.629 24.798 59.2 11.674 19.571-13.129 24.794-39.633 11.669-59.204-13.103-19.537-31.407-35.042-52.501-45.551-21.086-10.505-44.604-15.863-68.267-15.863s-47.181 5.359-68.267 15.863c-21.093 10.509-39.399 26.014-52.503 45.551-13.125 19.571-7.899 46.076 11.672 59.204z" />
<glyph unicode="&#xe926;" glyph-name="bell-off" d="M512 789.333c-44.425 0-79.002-10.543-105.303-27.066-19.953-12.535-46.291-6.521-58.826 13.432s-6.522 46.29 13.432 58.825c41.642 26.16 92.397 40.142 150.697 40.142 86.635 0 155.776-30.967 202.743-84.514 46.259-52.742 67.477-123.297 67.477-197.086v-73.954c0-10.415 4.672-22.938 16.853-39.104 11.678-15.492 26.837-30.020 43.584-46.076 0.939-0.9 1.886-1.805 2.837-2.718 29.171-27.989 50.505-68.531 50.505-116.902 0-23.565-19.102-42.667-42.667-42.667s-42.667 19.102-42.667 42.667c0 22.174-9.591 41.263-24.247 55.326-1.25 1.199-2.534 2.428-3.853 3.686-15.667 14.985-35.618 34.069-51.635 55.326-17.519 23.241-34.044 53.743-34.044 90.462v73.954c0 58.17-16.708 107.081-46.298 140.816-28.881 32.93-73.519 55.45-138.59 55.45zM294.069 682.206c23.31-3.453 39.407-25.149 35.953-48.458-1.926-13.002-2.912-26.602-2.912-40.681v-73.954c0-36.719-16.524-67.221-34.042-90.462-16.020-21.257-35.97-40.341-51.636-55.326-1.316-1.259-2.601-2.487-3.852-3.686-14.656-14.063-24.248-33.152-24.248-55.326 0-22.409 16.795-36.979 33.185-36.979h457.481c23.565 0 42.667-19.102 42.667-42.667s-19.102-42.667-42.667-42.667h-457.481c-67.394 0-118.519 56.747-118.519 122.313 0 48.371 21.332 88.913 50.505 116.902 0.951 0.913 1.897 1.818 2.837 2.718 16.746 16.055 31.904 30.583 43.581 46.076 12.181 16.166 16.854 28.689 16.854 39.104v73.954c0 18.049 1.263 35.836 3.833 53.186 3.453 23.31 25.149 39.407 48.459 35.953zM402.907 142.106c19.571 13.124 46.074 7.898 59.199-11.674 4.241-6.323 10.829-12.288 19.686-16.704 8.87-4.416 19.307-6.908 30.212-6.908s21.342 2.492 30.212 6.908c8.858 4.416 15.445 10.381 19.686 16.704 13.124 19.571 39.629 24.798 59.2 11.674 19.571-13.129 24.794-39.633 11.669-59.204-13.103-19.537-31.407-35.042-52.501-45.551-21.086-10.505-44.604-15.863-68.267-15.863s-47.181 5.359-68.267 15.863c-21.093 10.509-39.399 26.014-52.503 45.551-13.125 19.571-7.899 46.076 11.672 59.204zM97.83 862.17c16.663 16.662 43.677 16.662 60.34 0l768-768c16.661-16.661 16.661-43.678 0-60.339s-43.678-16.661-60.339 0l-768 768c-16.662 16.663-16.662 43.677 0 60.34z" />
<glyph unicode="&#xe927;" glyph-name="bookmark" d="M170.667 704c0 94.257 76.41 170.667 170.667 170.667h341.333c94.255 0 170.667-76.41 170.667-170.667v-599.757c0-69.41-78.451-109.781-134.933-69.44l-206.4 147.43-206.401-147.43c-56.48-40.341-134.932 0.030-134.932 69.44v599.757zM341.333 789.333c-47.128 0-85.333-38.205-85.333-85.333v-599.757l206.4 147.43c29.67 21.193 69.53 21.193 99.2 0l206.4-147.43v599.757c0 47.128-38.204 85.333-85.333 85.333h-341.333z" />
<glyph unicode="&#xe928;" glyph-name="Calendar" d="M85.333 618.667c0 117.821 95.513 213.333 213.333 213.333h426.667c117.82 0 213.333-95.513 213.333-213.333v-384c0-117.82-95.514-213.333-213.333-213.333h-426.667c-117.821 0-213.333 95.514-213.333 213.333v384zM298.667 746.667c-70.692 0-128-57.308-128-128v-384c0-70.694 57.308-128 128-128h426.667c70.694 0 128 57.306 128 128v384c0 70.692-57.306 128-128 128h-426.667zM341.333 874.667c23.564 0 42.667-19.103 42.667-42.667v-128c0-23.564-19.103-42.667-42.667-42.667s-42.667 19.103-42.667 42.667v128c0 23.564 19.103 42.667 42.667 42.667zM256 533.333c0 23.564 19.103 42.667 42.667 42.667h426.667c23.565 0 42.667-19.103 42.667-42.667s-19.102-42.667-42.667-42.667h-426.667c-23.564 0-42.667 19.102-42.667 42.667zM640 234.667c0 23.565 19.102 42.667 42.667 42.667h42.667c23.565 0 42.667-19.102 42.667-42.667s-19.102-42.667-42.667-42.667h-42.667c-23.565 0-42.667 19.102-42.667 42.667zM682.667 874.667c23.565 0 42.667-19.103 42.667-42.667v-128c0-23.564-19.102-42.667-42.667-42.667s-42.667 19.103-42.667 42.667v128c0 23.564 19.102 42.667 42.667 42.667z" />
<glyph unicode="&#xe929;" glyph-name="Calendar_active" d="M85.333 618.667c0 117.821 95.513 213.333 213.333 213.333h426.667c117.82 0 213.333-95.513 213.333-213.333v-170.667c0-23.565-19.102-42.667-42.667-42.667s-42.667 19.102-42.667 42.667v170.667c0 70.692-57.306 128-128 128h-426.667c-70.692 0-128-57.308-128-128v-384c0-70.694 57.308-128 128-128h213.333c23.565 0 42.667-19.102 42.667-42.667s-19.102-42.667-42.667-42.667h-213.333c-117.821 0-213.333 95.514-213.333 213.333v384zM341.333 874.667c23.564 0 42.667-19.103 42.667-42.667v-128c0-23.564-19.103-42.667-42.667-42.667s-42.667 19.103-42.667 42.667v128c0 23.564 19.103 42.667 42.667 42.667zM256 533.333c0 23.564 19.103 42.667 42.667 42.667h426.667c23.565 0 42.667-19.103 42.667-42.667s-19.102-42.667-42.667-42.667h-426.667c-23.564 0-42.667 19.102-42.667 42.667zM682.667 874.667c23.565 0 42.667-19.103 42.667-42.667v-128c0-23.564-19.102-42.667-42.667-42.667s-42.667 19.103-42.667 42.667v128c0 23.564 19.102 42.667 42.667 42.667zM768 277.333c-47.13 0-85.333-38.204-85.333-85.333s38.204-85.333 85.333-85.333c47.13 0 85.333 38.204 85.333 85.333s-38.204 85.333-85.333 85.333zM597.333 192c0 94.255 76.412 170.667 170.667 170.667s170.667-76.412 170.667-170.667c0-94.255-76.412-170.667-170.667-170.667s-170.667 76.412-170.667 170.667z" />
<glyph unicode="&#xe92a;" glyph-name="Calendar_check" d="M341.333 874.667c23.564 0 42.667-19.103 42.667-42.667h341.333c117.82 0 213.333-95.513 213.333-213.333v-384c0-117.82-95.514-213.333-213.333-213.333h-426.667c-117.821 0-213.333 95.514-213.333 213.333v384c0 117.821 95.513 213.333 213.333 213.333 0 23.564 19.103 42.667 42.667 42.667zM298.667 746.667c-70.692 0-128-57.308-128-128v-384c0-70.694 57.308-128 128-128h426.667c70.694 0 128 57.306 128 128v384c0 70.692-57.306 128-128 128h-341.333v-42.667c0-23.564-19.103-42.667-42.667-42.667s-42.667 19.103-42.667 42.667v42.667zM682.667 874.667c23.565 0 42.667-19.103 42.667-42.667v-128c0-23.564-19.102-42.667-42.667-42.667s-42.667 19.103-42.667 42.667v128c0 23.564 19.102 42.667 42.667 42.667zM669.184 521.792c17.19-16.115 18.061-43.115 1.946-60.305l-160-170.667c-15.287-16.307-40.563-18.052-57.946-4.006l-96 77.577c-18.328 14.81-21.179 41.673-6.369 60.002s41.675 21.18 60.003 6.37l65.167-52.663 132.89 141.747c16.115 17.193 43.119 18.063 60.309 1.946z" />
<glyph unicode="&#xe92b;" glyph-name="Calendar_minus" d="M85.333 618.667c0 117.821 95.513 213.333 213.333 213.333h426.667c117.82 0 213.333-95.513 213.333-213.333v-384c0-117.82-95.514-213.333-213.333-213.333h-426.667c-117.821 0-213.333 95.514-213.333 213.333v384zM298.667 746.667c-70.692 0-128-57.308-128-128v-384c0-70.694 57.308-128 128-128h426.667c70.694 0 128 57.306 128 128v384c0 70.692-57.306 128-128 128h-426.667zM341.333 874.667c23.564 0 42.667-19.103 42.667-42.667v-128c0-23.564-19.103-42.667-42.667-42.667s-42.667 19.103-42.667 42.667v128c0 23.564 19.103 42.667 42.667 42.667zM682.667 874.667c23.565 0 42.667-19.103 42.667-42.667v-128c0-23.564-19.102-42.667-42.667-42.667s-42.667 19.103-42.667 42.667v128c0 23.564 19.102 42.667 42.667 42.667zM341.333 405.333c0 23.565 19.103 42.667 42.667 42.667h256c23.565 0 42.667-19.102 42.667-42.667s-19.102-42.667-42.667-42.667h-256c-23.564 0-42.667 19.102-42.667 42.667z" />
<glyph unicode="&#xe92c;" glyph-name="Calendar_plus" d="M85.333 618.667c0 117.821 95.513 213.333 213.333 213.333h426.667c117.82 0 213.333-95.513 213.333-213.333v-384c0-117.82-95.514-213.333-213.333-213.333h-426.667c-117.821 0-213.333 95.514-213.333 213.333v384zM298.667 746.667c-70.692 0-128-57.308-128-128v-384c0-70.694 57.308-128 128-128h426.667c70.694 0 128 57.306 128 128v384c0 70.692-57.306 128-128 128h-426.667zM341.333 874.667c23.564 0 42.667-19.103 42.667-42.667v-128c0-23.564-19.103-42.667-42.667-42.667s-42.667 19.103-42.667 42.667v128c0 23.564 19.103 42.667 42.667 42.667zM682.667 874.667c23.565 0 42.667-19.103 42.667-42.667v-128c0-23.564-19.102-42.667-42.667-42.667s-42.667 19.103-42.667 42.667v128c0 23.564 19.102 42.667 42.667 42.667zM512 576c23.565 0 42.667-19.103 42.667-42.667v-85.333h85.333c23.565 0 42.667-19.102 42.667-42.667s-19.102-42.667-42.667-42.667h-85.333v-85.333c0-23.565-19.102-42.667-42.667-42.667s-42.667 19.102-42.667 42.667v85.333h-85.333c-23.564 0-42.667 19.102-42.667 42.667s19.103 42.667 42.667 42.667h85.333v85.333c0 23.564 19.102 42.667 42.667 42.667z" />
<glyph unicode="&#xe92d;" glyph-name="Camera" d="M269.956 752.793c24.261 72.782 92.372 121.873 169.092 121.873h145.903c76.719 0 144.832-49.092 169.092-121.873 2.714-8.147 9.404-14.342 17.737-16.425l34.355-8.589c77.892-19.472 132.531-89.455 132.531-169.74v-323.372c0-117.82-95.514-213.333-213.333-213.333h-426.667c-117.821 0-213.333 95.514-213.333 213.333v323.372c0 80.285 54.641 150.268 132.529 169.74l34.357 8.589c8.332 2.083 15.021 8.278 17.737 16.425zM439.049 789.333c-39.99 0-75.492-25.588-88.138-63.525-11.942-35.826-41.359-63.067-77.995-72.226l-34.356-8.589c-39.901-9.975-67.892-45.826-67.892-86.955v-323.372c0-70.694 57.308-128 128-128h426.667c70.694 0 128 57.306 128 128v323.372c0 41.129-27.994 76.98-67.891 86.955l-34.359 8.589c-36.634 9.159-66.052 36.4-77.995 72.226-12.646 37.936-48.145 63.525-88.137 63.525h-145.903zM512 490.667c-47.13 0-85.333-38.204-85.333-85.333s38.204-85.333 85.333-85.333c47.13 0 85.333 38.204 85.333 85.333s-38.204 85.333-85.333 85.333zM341.333 405.333c0 94.255 76.41 170.667 170.667 170.667 94.255 0 170.667-76.412 170.667-170.667s-76.412-170.667-170.667-170.667c-94.257 0-170.667 76.412-170.667 170.667z" />
<glyph unicode="&#xe92e;" glyph-name="Camera_off" d="M343.064 846.616c27.999 17.897 61.117 28.050 95.984 28.050h145.903c76.719 0 144.832-49.092 169.092-121.873 2.714-8.147 9.404-14.342 17.737-16.425l34.355-8.589c77.892-19.472 132.531-89.455 132.531-169.74v-280.705c0-23.565-19.102-42.667-42.667-42.667s-42.667 19.102-42.667 42.667v280.705c0 41.129-27.994 76.98-67.891 86.955l-34.359 8.589c-36.634 9.159-66.052 36.4-77.995 72.226-12.646 37.936-48.145 63.525-88.137 63.525h-145.903c-18.19 0-35.418-5.279-50.024-14.616-19.855-12.691-46.238-6.885-58.929 12.97s-6.885 46.238 12.969 58.929zM217.862 727.779l34.357 8.589 20.696-82.785-34.356-8.589c-39.901-9.975-67.892-45.826-67.892-86.955v-323.372c0-70.694 57.308-128 128-128h426.667c30.31 0 58.057 10.483 79.979 28.058l53.376-66.581c-36.514-29.274-82.944-46.81-133.355-46.81h-426.667c-117.821 0-213.333 95.514-213.333 213.333v323.372c0 80.285 54.641 150.268 132.529 169.74zM384 448c23.564 0 42.667-19.102 42.667-42.667 0-11.204 2.206-22.302 6.494-32.657 4.292-10.351 10.577-19.759 18.5-27.682s17.331-14.208 27.682-18.5c10.355-4.288 21.453-6.494 32.657-6.494 23.565 0 42.667-19.102 42.667-42.667s-19.102-42.667-42.667-42.667c-22.413 0-44.604 4.416-65.31 12.992-20.708 8.576-39.522 21.146-55.37 36.996-15.848 15.846-28.419 34.662-36.996 55.369s-12.991 42.897-12.991 65.31c0 23.565 19.103 42.667 42.667 42.667zM97.83 862.17c16.663 16.662 43.677 16.662 60.34 0l768-768c16.661-16.661 16.661-43.678 0-60.339s-43.678-16.661-60.339 0l-768 768c-16.662 16.663-16.662 43.677 0 60.34z" />
<glyph unicode="&#xe92f;" glyph-name="Category" d="M85.333 704c0 94.257 76.41 170.667 170.667 170.667h42.667c94.257 0 170.667-76.41 170.667-170.667v-42.667c0-94.257-76.41-170.667-170.667-170.667h-42.667c-94.257 0-170.667 76.41-170.667 170.667v42.667zM256 789.333c-47.128 0-85.333-38.205-85.333-85.333v-42.667c0-47.128 38.205-85.333 85.333-85.333h42.667c47.128 0 85.333 38.205 85.333 85.333v42.667c0 47.128-38.205 85.333-85.333 85.333h-42.667zM554.667 704c0 94.257 76.412 170.667 170.667 170.667h42.667c94.255 0 170.667-76.41 170.667-170.667v-42.667c0-94.257-76.412-170.667-170.667-170.667h-42.667c-94.255 0-170.667 76.41-170.667 170.667v42.667zM725.333 789.333c-47.13 0-85.333-38.205-85.333-85.333v-42.667c0-47.128 38.204-85.333 85.333-85.333h42.667c47.13 0 85.333 38.205 85.333 85.333v42.667c0 47.128-38.204 85.333-85.333 85.333h-42.667zM85.333 234.667c0 94.255 76.41 170.667 170.667 170.667h42.667c94.257 0 170.667-76.412 170.667-170.667v-42.667c0-94.255-76.41-170.667-170.667-170.667h-42.667c-94.257 0-170.667 76.412-170.667 170.667v42.667zM256 320c-47.128 0-85.333-38.204-85.333-85.333v-42.667c0-47.13 38.205-85.333 85.333-85.333h42.667c47.128 0 85.333 38.204 85.333 85.333v42.667c0 47.13-38.205 85.333-85.333 85.333h-42.667zM554.667 234.667c0 94.255 76.412 170.667 170.667 170.667h42.667c94.255 0 170.667-76.412 170.667-170.667v-42.667c0-94.255-76.412-170.667-170.667-170.667h-42.667c-94.255 0-170.667 76.412-170.667 170.667v42.667zM725.333 320c-47.13 0-85.333-38.204-85.333-85.333v-42.667c0-47.13 38.204-85.333 85.333-85.333h42.667c47.13 0 85.333 38.204 85.333 85.333v42.667c0 47.13-38.204 85.333-85.333 85.333h-42.667z" />
<glyph unicode="&#xe930;" glyph-name="Check" d="M838.763 693.443c17.737-15.517 19.533-42.472 4.015-60.206l-373.333-426.666c-15.458-17.668-42.291-19.529-60.038-4.16l-224 193.937c-17.815 15.424-19.753 42.372-4.329 60.186s42.37 19.755 60.184 4.331l191.912-166.161 345.382 394.726c15.518 17.734 42.475 19.531 60.207 4.014z" />
<glyph unicode="&#xe931;" glyph-name="Check_circle" d="M85.333 448c0 235.642 191.025 426.667 426.667 426.667 235.639 0 426.667-191.025 426.667-426.667 0-235.639-191.027-426.667-426.667-426.667-235.642 0-426.667 191.027-426.667 426.667zM512 789.333c-188.513 0-341.333-152.82-341.333-341.333s152.82-341.333 341.333-341.333c188.514 0 341.333 152.819 341.333 341.333s-152.819 341.333-341.333 341.333zM709.982 608.777c18.103-15.086 20.548-41.99 5.461-60.092l-213.333-256c-7.445-8.939-18.223-14.447-29.828-15.249-11.61-0.806-23.040 3.166-31.65 10.991l-127.999 116.365c-17.436 15.851-18.721 42.837-2.87 60.271 15.851 17.438 42.835 18.722 60.271 2.871l95.041-86.4 184.815 221.78c15.087 18.103 41.988 20.548 60.092 5.463z" />
<glyph unicode="&#xe932;" glyph-name="Check_rectangle" d="M85.333 661.333c0 117.821 95.513 213.333 213.333 213.333h426.667c117.82 0 213.333-95.513 213.333-213.333v-426.667c0-117.82-95.514-213.333-213.333-213.333h-426.667c-117.821 0-213.333 95.514-213.333 213.333v426.667zM298.667 789.333c-70.692 0-128-57.308-128-128v-426.667c0-70.694 57.308-128 128-128h426.667c70.694 0 128 57.306 128 128v426.667c0 70.692-57.306 128-128 128h-426.667zM709.982 608.777c18.103-15.086 20.548-41.99 5.461-60.092l-213.333-256c-7.445-8.939-18.223-14.447-29.828-15.249-11.61-0.806-23.040 3.166-31.65 10.991l-127.999 116.365c-17.436 15.851-18.721 42.837-2.87 60.271 15.851 17.438 42.835 18.722 60.271 2.871l95.041-86.4 184.815 221.78c15.087 18.103 41.988 20.548 60.092 5.463z" />
<glyph unicode="&#xe933;" glyph-name="chevron-down" d="M862.17 627.503c16.661-16.663 16.661-43.677 0-60.34l-298.667-298.666c-16.661-16.661-43.678-16.661-60.339 0l-298.667 298.666c-16.662 16.663-16.662 43.677 0 60.34s43.677 16.662 60.34 0l268.497-268.497 268.497 268.497c16.661 16.662 43.678 16.662 60.339 0z" />
<glyph unicode="&#xe934;" glyph-name="chevron-left" d="M670.17 776.837c16.661-16.663 16.661-43.677 0-60.34l-268.497-268.497 268.497-268.497c16.661-16.661 16.661-43.678 0-60.339s-43.678-16.661-60.339 0l-298.667 298.667c-16.662 16.661-16.662 43.678 0 60.339l298.667 298.667c16.661 16.662 43.678 16.662 60.339 0z" />
<glyph unicode="&#xe935;" glyph-name="chevron-right" d="M353.83 776.837c16.663 16.662 43.677 16.662 60.34 0l298.666-298.667c16.661-16.661 16.661-43.678 0-60.339l-298.666-298.667c-16.663-16.661-43.677-16.661-60.34 0s-16.662 43.678 0 60.339l268.497 268.497-268.497 268.497c-16.662 16.663-16.662 43.677 0 60.34z" />
<glyph unicode="&#xe936;" glyph-name="chevron-up" d="M204.497 268.497c-16.662 16.661-16.662 43.678 0 60.339l298.667 298.667c16.661 16.662 43.678 16.662 60.339 0l298.667-298.667c16.661-16.661 16.661-43.678 0-60.339s-43.678-16.661-60.339 0l-268.497 268.497-268.497-268.497c-16.663-16.661-43.677-16.661-60.34 0z" />
<glyph unicode="&#xe937;" glyph-name="circle" d="M85.333 448c0 235.642 191.025 426.667 426.667 426.667 235.639 0 426.667-191.025 426.667-426.667 0-235.639-191.027-426.667-426.667-426.667-235.642 0-426.667 191.027-426.667 426.667zM512 789.333c-188.513 0-341.333-152.82-341.333-341.333s152.82-341.333 341.333-341.333c188.514 0 341.333 152.819 341.333 341.333s-152.819 341.333-341.333 341.333z" />
<glyph unicode="&#xe938;" glyph-name="clock_circle" d="M210.301 749.699c77.165 77.165 183.89 124.968 301.699 124.968 117.807 0 224.533-47.803 301.7-124.968 77.163-77.165 124.966-183.89 124.966-301.699 0-117.807-47.804-224.533-124.966-301.7-77.167-77.163-183.893-124.966-301.7-124.966-117.809 0-224.534 47.804-301.699 124.966-77.165 77.167-124.968 183.893-124.968 301.7 0 117.809 47.803 224.534 124.968 301.699zM512 789.333c-94.269 0-179.543-38.159-241.359-99.974s-99.974-147.090-99.974-241.359c0-94.268 38.159-179.541 99.974-241.361 61.816-61.815 147.090-99.972 241.359-99.972s179.541 38.157 241.361 99.972c61.815 61.82 99.972 147.093 99.972 241.361s-38.157 179.543-99.972 241.359c-61.82 61.816-147.093 99.974-241.361 99.974zM512 661.333c23.565 0 42.667-19.103 42.667-42.667v-170.667c0-23.565-19.102-42.667-42.667-42.667s-42.667 19.102-42.667 42.667v170.667c0 23.564 19.102 42.667 42.667 42.667zM481.83 478.17c16.661 16.661 43.678 16.661 60.339 0l85.333-85.333c16.661-16.661 16.661-43.678 0-60.339s-43.678-16.661-60.339 0l-85.333 85.333c-16.661 16.661-16.661 43.678 0 60.339z" />
<glyph unicode="&#xe939;" glyph-name="clock_rectangle" d="M512 661.333c23.565 0 42.667-19.103 42.667-42.667v-170.667c0-23.565-19.102-42.667-42.667-42.667s-42.667 19.102-42.667 42.667v170.667c0 23.564 19.102 42.667 42.667 42.667zM481.83 478.17c16.661 16.661 43.678 16.661 60.339 0l85.333-85.333c16.661-16.661 16.661-43.678 0-60.339s-43.678-16.661-60.339 0l-85.333 85.333c-16.661 16.661-16.661 43.678 0 60.339zM85.333 661.333c0 117.821 95.513 213.333 213.333 213.333h426.667c117.82 0 213.333-95.513 213.333-213.333v-426.667c0-117.82-95.514-213.333-213.333-213.333h-426.667c-117.821 0-213.333 95.514-213.333 213.333v426.667zM298.667 789.333c-70.692 0-128-57.308-128-128v-426.667c0-70.694 57.308-128 128-128h426.667c70.694 0 128 57.306 128 128v426.667c0 70.692-57.306 128-128 128h-426.667z" />
<glyph unicode="&#xe93a;" glyph-name="Close" d="M225.83 734.17c16.663 16.662 43.677 16.662 60.34 0l512-512c16.661-16.661 16.661-43.678 0-60.339s-43.678-16.661-60.339 0l-512 512c-16.662 16.663-16.662 43.677 0 60.34zM798.17 734.17c-16.661 16.662-43.678 16.662-60.339 0l-512-512c-16.662-16.661-16.662-43.678 0-60.339s43.677-16.661 60.34 0l512 512c16.661 16.663 16.661 43.677 0 60.34z" />
<glyph unicode="&#xe93b;" glyph-name="Close_circle" d="M85.333 448c0 235.642 191.025 426.667 426.667 426.667 235.639 0 426.667-191.025 426.667-426.667 0-235.639-191.027-426.667-426.667-426.667-235.642 0-426.667 191.027-426.667 426.667zM512 789.333c-188.513 0-341.333-152.82-341.333-341.333s152.82-341.333 341.333-341.333c188.514 0 341.333 152.819 341.333 341.333s-152.819 341.333-341.333 341.333zM353.83 606.17c16.663 16.662 43.677 16.662 60.34 0l97.83-97.831 97.83 97.831c16.661 16.662 43.678 16.662 60.339 0s16.661-43.677 0-60.34l-97.83-97.83 97.83-97.83c16.661-16.661 16.661-43.678 0-60.339s-43.678-16.661-60.339 0l-97.83 97.83-97.83-97.83c-16.663-16.661-43.677-16.661-60.34 0s-16.662 43.678 0 60.339l97.831 97.83-97.831 97.83c-16.662 16.663-16.662 43.677 0 60.34z" />
<glyph unicode="&#xe93c;" glyph-name="Close_rectangle" d="M85.333 661.333c0 117.821 95.513 213.333 213.333 213.333h426.667c117.82 0 213.333-95.513 213.333-213.333v-426.667c0-117.82-95.514-213.333-213.333-213.333h-426.667c-117.821 0-213.333 95.514-213.333 213.333v426.667zM298.667 789.333c-70.692 0-128-57.308-128-128v-426.667c0-70.694 57.308-128 128-128h426.667c70.694 0 128 57.306 128 128v426.667c0 70.692-57.306 128-128 128h-426.667zM353.83 606.17c16.663 16.662 43.677 16.662 60.34 0l97.83-97.831 97.83 97.831c16.661 16.662 43.678 16.662 60.339 0s16.661-43.677 0-60.34l-97.83-97.83 97.83-97.83c16.661-16.661 16.661-43.678 0-60.339s-43.678-16.661-60.339 0l-97.83 97.83-97.83-97.83c-16.663-16.661-43.677-16.661-60.34 0s-16.662 43.678 0 60.339l97.831 97.83-97.831 97.83c-16.662 16.663-16.662 43.677 0 60.34z" />
<glyph unicode="&#xe93d;" glyph-name="compass" d="M512 789.333c-188.513 0-341.333-152.82-341.333-341.333s152.82-341.333 341.333-341.333c188.514 0 341.333 152.819 341.333 341.333s-152.819 341.333-341.333 341.333zM85.333 448c0 235.642 191.025 426.667 426.667 426.667 235.639 0 426.667-191.025 426.667-426.667 0-235.639-191.027-426.667-426.667-426.667-235.642 0-426.667 191.027-426.667 426.667zM670.17 606.169c11.43-11.427 15.42-28.331 10.308-43.662l-64-192.002c-4.245-12.74-14.242-22.737-26.982-26.982l-192.002-64c-15.331-5.111-32.235-1.122-43.662 10.308-11.427 11.426-15.418 28.331-10.307 43.661l64 192c4.247 12.741 14.244 22.738 26.985 26.985l192 64c15.33 5.11 32.235 1.12 43.661-10.307zM481.732 478.268l-30.268-90.807 90.807 30.268 30.268 90.807-90.807-30.268z" />
<glyph unicode="&#xe93e;" glyph-name="Copy" d="M384 405.333c0 94.255 76.412 170.667 170.667 170.667h213.333c94.255 0 170.667-76.412 170.667-170.667v-213.333c0-94.255-76.412-170.667-170.667-170.667h-213.333c-94.255 0-170.667 76.412-170.667 170.667v213.333zM554.667 490.667c-47.13 0-85.333-38.204-85.333-85.333v-213.333c0-47.13 38.204-85.333 85.333-85.333h213.333c47.13 0 85.333 38.204 85.333 85.333v213.333c0 47.13-38.204 85.333-85.333 85.333h-213.333zM85.333 704c0 94.257 76.41 170.667 170.667 170.667h213.333c94.255 0 170.667-76.41 170.667-170.667v-8.889c0-23.564-19.102-42.667-42.667-42.667s-42.667 19.102-42.667 42.667v8.889c0 47.128-38.204 85.333-85.333 85.333h-213.333c-47.128 0-85.333-38.205-85.333-85.333v-213.333c0-47.13 38.205-85.333 85.333-85.333h8.889c23.564 0 42.667-19.102 42.667-42.667s-19.102-42.667-42.667-42.667h-8.889c-94.257 0-170.667 76.412-170.667 170.667v213.333z" />
<glyph unicode="&#xe93f;" glyph-name="delete" d="M268.326 717.865c32.036 44.851 83.76 71.469 138.877 71.469h360.797c94.255 0 170.667-76.41 170.667-170.667v-341.333c0-94.255-76.412-170.667-170.667-170.667h-360.797c-55.117 0-106.841 26.62-138.877 71.467l-139.619 195.469c-31.789 44.506-31.789 104.29 0 148.796l139.619 195.467zM407.203 704c-27.558 0-53.42-13.309-69.439-35.734l-139.619-195.468c-10.597-14.835-10.597-34.761 0-49.596l139.619-195.469c16.018-22.426 41.88-35.733 69.439-35.733h360.797c47.125 0 85.333 38.204 85.333 85.333v341.333c0 47.128-38.208 85.333-85.333 85.333h-360.797zM439.164 606.17c16.661 16.662 43.678 16.662 60.339 0l97.83-97.831 97.83 97.831c16.661 16.662 43.678 16.662 60.339 0s16.661-43.677 0-60.34l-97.83-97.83 97.83-97.83c16.661-16.661 16.661-43.678 0-60.339s-43.678-16.661-60.339 0l-97.83 97.83-97.83-97.83c-16.661-16.661-43.678-16.661-60.339 0-16.663 16.661-16.663 43.678 0 60.339l97.83 97.83-97.83 97.83c-16.663 16.663-16.663 43.677 0 60.34z" />
<glyph unicode="&#xe940;" glyph-name="Edit" d="M768.751 746.667c-11.115 0-21.777-4.416-29.636-12.276l-464.979-464.976c-16.404-16.405-28.042-36.962-33.668-59.469l-11.16-44.638 44.641 11.157c22.507 5.628 43.061 17.267 59.465 33.668l464.978 464.98c3.891 3.892 6.98 8.513 9.084 13.598 2.108 5.085 3.191 10.536 3.191 16.040s-1.084 10.955-3.191 16.040c-2.103 5.085-5.193 9.706-9.084 13.599s-8.512 6.979-13.598 9.086c-5.086 2.106-10.539 3.191-16.043 3.191zM678.775 794.73c23.863 23.864 56.23 37.27 89.975 37.27 16.713 0 33.259-3.291 48.695-9.686 15.441-6.395 29.47-15.768 41.284-27.584s21.188-25.844 27.584-41.283c6.396-15.439 9.685-31.985 9.685-48.696s-3.29-33.257-9.685-48.696c-6.396-15.439-15.77-29.466-27.584-41.283l-464.977-464.979c-27.341-27.341-61.598-46.737-99.109-56.111l-113.629-28.407c-14.54-3.635-29.921 0.623-40.518 11.221s-14.858 25.98-11.223 40.516l28.407 113.63c9.378 37.513 28.774 71.77 56.114 99.11l464.979 464.976zM695.168 503.164l-128 128.002 60.339 60.34 128-128-60.339-60.341zM512 106.667c0 23.565 19.102 42.667 42.667 42.667h298.667c23.565 0 42.667-19.102 42.667-42.667s-19.102-42.667-42.667-42.667h-298.667c-23.565 0-42.667 19.102-42.667 42.667z" />
<glyph unicode="&#xe941;" glyph-name="Edit_circle" d="M819.089 789.333c-9.084 0-17.796-3.608-24.218-10.031l-336.085-336.086-16.145-64.576 64.576 16.141 336.085 336.089c6.426 6.422 10.031 15.133 10.031 24.216s-3.605 17.793-10.031 24.216c-6.421 6.422-15.134 10.031-24.213 10.031zM734.532 839.642c22.426 22.426 52.843 35.024 84.557 35.024s62.127-12.599 84.553-35.024c22.426-22.426 35.025-52.841 35.025-84.556s-12.599-62.13-35.025-84.556l-344.444-344.442c-5.466-5.47-12.318-9.348-19.819-11.226l-145.030-36.254c-14.54-3.635-29.921 0.623-40.518 11.221s-14.858 25.98-11.223 40.516l36.257 145.033c1.876 7.501 5.754 14.353 11.223 19.819l344.444 344.445zM652.497 734.17c16.661 16.662 43.678 16.662 60.339 0l85.333-85.333c16.661-16.663 16.661-43.677 0-60.34s-43.678-16.662-60.339 0l-85.333 85.333c-16.661 16.663-16.661 43.677 0 60.34zM512 789.333c-188.513 0-341.333-152.82-341.333-341.333s152.82-341.333 341.333-341.333c188.514 0 341.333 152.819 341.333 341.333v21.333c0 23.565 19.102 42.667 42.667 42.667s42.667-19.102 42.667-42.667v-21.333c0-235.639-191.027-426.667-426.667-426.667-235.642 0-426.667 191.027-426.667 426.667 0 235.642 191.025 426.667 426.667 426.667h21.333c23.565 0 42.667-19.103 42.667-42.667s-19.102-42.667-42.667-42.667h-21.333z" />
<glyph unicode="&#xe942;" glyph-name="Edit_rectangle" d="M298.667 789.333c-70.692 0-128-57.308-128-128v-426.667c0-70.694 57.308-128 128-128h426.667c70.694 0 128 57.306 128 128v256c0 23.565 19.102 42.667 42.667 42.667s42.667-19.102 42.667-42.667v-256c0-117.82-95.514-213.333-213.333-213.333h-426.667c-117.821 0-213.333 95.514-213.333 213.333v426.667c0 117.821 95.513 213.333 213.333 213.333h256c23.565 0 42.667-19.103 42.667-42.667s-19.102-42.667-42.667-42.667h-256zM819.089 789.333c-9.084 0-17.796-3.608-24.218-10.031l-336.085-336.086-16.145-64.576 64.576 16.141 336.085 336.089c6.426 6.422 10.031 15.133 10.031 24.216s-3.605 17.793-10.031 24.216c-6.421 6.422-15.134 10.031-24.213 10.031zM734.532 839.642c22.426 22.426 52.843 35.024 84.557 35.024s62.127-12.599 84.553-35.024c22.426-22.426 35.025-52.841 35.025-84.556s-12.599-62.13-35.025-84.556l-344.444-344.442c-5.466-5.47-12.318-9.348-19.819-11.226l-145.030-36.254c-14.54-3.635-29.921 0.623-40.518 11.221s-14.858 25.98-11.223 40.516l36.257 145.033c1.876 7.501 5.754 14.353 11.223 19.819l344.444 344.445zM652.497 734.17c16.661 16.662 43.678 16.662 60.339 0l85.333-85.333c16.661-16.663 16.661-43.677 0-60.34s-43.678-16.662-60.339 0l-85.333 85.333c-16.661 16.663-16.661 43.677 0 60.34z" />
<glyph unicode="&#xe943;" glyph-name="External-link" d="M298.667 789.333c-70.692 0-128-57.308-128-128v-426.667c0-70.694 57.308-128 128-128h426.667c70.694 0 128 57.306 128 128v170.667c0 23.565 19.102 42.667 42.667 42.667s42.667-19.102 42.667-42.667v-170.667c0-117.82-95.514-213.333-213.333-213.333h-426.667c-117.821 0-213.333 95.514-213.333 213.333v426.667c0 117.821 95.513 213.333 213.333 213.333h170.667c23.565 0 42.667-19.103 42.667-42.667s-19.102-42.667-42.667-42.667h-170.667zM926.17 862.17c16.661-16.663 16.661-43.677 0-60.34l-384-384c-16.661-16.661-43.678-16.661-60.339 0s-16.661 43.678 0 60.339l384 384c16.661 16.662 43.678 16.662 60.339 0zM597.333 832c0 23.564 19.102 42.667 42.667 42.667h256c23.565 0 42.667-19.103 42.667-42.667v-256c0-23.564-19.102-42.667-42.667-42.667s-42.667 19.103-42.667 42.667v213.333h-213.333c-23.565 0-42.667 19.103-42.667 42.667z" />
<glyph unicode="&#xe944;" glyph-name="Eye" d="M326.787 591.687c-56.283-40.493-102.189-90.106-131.212-125.341-9.058-10.999-9.058-25.694 0-36.693 29.023-35.234 74.929-84.847 131.212-125.342 56.62-40.734 120.108-69.645 185.209-69.645s128.593 28.911 185.212 69.645c56.282 40.495 102.191 90.108 131.213 125.342 9.058 10.999 9.058 25.694 0 36.693-29.022 35.234-74.931 84.848-131.213 125.341-56.619 40.735-120.111 69.646-185.212 69.646s-128.59-28.911-185.209-69.646zM276.951 660.956c64.13 46.138 145.022 85.711 235.045 85.711 90.027 0 170.918-39.572 235.046-85.711 64.469-46.381 115.678-102.033 147.243-140.358 35.017-42.509 35.017-102.686 0-145.195-31.565-38.327-82.773-93.978-147.243-140.361-64.128-46.135-145.020-85.709-235.046-85.709-90.022 0-170.915 39.573-235.045 85.709-64.467 46.383-115.676 102.033-147.244 140.361-35.012 42.509-35.012 102.686 0 145.195 31.567 38.326 82.777 93.978 147.244 140.359zM512 533.333c-47.13 0-85.333-38.204-85.333-85.333s38.204-85.333 85.333-85.333c47.13 0 85.333 38.204 85.333 85.333s-38.204 85.333-85.333 85.333zM341.333 448c0 94.257 76.41 170.667 170.667 170.667 94.255 0 170.667-76.41 170.667-170.667 0-94.255-76.412-170.667-170.667-170.667-94.257 0-170.667 76.412-170.667 170.667z" />
<glyph unicode="&#xe945;" glyph-name="Eye_off" d="M511.996 661.333c-12.079 0-24.094-0.991-36.023-2.871-23.279-3.666-45.12 12.232-48.785 35.509-3.667 23.277 12.233 45.119 35.507 48.785 16.085 2.533 32.542 3.91 49.301 3.91 90.027 0 170.918-39.572 235.046-85.711 64.469-46.381 115.678-102.033 147.243-140.358 35.017-42.509 35.017-102.686 0-145.195-14.131-17.161-32.064-37.623-53.231-59.098-16.538-16.781-43.554-16.977-60.339-0.435-16.781 16.538-16.977 43.554-0.435 60.335 19.093 19.375 35.328 37.897 48.141 53.449 9.058 10.999 9.058 25.694 0 36.693-29.022 35.234-74.931 84.848-131.213 125.341-56.619 40.735-120.111 69.646-185.212 69.646zM337.385 599.116c-61.052-41.659-110.925-95.273-141.81-132.769-9.058-10.999-9.058-25.694 0-36.693 29.023-35.234 74.929-84.847 131.212-125.342 56.62-40.734 120.108-69.645 185.209-69.645 56.196 0 111.27 21.521 162.022 53.905l45.897-71.94c-58.978-37.628-129.993-67.298-207.919-67.298-90.022 0-170.915 39.573-235.045 85.709-64.467 46.383-115.676 102.033-147.244 140.361-35.012 42.509-35.012 102.686 0 145.195 33.495 40.666 89.241 101.009 159.58 149.005l48.097-70.487zM97.83 862.17c16.663 16.662 43.677 16.662 60.34 0l768-768c16.661-16.661 16.661-43.678 0-60.339s-43.678-16.661-60.339 0l-768 768c-16.662 16.663-16.662 43.677 0 60.34zM377.322 456.081c22.761 6.101 46.157-7.407 52.255-30.17 3.878-14.468 11.494-27.661 22.089-38.251 10.59-10.594 23.782-18.21 38.251-22.089 22.763-6.097 36.271-29.495 30.17-52.254-6.097-22.763-29.491-36.271-52.254-30.17-28.937 7.753-55.324 22.985-76.508 44.169s-36.418 47.573-44.172 76.51c-6.099 22.763 7.409 46.157 30.17 52.254z" />
<glyph unicode="&#xe946;" glyph-name="file-text" d="M341.333 234.667c0 23.565 19.103 42.667 42.667 42.667h256c23.565 0 42.667-19.102 42.667-42.667s-19.102-42.667-42.667-42.667h-256c-23.564 0-42.667 19.102-42.667 42.667zM341.333 405.333c0 23.565 19.103 42.667 42.667 42.667h256c23.565 0 42.667-19.102 42.667-42.667s-19.102-42.667-42.667-42.667h-256c-23.564 0-42.667 19.102-42.667 42.667zM341.333 576c0 23.564 19.103 42.667 42.667 42.667h42.667c23.565 0 42.667-19.103 42.667-42.667s-19.102-42.667-42.667-42.667h-42.667c-23.564 0-42.667 19.103-42.667 42.667zM341.333 789.333c-47.128 0-85.333-38.205-85.333-85.333v-512c0-47.13 38.205-85.333 85.333-85.333h341.333c47.13 0 85.333 38.204 85.333 85.333v391.32c0 11.316-4.497 22.168-12.497 30.17l-163.345 163.346c-8.004 8.001-18.854 12.497-30.17 12.497h-220.655zM170.667 704c0 94.257 76.41 170.667 170.667 170.667h220.655c33.946 0 66.505-13.486 90.509-37.49l163.345-163.346c24.004-24.005 37.491-56.562 37.491-90.51v-391.32c0-94.255-76.412-170.667-170.667-170.667h-341.333c-94.257 0-170.667 76.412-170.667 170.667v512zM597.333 832v-85.333c0-70.692 57.306-128 128-128h85.333v-85.333h-85.333c-117.82 0-213.333 95.513-213.333 213.333v85.333h85.333z" />
<glyph unicode="&#xe947;" glyph-name="file-text_clean" d="M341.333 789.333c-47.128 0-85.333-38.205-85.333-85.333v-512c0-47.13 38.205-85.333 85.333-85.333h341.333c47.13 0 85.333 38.204 85.333 85.333v391.32c0 11.316-4.497 22.168-12.497 30.17l-163.345 163.346c-8.004 8.001-18.854 12.497-30.17 12.497h-220.655zM170.667 704c0 94.257 76.41 170.667 170.667 170.667h220.655c33.946 0 66.505-13.486 90.509-37.49l163.345-163.346c24.004-24.005 37.491-56.562 37.491-90.51v-391.32c0-94.255-76.412-170.667-170.667-170.667h-341.333c-94.257 0-170.667 76.412-170.667 170.667v512zM597.333 832v-85.333c0-70.692 57.306-128 128-128h85.333v-85.333h-85.333c-117.82 0-213.333 95.513-213.333 213.333v85.333h85.333z" />
<glyph unicode="&#xe948;" glyph-name="file-text_delete" d="M341.333 789.333c-47.128 0-85.333-38.205-85.333-85.333v-512c0-47.13 38.205-85.333 85.333-85.333h341.333c47.13 0 85.333 38.204 85.333 85.333v391.32c0 11.316-4.497 22.168-12.497 30.17l-163.345 163.346c-8.004 8.001-18.854 12.497-30.17 12.497h-220.655zM170.667 704c0 94.257 76.41 170.667 170.667 170.667h220.655c33.946 0 66.505-13.486 90.509-37.49l163.345-163.346c24.004-24.005 37.491-56.562 37.491-90.51v-391.32c0-94.255-76.412-170.667-170.667-170.667h-341.333c-94.257 0-170.667 76.412-170.667 170.667v512zM375.163 478.17c16.663 16.661 43.677 16.661 60.34 0l76.497-76.497 76.497 76.497c16.661 16.661 43.678 16.661 60.339 0s16.661-43.678 0-60.339l-76.497-76.497 76.497-76.497c16.661-16.661 16.661-43.678 0-60.339s-43.678-16.661-60.339 0l-76.497 76.497-76.497-76.497c-16.662-16.661-43.677-16.661-60.34 0s-16.662 43.678 0 60.339l76.497 76.497-76.497 76.497c-16.662 16.661-16.662 43.678 0 60.339zM597.333 832v-85.333c0-70.692 57.306-128 128-128h85.333v-85.333h-85.333c-117.82 0-213.333 95.513-213.333 213.333v85.333h85.333z" />
<glyph unicode="&#xe949;" glyph-name="file-text_down" d="M512 533.333c23.565 0 42.667-19.102 42.667-42.667v-152.994l55.164 55.164c16.661 16.661 43.678 16.661 60.339 0s16.661-43.678 0-60.339l-128-128c-16.661-16.661-43.678-16.661-60.339 0l-128 128c-16.662 16.661-16.662 43.678 0 60.339s43.677 16.661 60.34 0l55.163-55.164v152.994c0 23.565 19.102 42.667 42.667 42.667zM341.333 789.333c-47.128 0-85.333-38.205-85.333-85.333v-512c0-47.13 38.205-85.333 85.333-85.333h341.333c47.13 0 85.333 38.204 85.333 85.333v391.32c0 11.316-4.497 22.168-12.497 30.17l-163.345 163.346c-8.004 8.001-18.854 12.497-30.17 12.497h-220.655zM170.667 704c0 94.257 76.41 170.667 170.667 170.667h220.655c33.946 0 66.505-13.486 90.509-37.49l163.345-163.346c24.004-24.005 37.491-56.562 37.491-90.51v-391.32c0-94.255-76.412-170.667-170.667-170.667h-341.333c-94.257 0-170.667 76.412-170.667 170.667v512zM597.333 832v-85.333c0-70.692 57.306-128 128-128h85.333v-85.333h-85.333c-117.82 0-213.333 95.513-213.333 213.333v85.333h85.333z" />
<glyph unicode="&#xe94a;" glyph-name="file-text_minus" d="M341.333 362.667c0 23.565 19.103 42.667 42.667 42.667h256c23.565 0 42.667-19.102 42.667-42.667s-19.102-42.667-42.667-42.667h-256c-23.564 0-42.667 19.102-42.667 42.667zM341.333 789.333c-47.128 0-85.333-38.205-85.333-85.333v-512c0-47.13 38.205-85.333 85.333-85.333h341.333c47.13 0 85.333 38.204 85.333 85.333v391.32c0 11.316-4.497 22.168-12.497 30.17l-163.345 163.346c-8.004 8.001-18.854 12.497-30.17 12.497h-220.655zM170.667 704c0 94.257 76.41 170.667 170.667 170.667h220.655c33.946 0 66.505-13.486 90.509-37.49l163.345-163.346c24.004-24.005 37.491-56.562 37.491-90.51v-391.32c0-94.255-76.412-170.667-170.667-170.667h-341.333c-94.257 0-170.667 76.412-170.667 170.667v512zM597.333 832v-85.333c0-70.692 57.306-128 128-128h85.333v-85.333h-85.333c-117.82 0-213.333 95.513-213.333 213.333v85.333h85.333z" />
<glyph unicode="&#xe94b;" glyph-name="file-text_plus" d="M512 533.333c23.565 0 42.667-19.102 42.667-42.667v-85.333h85.333c23.565 0 42.667-19.102 42.667-42.667s-19.102-42.667-42.667-42.667h-85.333v-85.333c0-23.565-19.102-42.667-42.667-42.667s-42.667 19.102-42.667 42.667v85.333h-85.333c-23.564 0-42.667 19.102-42.667 42.667s19.103 42.667 42.667 42.667h85.333v85.333c0 23.565 19.102 42.667 42.667 42.667zM341.333 789.333c-47.128 0-85.333-38.205-85.333-85.333v-512c0-47.13 38.205-85.333 85.333-85.333h341.333c47.13 0 85.333 38.204 85.333 85.333v391.32c0 11.316-4.497 22.168-12.497 30.17l-163.345 163.346c-8.004 8.001-18.854 12.497-30.17 12.497h-220.655zM170.667 704c0 94.257 76.41 170.667 170.667 170.667h220.655c33.946 0 66.505-13.486 90.509-37.49l163.345-163.346c24.004-24.005 37.491-56.562 37.491-90.51v-391.32c0-94.255-76.412-170.667-170.667-170.667h-341.333c-94.257 0-170.667 76.412-170.667 170.667v512zM597.333 832v-85.333c0-70.692 57.306-128 128-128h85.333v-85.333h-85.333c-117.82 0-213.333 95.513-213.333 213.333v85.333h85.333z" />
<glyph unicode="&#xe94c;" glyph-name="file-text_up" d="M481.83 520.836c16.661 16.663 43.678 16.663 60.339 0l128-128c16.661-16.661 16.661-43.678 0-60.339s-43.678-16.661-60.339 0l-55.164 55.164v-152.994c0-23.565-19.102-42.667-42.667-42.667s-42.667 19.102-42.667 42.667v152.994l-55.163-55.164c-16.663-16.661-43.677-16.661-60.34 0s-16.662 43.678 0 60.339l128 128zM341.333 789.333c-47.128 0-85.333-38.205-85.333-85.333v-512c0-47.13 38.205-85.333 85.333-85.333h341.333c47.13 0 85.333 38.204 85.333 85.333v391.32c0 11.316-4.497 22.168-12.497 30.17l-163.345 163.346c-8.004 8.001-18.854 12.497-30.17 12.497h-220.655zM170.667 704c0 94.257 76.41 170.667 170.667 170.667h220.655c33.946 0 66.505-13.486 90.509-37.49l163.345-163.346c24.004-24.005 37.491-56.562 37.491-90.51v-391.32c0-94.255-76.412-170.667-170.667-170.667h-341.333c-94.257 0-170.667 76.412-170.667 170.667v512zM597.333 832v-85.333c0-70.692 57.306-128 128-128h85.333v-85.333h-85.333c-117.82 0-213.333 95.513-213.333 213.333v85.333h85.333z" />
<glyph unicode="&#xe94d;" glyph-name="Filter" d="M128 713.137c0 65.646 53.216 118.863 118.863 118.863h530.277c65.643 0 118.861-53.216 118.861-118.863 0-34.436-12.318-67.737-34.731-93.884l-120.922-141.076c-46.4-54.131-71.902-123.076-71.902-194.372v-91.806c0-70.694-57.31-128-128-128h-56.892c-70.691 0-127.999 57.306-127.999 128v91.806c0 71.296-25.504 140.241-71.902 194.372l-120.924 141.076c-22.411 26.147-34.73 59.447-34.73 93.884zM246.863 746.667c-18.518 0-33.529-15.011-33.529-33.529 0-14.066 5.032-27.669 14.186-38.349l120.924-141.078c59.655-69.595 92.444-158.24 92.444-249.905v-91.806c0-23.565 19.102-42.667 42.667-42.667h56.892c23.565 0 42.667 19.102 42.667 42.667v91.806c0 91.665 32.789 180.309 92.446 249.905l120.922 141.078c9.156 10.68 14.187 24.283 14.187 38.349 0 18.518-15.010 33.529-33.527 33.529h-530.277z" />
<glyph unicode="&#xe94e;" glyph-name="folder" d="M256 789.333c-47.128 0-85.333-38.205-85.333-85.333v-512c0-47.13 38.205-85.333 85.333-85.333h512c47.13 0 85.333 38.204 85.333 85.333v368c0 47.128-38.204 85.333-85.333 85.333h-210.33c-42.799 0-82.765 21.389-106.505 56.998l-45.334 68.002c-7.913 11.87-21.235 18.999-35.501 18.999h-114.331zM85.333 704c0 94.257 76.41 170.667 170.667 170.667h114.331c42.797 0 82.764-21.389 106.503-56.998l45.333-68.002c7.915-11.87 21.235-18.999 35.503-18.999h210.33c94.255 0 170.667-76.41 170.667-170.667v-368c0-94.255-76.412-170.667-170.667-170.667h-512c-94.257 0-170.667 76.412-170.667 170.667v512z" />
<glyph unicode="&#xe94f;" glyph-name="folder_check" d="M256 789.333c-47.128 0-85.333-38.205-85.333-85.333v-512c0-47.13 38.205-85.333 85.333-85.333h512c47.13 0 85.333 38.204 85.333 85.333v384c0 47.128-38.204 85.333-85.333 85.333h-213.333c-40.29 0-78.225 18.969-102.4 51.2l-44.8 59.733c-8.058 10.744-20.704 17.067-34.133 17.067h-117.333zM85.333 704c0 94.257 76.41 170.667 170.667 170.667h117.333c40.289 0 78.225-18.969 102.4-51.2l44.8-59.733c8.060-10.744 20.702-17.067 34.133-17.067h213.333c94.255 0 170.667-76.41 170.667-170.667v-384c0-94.255-76.412-170.667-170.667-170.667h-512c-94.257 0-170.667 76.412-170.667 170.667v512zM669.184 479.125c17.19-16.115 18.061-43.115 1.946-60.305l-160-170.667c-15.287-16.307-40.563-18.052-57.946-4.006l-96 77.577c-18.328 14.81-21.179 41.673-6.369 60.002s41.675 21.18 60.003 6.37l65.167-52.663 132.89 141.747c16.115 17.195 43.119 18.065 60.309 1.946z" />
<glyph unicode="&#xe950;" glyph-name="folder_delete" d="M256 789.333c-47.128 0-85.333-38.205-85.333-85.333v-512c0-47.13 38.205-85.333 85.333-85.333h512c47.13 0 85.333 38.204 85.333 85.333v384c0 47.128-38.204 85.333-85.333 85.333h-213.333c-40.29 0-78.225 18.969-102.4 51.2l-44.8 59.733c-8.058 10.744-20.704 17.067-34.133 17.067h-117.333zM85.333 704c0 94.257 76.41 170.667 170.667 170.667h117.333c40.289 0 78.225-18.969 102.4-51.2l44.8-59.733c8.060-10.744 20.702-17.067 34.133-17.067h213.333c94.255 0 170.667-76.41 170.667-170.667v-384c0-94.255-76.412-170.667-170.667-170.667h-512c-94.257 0-170.667 76.412-170.667 170.667v512zM375.163 478.17c16.663 16.661 43.677 16.661 60.34 0l76.497-76.497 76.497 76.497c16.661 16.661 43.678 16.661 60.339 0s16.661-43.678 0-60.339l-76.497-76.497 76.497-76.497c16.661-16.661 16.661-43.678 0-60.339s-43.678-16.661-60.339 0l-76.497 76.497-76.497-76.497c-16.662-16.661-43.677-16.661-60.34 0s-16.662 43.678 0 60.339l76.497 76.497-76.497 76.497c-16.662 16.661-16.662 43.678 0 60.339z" />
<glyph unicode="&#xe951;" glyph-name="folder_down" d="M256 789.333c-47.128 0-85.333-38.205-85.333-85.333v-512c0-47.13 38.205-85.333 85.333-85.333h512c47.13 0 85.333 38.204 85.333 85.333v384c0 47.128-38.204 85.333-85.333 85.333h-213.333c-40.29 0-78.225 18.969-102.4 51.2l-44.8 59.733c-8.058 10.744-20.704 17.067-34.133 17.067h-117.333zM85.333 704c0 94.257 76.41 170.667 170.667 170.667h117.333c40.289 0 78.225-18.969 102.4-51.2l44.8-59.733c8.060-10.744 20.702-17.067 34.133-17.067h213.333c94.255 0 170.667-76.41 170.667-170.667v-384c0-94.255-76.412-170.667-170.667-170.667h-512c-94.257 0-170.667 76.412-170.667 170.667v512zM512 533.333c23.565 0 42.667-19.102 42.667-42.667v-152.994l55.164 55.164c16.661 16.661 43.678 16.661 60.339 0s16.661-43.678 0-60.339l-128-128c-16.661-16.661-43.678-16.661-60.339 0l-128 128c-16.662 16.661-16.662 43.678 0 60.339s43.677 16.661 60.34 0l55.163-55.164v152.994c0 23.565 19.102 42.667 42.667 42.667z" />
<glyph unicode="&#xe952;" glyph-name="folder_minus" d="M256 789.333c-47.128 0-85.333-38.205-85.333-85.333v-512c0-47.13 38.205-85.333 85.333-85.333h512c47.13 0 85.333 38.204 85.333 85.333v368c0 47.128-38.204 85.333-85.333 85.333h-210.33c-42.799 0-82.765 21.389-106.505 56.998l-45.334 68.002c-7.913 11.87-21.235 18.999-35.501 18.999h-114.331zM85.333 704c0 94.257 76.41 170.667 170.667 170.667h114.331c42.797 0 82.764-21.389 106.503-56.998l45.333-68.002c7.915-11.87 21.235-18.999 35.503-18.999h210.33c94.255 0 170.667-76.41 170.667-170.667v-368c0-94.255-76.412-170.667-170.667-170.667h-512c-94.257 0-170.667 76.412-170.667 170.667v512zM341.333 405.333c0 23.565 19.103 42.667 42.667 42.667h256c23.565 0 42.667-19.102 42.667-42.667s-19.102-42.667-42.667-42.667h-256c-23.564 0-42.667 19.102-42.667 42.667z" />
<glyph unicode="&#xe953;" glyph-name="folder_plus" d="M256 789.333c-47.128 0-85.333-38.205-85.333-85.333v-512c0-47.13 38.205-85.333 85.333-85.333h512c47.13 0 85.333 38.204 85.333 85.333v416c0 47.128-38.204 85.333-85.333 85.333h-220.655c-33.946 0-66.505 13.486-90.509 37.49l-46.013 46.013c-8.002 8.001-18.854 12.497-30.17 12.497h-124.654zM85.333 704c0 94.257 76.41 170.667 170.667 170.667h124.654c33.948 0 66.506-13.486 90.51-37.49l46.012-46.013c8.004-8.001 18.854-12.497 30.17-12.497h220.655c94.255 0 170.667-76.41 170.667-170.667v-416c0-94.255-76.412-170.667-170.667-170.667h-512c-94.257 0-170.667 76.412-170.667 170.667v512zM512 576c23.565 0 42.667-19.103 42.667-42.667v-85.333h85.333c23.565 0 42.667-19.102 42.667-42.667s-19.102-42.667-42.667-42.667h-85.333v-85.333c0-23.565-19.102-42.667-42.667-42.667s-42.667 19.102-42.667 42.667v85.333h-85.333c-23.564 0-42.667 19.102-42.667 42.667s19.103 42.667 42.667 42.667h85.333v85.333c0 23.564 19.102 42.667 42.667 42.667z" />
<glyph unicode="&#xe954;" glyph-name="folder_right" d="M256 789.333c-47.128 0-85.333-38.205-85.333-85.333v-512c0-47.13 38.205-85.333 85.333-85.333h512c47.13 0 85.333 38.204 85.333 85.333v384c0 47.128-38.204 85.333-85.333 85.333h-213.333c-40.29 0-78.225 18.969-102.4 51.2l-44.8 59.733c-8.058 10.744-20.704 17.067-34.133 17.067h-117.333zM85.333 704c0 94.257 76.41 170.667 170.667 170.667h117.333c40.289 0 78.225-18.969 102.4-51.2l44.8-59.733c8.060-10.744 20.702-17.067 34.133-17.067h213.333c94.255 0 170.667-76.41 170.667-170.667v-384c0-94.255-76.412-170.667-170.667-170.667h-512c-94.257 0-170.667 76.412-170.667 170.667v512zM481.83 520.836c16.661 16.663 43.678 16.663 60.339 0l128-128c8-8 12.497-18.854 12.497-30.17s-4.497-22.17-12.497-30.17l-128-128c-16.661-16.661-43.678-16.661-60.339 0s-16.661 43.678 0 60.339l55.164 55.164h-152.994c-23.564 0-42.667 19.102-42.667 42.667s19.103 42.667 42.667 42.667h152.994l-55.164 55.164c-16.661 16.661-16.661 43.678 0 60.339z" />
<glyph unicode="&#xe955;" glyph-name="folder_up" d="M256 789.333c-47.128 0-85.333-38.205-85.333-85.333v-512c0-47.13 38.205-85.333 85.333-85.333h512c47.13 0 85.333 38.204 85.333 85.333v384c0 47.128-38.204 85.333-85.333 85.333h-213.333c-40.29 0-78.225 18.969-102.4 51.2l-44.8 59.733c-8.058 10.744-20.704 17.067-34.133 17.067h-117.333zM85.333 704c0 94.257 76.41 170.667 170.667 170.667h117.333c40.289 0 78.225-18.969 102.4-51.2l44.8-59.733c8.060-10.744 20.702-17.067 34.133-17.067h213.333c94.255 0 170.667-76.41 170.667-170.667v-384c0-94.255-76.412-170.667-170.667-170.667h-512c-94.257 0-170.667 76.412-170.667 170.667v512zM481.83 520.836c16.661 16.663 43.678 16.663 60.339 0l128-128c16.661-16.661 16.661-43.678 0-60.339s-43.678-16.661-60.339 0l-55.164 55.164v-152.994c0-23.565-19.102-42.667-42.667-42.667s-42.667 19.102-42.667 42.667v152.994l-55.163-55.164c-16.663-16.661-43.677-16.661-60.34 0s-16.662 43.678 0 60.339l128 128z" />
<glyph unicode="&#xe956;" glyph-name="Globe-1" d="M512 789.333c-188.513 0-341.333-152.82-341.333-341.333s152.82-341.333 341.333-341.333c188.514 0 341.333 152.819 341.333 341.333s-152.819 341.333-341.333 341.333zM85.333 448c0 235.642 191.025 426.667 426.667 426.667 235.639 0 426.667-191.025 426.667-426.667 0-235.639-191.027-426.667-426.667-426.667-235.642 0-426.667 191.027-426.667 426.667zM461.969 706.036c-21.359-64.075-35.302-155.308-35.302-258.036s13.943-193.963 35.302-258.035c10.752-32.26 22.618-55.292 33.719-69.38 5.453-6.916 9.886-10.611 12.838-12.42 1.404-0.866 2.347-1.22 2.82-1.365 0.431-0.132 0.61-0.132 0.649-0.132h0.004c0.030 0 0.209-0.004 0.653 0.132 0.474 0.145 1.417 0.499 2.82 1.365 2.953 1.809 7.386 5.504 12.838 12.42 11.102 14.089 22.967 37.12 33.719 69.38 21.359 64.073 35.302 155.307 35.302 258.035s-13.943 193.962-35.302 258.036c-10.752 32.261-22.618 55.29-33.719 69.377-5.453 6.919-9.886 10.612-12.838 12.423-1.404 0.864-2.347 1.221-2.82 1.366-0.431 0.131-0.61 0.13-0.649 0.13h-0.009c-0.038 0-0.218 0.001-0.649-0.13-0.474-0.145-1.417-0.503-2.82-1.366-2.953-1.811-7.386-5.504-12.838-12.423-11.102-14.088-22.967-37.117-33.719-69.377zM428.668 828.233c19.145 24.294 46.985 46.434 83.332 46.434s64.188-22.139 83.332-46.434c19.529-24.775 35.243-57.982 47.654-95.212 24.969-74.906 39.68-175.673 39.68-285.021 0-109.35-14.711-210.116-39.68-285.022-12.412-37.231-28.126-70.434-47.654-95.211-19.145-24.294-46.985-46.434-83.332-46.434s-64.188 22.14-83.332 46.434c-19.527 24.777-35.245 57.98-47.654 95.211-24.969 74.906-39.68 175.671-39.68 285.022 0 109.348 14.711 210.116 39.68 285.021 12.41 37.23 28.127 70.436 47.654 95.212zM170.667 448c0-0.038-0.001-0.222 0.13-0.653 0.145-0.474 0.503-1.417 1.366-2.82 1.811-2.953 5.504-7.386 12.423-12.838 14.088-11.102 37.117-22.967 69.377-33.719 64.075-21.359 155.308-35.302 258.036-35.302s193.963 13.943 258.035 35.302c32.26 10.752 55.292 22.618 69.38 33.719 6.916 5.453 10.611 9.886 12.42 12.838 0.866 1.404 1.22 2.347 1.365 2.82 0.132 0.431 0.132 0.61 0.132 0.649s0 0.226-0.132 0.657c-0.145 0.474-0.499 1.412-1.365 2.82-1.809 2.953-5.504 7.386-12.42 12.838-14.089 11.102-37.12 22.967-69.38 33.719-64.073 21.359-155.307 35.302-258.035 35.302s-193.962-13.943-258.036-35.302c-32.261-10.752-55.29-22.618-69.377-33.719-6.919-5.453-10.612-9.886-12.423-12.838-0.864-1.404-1.221-2.347-1.366-2.82-0.131-0.431-0.13-0.614-0.13-0.653zM226.979 578.987c74.906 24.969 175.673 39.68 285.021 39.68 109.35 0 210.116-14.711 285.022-39.68 37.231-12.41 70.434-28.127 95.211-47.654 24.294-19.145 46.434-46.985 46.434-83.332s-22.14-64.188-46.434-83.332c-24.777-19.529-57.98-35.243-95.211-47.654-74.906-24.969-175.671-39.68-285.022-39.68-109.348 0-210.116 14.711-285.021 39.68-37.23 12.412-70.436 28.126-95.212 47.654-24.294 19.145-46.434 46.985-46.434 83.332s22.139 64.188 46.434 83.332c24.775 19.527 57.982 35.245 95.212 47.654z" />
<glyph unicode="&#xe957;" glyph-name="Globe-2" d="M512 789.333c-188.513 0-341.333-152.82-341.333-341.333s152.82-341.333 341.333-341.333c188.514 0 341.333 152.819 341.333 341.333s-152.819 341.333-341.333 341.333zM85.333 448c0 235.642 191.025 426.667 426.667 426.667 235.639 0 426.667-191.025 426.667-426.667 0-235.639-191.027-426.667-426.667-426.667-235.642 0-426.667 191.027-426.667 426.667zM430.31 702.2c-27.941-62.865-46.31-152.702-46.31-254.2 0-101.5 18.37-191.334 46.31-254.199 13.995-31.488 29.551-54.327 44.672-68.715 14.899-14.182 27.337-18.419 37.018-18.419s22.118 4.237 37.018 18.419c15.121 14.387 30.677 37.227 44.672 68.715 27.942 62.865 46.31 152.7 46.31 254.199s-18.368 191.335-46.31 254.2c-13.995 31.486-29.551 54.326-44.672 68.716-14.899 14.181-27.337 18.417-37.018 18.417s-22.118-4.237-37.018-18.417c-15.121-14.39-30.677-37.229-44.672-68.716zM416.155 832.731c25.936 24.682 58.397 41.936 95.845 41.936s69.909-17.254 95.846-41.936c25.715-24.473 46.933-57.869 63.821-95.873 33.83-76.116 53.666-178.278 53.666-288.858s-19.836-212.74-53.666-288.858c-16.887-38.003-38.106-71.398-63.821-95.872-25.937-24.683-58.398-41.937-95.846-41.937s-69.909 17.254-95.845 41.937c-25.716 24.474-46.933 57.869-63.824 95.872-33.829 76.117-53.664 178.278-53.664 288.858s19.835 212.742 53.664 288.858c16.891 38.004 38.108 71.401 63.824 95.873zM518.758 277.333c-140.275 0-258.688-32.99-323.923-77.828l-48.335 70.323c84.432 58.031 221.949 92.838 372.259 92.838 141.909 0 271.872-30.997 356.804-82.837l-44.454-72.836c-67.435 41.156-180.489 70.34-312.35 70.34zM514.739 533.334c-148.712 0-284.827 34.839-368.427 92.97l48.717 70.060c64.339-44.738 181.196-77.697 319.71-77.697 135.019 0 249.702 31.333 315.068 74.551l47.061-71.182c-83.913-55.482-216.887-88.702-362.129-88.702z" />
<glyph unicode="&#xe958;" glyph-name="Heart" d="M280.409 819.531c28.43 9.69 58.193 12.464 84.512 12.464 62.496 0 109.613-26.681 147.096-53.46 37.777 26.985 84.582 53.46 147.814 53.46 28.109 0 56.866-3.929 84.732-13.199 170.214-55.137 225.041-238.402 177.519-388.942l-0.201-0.636-0.218-0.627c-26.3-75.072-69.308-143.642-125.73-199.735l-0.243-0.243-0.247-0.235c-78.797-75.861-167.279-144.388-261.483-200.956l-22.242-13.355-22.093 13.602c-93.997 57.865-180.812 124.553-260.564 201.033l-0.329 0.316-0.322 0.32c-55.94 55.987-98.944 124.053-125.636 199.057l-0.223 0.627-0.204 0.631c-48.442 150.869 6.663 333.915 178.062 389.878zM364.921 746.662c-21.049 0-40.699-2.319-57.165-7.963l-0.317-0.109-0.319-0.104c-114.694-37.315-161.673-162.983-123.726-282.119 22.426-62.72 58.404-119.603 105.063-166.396 68.886-66.018 143.406-124.356 223.777-175.753 80.107 50.317 155.712 109.897 223.774 175.39 46.903 46.703 82.829 103.872 104.896 166.558 37.423 119.5-9.869 244.999-122.773 281.492l-0.38 0.123v0.002c-18.078 6.030-37.636 8.878-57.92 8.878-46.545 0-78.716-22.399-122.027-55.301l-25.852-19.641-25.822 19.681c-42.62 32.485-75.5 55.261-121.21 55.261z" />
<glyph unicode="&#xe959;" glyph-name="home_1" d="M593.22 752.779c-47.211 38.76-115.23 38.76-162.441 0l-228.927-187.946c-19.743-16.209-31.186-40.409-31.186-65.954v-306.884c0-47.125 38.205-85.333 85.333-85.333h512c47.13 0 85.333 38.208 85.333 85.333v306.884c0 25.545-11.443 49.745-31.185 65.953l-228.928 187.946zM376.632 818.733c78.685 64.599 192.050 64.599 270.736 0l228.924-187.946c39.488-32.417 62.374-80.819 62.374-131.907v-306.884c0-94.255-76.412-170.667-170.667-170.667h-512c-94.257 0-170.667 76.412-170.667 170.667v306.884c0 51.088 22.887 99.49 62.373 131.907l228.926 187.946z" />
<glyph unicode="&#xe95a;" glyph-name="home_2" d="M593.22 752.779c-47.211 38.76-115.23 38.76-162.441 0l-228.927-187.946c-19.743-16.209-31.186-40.409-31.186-65.954v-306.884c0-47.125 38.205-85.333 85.333-85.333h512c47.13 0 85.333 38.208 85.333 85.333v306.884c0 25.545-11.443 49.745-31.185 65.953l-228.928 187.946zM376.632 818.733c78.685 64.599 192.050 64.599 270.736 0l228.924-187.946c39.488-32.417 62.374-80.819 62.374-131.907v-306.884c0-94.255-76.412-170.667-170.667-170.667h-512c-94.257 0-170.667 76.412-170.667 170.667v306.884c0 51.088 22.887 99.49 62.373 131.907l228.926 187.946zM341.333 277.333c0 70.694 57.308 128 128 128h85.333c70.694 0 128-57.306 128-128v-213.333h-85.333v213.333c0 23.565-19.102 42.667-42.667 42.667h-85.333c-23.565 0-42.667-19.102-42.667-42.667v-213.333h-85.333v213.333z" />
<glyph unicode="&#xe95b;" glyph-name="home_3" d="M593.22 752.779c-47.211 38.76-115.23 38.76-162.441 0l-228.927-187.946c-19.743-16.209-31.186-40.409-31.186-65.954v-306.884c0-47.125 38.205-85.333 85.333-85.333h512c47.13 0 85.333 38.208 85.333 85.333v306.884c0 25.545-11.443 49.745-31.185 65.953l-228.928 187.946zM376.632 818.733c78.685 64.599 192.050 64.599 270.736 0l228.924-187.946c39.488-32.417 62.374-80.819 62.374-131.907v-306.884c0-94.255-76.412-170.667-170.667-170.667h-512c-94.257 0-170.667 76.412-170.667 170.667v306.884c0 51.088 22.887 99.49 62.373 131.907l228.926 187.946zM341.333 234.667c0 94.255 76.41 170.667 170.667 170.667 94.255 0 170.667-76.412 170.667-170.667v-170.667h-85.333v170.667c0 47.13-38.204 85.333-85.333 85.333s-85.333-38.204-85.333-85.333v-170.667h-85.333v170.667z" />
<glyph unicode="&#xe95c;" glyph-name="home_4" d="M589.594 760.9c-45.854 37.911-109.333 37.911-155.183 0l-229.807-190.005c-20.955-17.326-33.937-44.7-33.937-74.524v-341.658c0-29.030 21.522-48.047 42.667-48.047h85.333c23.564 0 42.667 19.102 42.667 42.667v141.449c0 71.168 54.888 133.38 128 133.38h85.333c73.114 0 128-62.212 128-133.38v-141.449c0-23.565 19.102-42.667 42.667-42.667h85.333c21.146 0 42.667 19.017 42.667 48.047v341.658c0 29.824-12.979 57.198-33.937 74.524l-229.803 190.005zM643.968 826.666l229.803-190.005c41.404-34.232 64.896-86.135 64.896-140.289v-341.658c0-71.168-54.886-133.38-128-133.38h-85.333c-70.694 0-128 57.306-128 128v141.449c0 29.030-21.521 48.047-42.667 48.047h-85.333c-21.146 0-42.667-19.017-42.667-48.047v-141.449c0-70.694-57.308-128-128-128h-85.333c-73.112 0-128 62.212-128 133.38v341.658c0 54.154 23.492 106.057 64.895 140.289l229.805 190.005c77.409 64.001 186.525 64.001 263.935 0z" />
<glyph unicode="&#xe95d;" glyph-name="home_5" d="M589.594 760.9c-45.854 37.911-109.333 37.911-155.183 0l-229.807-190.005c-20.955-17.326-33.937-44.7-33.937-74.524v-296.303c0-54.080 40.625-93.402 85.333-93.402h85.333v138.761c0 96.218 73.99 178.735 170.667 178.735s170.667-82.517 170.667-178.735v-138.761h85.333c44.71 0 85.333 39.322 85.333 93.402v296.303c0 29.824-12.979 57.198-33.937 74.524l-229.803 190.005zM643.968 826.666l229.803-190.005c41.404-34.232 64.896-86.135 64.896-140.289v-296.303c0-96.218-73.988-178.735-170.667-178.735h-85.333c-47.13 0-85.333 38.204-85.333 85.333v138.761c0 54.080-40.623 93.402-85.333 93.402s-85.333-39.322-85.333-93.402v-138.761c0-47.13-38.205-85.333-85.333-85.333h-85.333c-96.676 0-170.667 82.517-170.667 178.735v296.303c0 54.155 23.492 106.057 64.895 140.289l229.805 190.005c77.409 64.001 186.525 64.001 263.935 0z" />
<glyph unicode="&#xe95e;" glyph-name="Image" d="M85.333 661.333c0 117.821 95.513 213.333 213.333 213.333h426.667c117.82 0 213.333-95.513 213.333-213.333v-426.667c0-117.82-95.514-213.333-213.333-213.333h-426.667c-117.821 0-213.333 95.514-213.333 213.333v426.667zM298.667 789.333c-70.692 0-128-57.308-128-128v-426.667c0-70.694 57.308-128 128-128h426.667c70.694 0 128 57.306 128 128v426.667c0 70.692-57.306 128-128 128h-426.667zM384 618.667c-23.564 0-42.667-19.103-42.667-42.667s19.103-42.667 42.667-42.667c23.564 0 42.667 19.103 42.667 42.667s-19.103 42.667-42.667 42.667zM256 576c0 70.692 57.308 128 128 128 70.694 0 128-57.308 128-128 0-70.694-57.306-128-128-128-70.692 0-128 57.306-128 128zM679.569 359.492c-18.359 15.3-45.705 12.535-60.634-6.123l-68.228-85.291c-41.011-51.264-114.411-62.66-169.036-26.244-17.795 11.861-41.706 8.149-55.066-8.55l-122.616-153.267-66.634 53.303 122.616 153.271c41.011 51.264 114.411 62.66 169.035 26.244 17.796-11.861 41.707-8.149 55.066 8.55l68.233 85.291c44.787 55.983 126.818 64.269 181.897 18.368l189.12-157.598-54.63-65.557-189.12 157.602z" />
<glyph unicode="&#xe95f;" glyph-name="info_circle" d="M523.375 789.333c-188.513 0-341.333-152.82-341.333-341.333s152.82-341.333 341.333-341.333c188.514 0 341.333 152.819 341.333 341.333s-152.819 341.333-341.333 341.333zM96.708 448c0 235.642 191.025 426.667 426.667 426.667 235.639 0 426.667-191.025 426.667-426.667 0-235.639-191.027-426.667-426.667-426.667-235.642 0-426.667 191.027-426.667 426.667zM523.375 490.667c23.565 0 42.667-19.102 42.667-42.667v-170.667c0-23.565-19.102-42.667-42.667-42.667s-42.667 19.102-42.667 42.667v170.667c0 23.565 19.102 42.667 42.667 42.667zM480.708 618.667c0 23.564 19.102 42.667 42.667 42.667h0.427c23.565 0 42.667-19.103 42.667-42.667s-19.102-42.667-42.667-42.667h-0.427c-23.565 0-42.667 19.103-42.667 42.667z" />
<glyph unicode="&#xe960;" glyph-name="info_rectangle" d="M85.333 661.333c0 117.821 95.513 213.333 213.333 213.333h426.667c117.82 0 213.333-95.513 213.333-213.333v-426.667c0-117.82-95.514-213.333-213.333-213.333h-426.667c-117.821 0-213.333 95.514-213.333 213.333v426.667zM298.667 789.333c-70.692 0-128-57.308-128-128v-426.667c0-70.694 57.308-128 128-128h426.667c70.694 0 128 57.306 128 128v426.667c0 70.692-57.306 128-128 128h-426.667zM512 490.667c23.565 0 42.667-19.102 42.667-42.667v-170.667c0-23.565-19.102-42.667-42.667-42.667s-42.667 19.102-42.667 42.667v170.667c0 23.565 19.102 42.667 42.667 42.667zM469.333 618.667c0 23.564 19.102 42.667 42.667 42.667h0.427c23.565 0 42.667-19.103 42.667-42.667s-19.102-42.667-42.667-42.667h-0.427c-23.565 0-42.667 19.103-42.667 42.667z" />
<glyph unicode="&#xe961;" glyph-name="ios-smartphone" d="M170.667 704c0 94.257 76.41 170.667 170.667 170.667h341.333c94.255 0 170.667-76.41 170.667-170.667v-512c0-94.255-76.412-170.667-170.667-170.667h-341.333c-94.257 0-170.667 76.412-170.667 170.667v512zM341.333 789.333c-47.128 0-85.333-38.205-85.333-85.333v-512c0-47.13 38.205-85.333 85.333-85.333h341.333c47.13 0 85.333 38.204 85.333 85.333v512c0 47.128-38.204 85.333-85.333 85.333h-341.333zM341.333 874.667h4.741c53.016 0 97.561-36.26 110.195-85.333h111.462c12.634 49.073 57.178 85.333 110.195 85.333h4.74v-85.333h-4.74c-15.71 0-28.446-12.735-28.446-28.445 0-31.419-25.468-56.889-56.887-56.889h-161.186c-31.418 0-56.888 25.47-56.888 56.889 0 15.709-12.735 28.445-28.445 28.445h-4.741v85.333z" />
<glyph unicode="&#xe962;" glyph-name="ios-smartphone_active" d="M170.667 704c0 94.257 76.41 170.667 170.667 170.667h341.333c94.255 0 170.667-76.41 170.667-170.667v-256c0-23.565-19.102-42.667-42.667-42.667s-42.667 19.102-42.667 42.667v256c0 47.128-38.204 85.333-85.333 85.333h-341.333c-47.128 0-85.333-38.205-85.333-85.333v-512c0-47.13 38.205-85.333 85.333-85.333h85.333c23.565 0 42.667-19.102 42.667-42.667s-19.102-42.667-42.667-42.667h-85.333c-94.257 0-170.667 76.412-170.667 170.667v512zM341.333 874.667h4.741c53.016 0 97.561-36.26 110.195-85.333h111.462c12.634 49.073 57.178 85.333 110.195 85.333h4.74v-85.333h-4.74c-15.71 0-28.446-12.735-28.446-28.445 0-31.419-25.468-56.889-56.887-56.889h-161.186c-31.418 0-56.888 25.47-56.888 56.889 0 15.709-12.735 28.445-28.445 28.445h-4.741v85.333zM682.667 277.333c-47.13 0-85.333-38.204-85.333-85.333s38.204-85.333 85.333-85.333c47.13 0 85.333 38.204 85.333 85.333s-38.204 85.333-85.333 85.333zM512 192c0 94.255 76.412 170.667 170.667 170.667s170.667-76.412 170.667-170.667c0-94.255-76.412-170.667-170.667-170.667s-170.667 76.412-170.667 170.667z" />
<glyph unicode="&#xe963;" glyph-name="ios-smartphone_check" d="M170.667 704c0 94.257 76.41 170.667 170.667 170.667h341.333c94.255 0 170.667-76.41 170.667-170.667v-512c0-94.255-76.412-170.667-170.667-170.667h-341.333c-94.257 0-170.667 76.412-170.667 170.667v512zM341.333 789.333c-47.128 0-85.333-38.205-85.333-85.333v-512c0-47.13 38.205-85.333 85.333-85.333h341.333c47.13 0 85.333 38.204 85.333 85.333v512c0 47.128-38.204 85.333-85.333 85.333h-341.333zM341.333 874.667h4.741c53.016 0 97.561-36.26 110.195-85.333h111.462c12.634 49.073 57.178 85.333 110.195 85.333h4.74v-85.333h-4.74c-15.71 0-28.446-12.735-28.446-28.445 0-31.419-25.468-56.889-56.887-56.889h-161.186c-31.418 0-56.888 25.47-56.888 56.889 0 15.709-12.735 28.445-28.445 28.445h-4.741v85.333zM669.184 521.792c17.19-16.115 18.061-43.115 1.946-60.305l-160-170.667c-15.287-16.307-40.563-18.052-57.946-4.006l-96 77.577c-18.328 14.81-21.179 41.673-6.369 60.002s41.675 21.18 60.003 6.37l65.167-52.663 132.89 141.747c16.115 17.193 43.119 18.063 60.309 1.946z" />
<glyph unicode="&#xe964;" glyph-name="ios-smartphone_delete" d="M170.667 704c0 94.257 76.41 170.667 170.667 170.667h341.333c94.255 0 170.667-76.41 170.667-170.667v-512c0-94.255-76.412-170.667-170.667-170.667h-341.333c-94.257 0-170.667 76.412-170.667 170.667v512zM341.333 789.333c-47.128 0-85.333-38.205-85.333-85.333v-512c0-47.13 38.205-85.333 85.333-85.333h341.333c47.13 0 85.333 38.204 85.333 85.333v512c0 47.128-38.204 85.333-85.333 85.333h-341.333zM341.333 874.667h4.741c53.016 0 97.561-36.26 110.195-85.333h111.462c12.634 49.073 57.178 85.333 110.195 85.333h4.74v-85.333h-4.74c-15.71 0-28.446-12.735-28.446-28.445 0-31.419-25.468-56.889-56.887-56.889h-161.186c-31.418 0-56.888 25.47-56.888 56.889 0 15.709-12.735 28.445-28.445 28.445h-4.741v85.333zM375.163 478.17c16.663 16.661 43.677 16.661 60.34 0l76.497-76.497 76.497 76.497c16.661 16.661 43.678 16.661 60.339 0s16.661-43.678 0-60.339l-76.497-76.497 76.497-76.497c16.661-16.661 16.661-43.678 0-60.339s-43.678-16.661-60.339 0l-76.497 76.497-76.497-76.497c-16.662-16.661-43.677-16.661-60.34 0s-16.662 43.678 0 60.339l76.497 76.497-76.497 76.497c-16.662 16.661-16.662 43.678 0 60.339z" />
<glyph unicode="&#xe965;" glyph-name="ios-smartphone_down" d="M170.667 704c0 94.257 76.41 170.667 170.667 170.667h341.333c94.255 0 170.667-76.41 170.667-170.667v-512c0-94.255-76.412-170.667-170.667-170.667h-341.333c-94.257 0-170.667 76.412-170.667 170.667v512zM341.333 789.333c-47.128 0-85.333-38.205-85.333-85.333v-512c0-47.13 38.205-85.333 85.333-85.333h341.333c47.13 0 85.333 38.204 85.333 85.333v512c0 47.128-38.204 85.333-85.333 85.333h-341.333zM341.333 874.667h4.741c53.016 0 97.561-36.26 110.195-85.333h111.462c12.634 49.073 57.178 85.333 110.195 85.333h4.74v-85.333h-4.74c-15.71 0-28.446-12.735-28.446-28.445 0-31.419-25.468-56.889-56.887-56.889h-161.186c-31.418 0-56.888 25.47-56.888 56.889 0 15.709-12.735 28.445-28.445 28.445h-4.741v85.333zM512 576c23.565 0 42.667-19.103 42.667-42.667v-152.994l55.164 55.164c16.661 16.661 43.678 16.661 60.339 0s16.661-43.678 0-60.339l-128-128c-16.661-16.661-43.678-16.661-60.339 0l-128 128c-16.662 16.661-16.662 43.678 0 60.339s43.677 16.661 60.34 0l55.163-55.164v152.994c0 23.564 19.102 42.667 42.667 42.667z" />
<glyph unicode="&#xe966;" glyph-name="ios-smartphone_minus" d="M170.667 704c0 94.257 76.41 170.667 170.667 170.667h341.333c94.255 0 170.667-76.41 170.667-170.667v-512c0-94.255-76.412-170.667-170.667-170.667h-341.333c-94.257 0-170.667 76.412-170.667 170.667v512zM341.333 789.333c-47.128 0-85.333-38.205-85.333-85.333v-512c0-47.13 38.205-85.333 85.333-85.333h341.333c47.13 0 85.333 38.204 85.333 85.333v512c0 47.128-38.204 85.333-85.333 85.333h-341.333zM341.333 874.667h4.741c53.016 0 97.561-36.26 110.195-85.333h111.462c12.634 49.073 57.178 85.333 110.195 85.333h4.74v-85.333h-4.74c-15.71 0-28.446-12.735-28.446-28.445 0-31.419-25.468-56.889-56.887-56.889h-161.186c-31.418 0-56.888 25.47-56.888 56.889 0 15.709-12.735 28.445-28.445 28.445h-4.741v85.333zM341.333 405.333c0 23.565 19.103 42.667 42.667 42.667h256c23.565 0 42.667-19.102 42.667-42.667s-19.102-42.667-42.667-42.667h-256c-23.564 0-42.667 19.102-42.667 42.667z" />
</font>
</defs>
</svg>
